<?xml version="1.0" encoding="utf-8"?>
<!-- Generator: Adobe Illustrator 16.0.3, SVG Export Plug-In . SVG Version: 6.00 Build 0)  -->
<!DOCTYPE svg PUBLIC "-//W3C//DTD SVG 1.1//EN" "http://www.w3.org/Graphics/SVG/1.1/DTD/svg11.dtd">
<svg version="1.1" id="Layer_1" xmlns="http://www.w3.org/2000/svg" xmlns:xlink="http://www.w3.org/1999/xlink" x="0px" y="0px"
	 width="428px" height="207px" viewBox="0 0 428 207" enable-background="new 0 0 428 207" xml:space="preserve">
<g>
	<g>
		<defs>
			<rect id="SVGID_1_" x="-204.613" y="-88.558" width="850.392" height="595.277"/>
		</defs>
		<clipPath id="SVGID_2_">
			<use xlink:href="#SVGID_1_"  overflow="visible"/>
		</clipPath>
		<path clip-path="url(#SVGID_2_)" fill="#3A4A9F" d="M33.892,120.907c5.873-4.938,10.479-10.857,14.553-17.495
			c0,1.605,0.181,3.234-0.029,4.811c-1.188,8.955-2.413,17.906-3.779,26.835c-0.201,1.317-0.998,2.697-1.887,3.733
			c-6.189,7.203-11.8,14.728-14.909,23.866c-2.349,6.904-1.508,13.445,1.758,19.828c1.751,3.422,3.39,6.9,6.277,9.582
			c0.328,0.307,0.541,0.904,0.541,1.367v13.035C22.183,184.77,10.804,161.882,5.51,136.395c0.443,0.344,0.889,0.682,1.327,1.03
			c0.505,0.403,1.002,0.815,1.728,1.408c-0.918-1.692-1.659-3.231-2.553-4.674c-2.429-3.923-2.693-8.358-3.142-12.758
			c-0.749-7.345-0.859-14.691-0.062-22.039c0.028-0.251,0.125-0.495,0.324-1.259c1.887,3.429,3.58,6.505,5.272,9.581
			c0.121-0.066,0.242-0.133,0.363-0.199c-0.929-3.158-1.853-6.317-2.788-9.473c-1.348-4.544-1.807-9.028-0.791-13.818
			c1.43-6.737,2.203-13.613,3.271-20.428c0.117-0.745,0.318-1.477,0.62-2.84c1.636,2.311,2.935,4.146,4.233,5.981
			c0.133-0.078,0.267-0.156,0.399-0.235c-0.786-2.515-1.319-5.148-2.418-7.518c-1.787-3.853-1.255-7.746-0.872-11.691
			c1.226-12.622,1.556-25.218-1.403-37.678C8.427,7.286,7.559,4.852,6.662,1.871c2.138,2.085,3.978,3.696,5.604,5.5
			c7.084,7.861,13.399,16.323,18.394,25.65c3.34,6.237,6.017,12.826,9.069,19.221c1.602,3.355,0.384,6.623-0.444,9.729
			c-1.372,5.14-3.338,10.121-5.053,15.169c-0.096,0.282-0.19,0.565-0.286,0.847l0.543,0.293c2.854-4.749,5.71-9.499,8.737-14.537
			c0.341,0.783,0.698,1.371,0.858,2.008c2.181,8.672,3.949,17.444,4.079,26.394c0.04,2.79-1.159,5.72-2.277,8.382
			c-2.985,7.105-6.611,13.874-11.714,19.745C34.027,120.439,33.983,120.694,33.892,120.907 M20.464,40.984
			c0.043,0.372,0.073,0.746,0.13,1.117c0.801,5.203,1.987,10.38,2.342,15.613c1.219,17.945-1.085,35.58-5.121,53.052
			c-1.301,5.632-2.421,11.351-3.003,17.093c-1.217,12.004,0.27,23.787,4.013,35.269c0.425,1.302,0.912,2.582,1.37,3.873
			c-0.306-2.823-0.863-5.548-1.486-8.258c-3.505-15.243-2.363-30.347,1.126-45.434c1.596-6.901,2.974-13.866,4.097-20.859
			c1.699-10.581,1.903-21.247,0.896-31.92C24.197,53.846,22.833,47.309,20.464,40.984"/>
	</g>
</g>
<g>
	<g>
		<defs>
			<path id="SVGID_3_" d="M166.713,125.458c-7.895,2.185-15.858,4.151-23.658,6.638c-8.187,2.609-16.317,5.467-24.287,8.678
				c-9.299,3.744-18.571,7.636-27.547,12.084c-16.973,8.412-32.927,18.49-47.316,30.904c-2.137,1.842-4.157,3.819-5.913,5.44
				c2.515,4.612,0.495,9.228,1.519,13.806c49.983-24.619,102.383-40.088,157.765-46.023c-0.373-0.65-0.504-1.028-0.754-1.295
				c-2.935-3.133-5.858-6.276-8.851-9.354c-1.352-1.39-2.671-2.556-5.054-2.062c-10.846,2.246-21.773,4.088-32.594,6.438
				c-17.395,3.781-34.594,8.324-51.352,14.41c-1.846,0.671-3.726,1.249-5.589,1.87c-0.046-0.154-0.094-0.309-0.141-0.461
				c28.513-12.159,57.981-21.158,88.803-26.446c-0.491-0.685-0.755-1.123-1.085-1.502c-3.424-3.92-6.929-7.772-10.249-11.776
				c-0.82-0.988-1.642-1.5-2.666-1.5C167.423,125.307,167.081,125.355,166.713,125.458"/>
		</defs>
		<clipPath id="SVGID_4_">
			<use xlink:href="#SVGID_3_"  overflow="visible"/>
		</clipPath>
		
			<linearGradient id="SVGID_5_" gradientUnits="userSpaceOnUse" x1="-90.0574" y1="-74.9424" x2="-89.0579" y2="-74.9424" gradientTransform="matrix(27.7638 119.0551 -119.0551 27.7638 -6330.7734 12853.3506)">
			<stop  offset="0" style="stop-color:#FFC20E"/>
			<stop  offset="1" style="stop-color:#CBDB2A"/>
		</linearGradient>
		<polygon clip-path="url(#SVGID_4_)" fill="url(#SVGID_5_)" points="189.06,90.077 214.461,199 46.207,238.236 20.806,129.314 		
			"/>
	</g>
</g>
<g>
	<g>
		<defs>
			<path id="SVGID_6_" d="M124.625,62.592c-10.146,6.352-19.176,14.084-27.661,22.483c-9.076,8.985-17.443,18.613-24.798,29.035
				c-5.247,7.434-10.217,15.115-14.671,23.044c-5.545,9.871-10.479,20.09-15.575,30.209c-1.387,2.758-2.412,5.697-3.604,8.554
				c0.479-0.017,0.685-0.168,0.838-0.36c5.092-6.404,9.935-13.025,15.319-19.17c9.98-11.392,21.212-21.479,33.443-30.422
				c9-6.582,18.365-12.612,28.377-17.54c6.303-3.104,12.777-5.857,19.2-8.716c1.038-0.461,1.545-0.86,1.238-2.163
				c-2.103-8.964-3.231-18.063-3.442-27.267c-0.091-4.008-0.016-8.02-0.016-12.765C130.07,59.389,127.302,60.917,124.625,62.592"/>
		</defs>
		<clipPath id="SVGID_7_">
			<use xlink:href="#SVGID_6_"  overflow="visible"/>
		</clipPath>
		
			<linearGradient id="SVGID_8_" gradientUnits="userSpaceOnUse" x1="-90.0579" y1="-74.9336" x2="-89.0579" y2="-74.9336" gradientTransform="matrix(27.7638 119.0551 -119.0551 27.7638 -6347.6484 12857.2256)">
			<stop  offset="0" style="stop-color:#FFC20E"/>
			<stop  offset="1" style="stop-color:#CBDB2A"/>
		</linearGradient>
		<polygon clip-path="url(#SVGID_7_)" fill="url(#SVGID_8_)" points="131.947,35.68 163.227,169.811 43.409,197.752 12.129,63.621 
					"/>
	</g>
</g>
<g>
	<g>
		<defs>
			<path id="SVGID_9_" d="M94.341,124.945c-23.783,16.541-43.467,37.033-59.009,61.449c0.147,0.164,0.296,0.328,0.442,0.492
				c0.311-0.193,0.646-0.354,0.926-0.58c6.932-5.604,13.654-11.49,20.833-16.758c10.732-7.877,22.227-14.619,34.33-20.152
				c11.662-5.332,23.496-10.319,35.426-15.022c7.382-2.91,15.043-5.146,22.666-7.39c2.304-0.68,3.547-1.541,4.008-3.984
				c1.626-8.606,4.533-16.839,7.72-24.975c0.439-1.117,0.858-2.242,1.496-3.912C137.869,100.101,115.17,110.46,94.341,124.945"/>
		</defs>
		<clipPath id="SVGID_10_">
			<use xlink:href="#SVGID_9_"  overflow="visible"/>
		</clipPath>
		
			<linearGradient id="SVGID_11_" gradientUnits="userSpaceOnUse" x1="-90.0579" y1="-74.9185" x2="-89.0579" y2="-74.9185" gradientTransform="matrix(27.7638 119.0551 -119.0551 27.7638 -6340.1484 12855.4756)">
			<stop  offset="0" style="stop-color:#FFC20E"/>
			<stop  offset="1" style="stop-color:#CBDB2A"/>
		</linearGradient>
		<polygon clip-path="url(#SVGID_10_)" fill="url(#SVGID_11_)" points="156.585,65.837 183.698,182.102 41.926,215.164 
			14.813,98.898 		"/>
	</g>
</g>
<g>
	<g>
		<defs>
			<path id="SVGID_12_" d="M80.686,56.512c-4.78,6.907-9.708,13.731-14.081,20.891c-4.341,7.109-8.163,14.542-12.035,21.926
				c-1.643,3.133-3.369,6.232-3.506,10.029c-0.328,9.202-1.795,18.272-3.951,27.222c-0.268,1.113-0.692,2.293-1.379,3.184
				c-2.059,2.672-4.359,5.157-6.424,7.824c-3.331,4.307-6.165,8.838-6.84,14.465c-0.478,4.002-1.243,7.979-2.08,11.924
				c-0.607,2.867,0.942,4.93,2.134,7.737c0.53-1.073,0.876-1.667,1.125-2.299c5.75-14.577,12.4-28.731,20.226-42.306
				c5.987-10.387,12.521-20.429,19.846-29.941c7.719-10.025,16.17-19.39,25.321-28.119c1.255-1.199,1.424-2.08,0.473-3.598
				c-3.646-5.823-6.4-12.081-8.524-18.611c-1.021-3.142-1.968-6.309-3.099-9.95C85.272,50.371,82.865,53.364,80.686,56.512"/>
		</defs>
		<clipPath id="SVGID_13_">
			<use xlink:href="#SVGID_12_"  overflow="visible"/>
		</clipPath>
		
			<linearGradient id="SVGID_14_" gradientUnits="userSpaceOnUse" x1="-90.0574" y1="-74.9414" x2="-89.0578" y2="-74.9414" gradientTransform="matrix(27.7638 119.0551 -119.0551 27.7638 -6369.3984 12862.3506)">
			<stop  offset="0" style="stop-color:#FFC20E"/>
			<stop  offset="1" style="stop-color:#CBDB2A"/>
		</linearGradient>
		<polygon clip-path="url(#SVGID_13_)" fill="url(#SVGID_14_)" points="96.819,31.257 130.285,174.76 33.428,197.348 -0.037,53.844 
					"/>
	</g>
</g>
<g>
	<rect x="-204.613" y="-88.558" fill="none" width="850.392" height="595.277"/>
	<polygon fill="#3A4A9F" points="52.296,140.967 52.296,193.37 73.092,193.37 73.092,206.471 39.196,206.471 39.196,140.967 	"/>
	<rect x="-204.613" y="-88.558" fill="none" width="850.392" height="595.277"/>
	<polygon fill="#3A4A9F" points="84.361,206.471 84.361,140.967 117.159,140.967 117.159,154.068 97.461,154.068 97.461,167.168 
		114.685,167.168 114.685,180.27 97.461,180.27 97.461,193.371 118.258,193.371 118.258,206.471 	"/>
	<rect x="-204.613" y="-88.558" fill="none" width="850.392" height="595.277"/>
	<polygon fill="#3A4A9F" points="144.368,171.566 126.595,140.875 142.444,140.875 152.339,159.107 162.142,140.875 
		177.625,140.875 159.759,171.566 180.373,206.471 164.889,206.471 152.339,184.025 139.696,206.471 123.755,206.471 	"/>
	<rect x="-204.613" y="-88.558" fill="none" width="850.392" height="595.277"/>
	<polygon fill="#3A4A9F" points="204.375,176.971 181.565,140.967 197.506,140.967 210.88,163.504 224.255,140.967 240.289,140.967 
		217.386,176.971 217.386,206.471 204.375,206.471 	"/>
	<rect x="-204.613" y="-88.558" fill="none" width="850.392" height="595.277"/>
	<path fill="#3A4A9F" d="M275.285,153.335c-25.927,0-25.927,39.942,0,39.942c5.681,0,10.17-1.648,12.644-2.932l1.741,13.559
		c-4.032,1.65-9.804,2.748-14.385,2.748c-44.433,0-44.342-66.51,0-66.51c4.581,0,8.979,0.824,12.917,2.564l-1.557,13.468
		C284.172,154.893,280.965,153.335,275.285,153.335"/>
	<rect x="-204.613" y="-88.558" fill="none" width="850.392" height="595.277"/>
	<path fill="#3A4A9F" d="M331.638,207.921c-18.703-0.007-34.741-15.094-34.278-35.315c0.405-17.725,14.946-33.541,35.168-33.27
		c8.664,0.379,16.291,3.344,22.61,9.331c7.18,6.804,10.77,15.271,10.766,25.121C365.899,192.592,350.574,207.916,331.638,207.921
		 M363.403,175.781c0.154,0.402,0.229,0.818,0.271,1.246c0.037,0.346,0.137,0.683,0.203,1.023c0.036,0.198,0.061,0.399,0.096,0.598
		c0.014,0.086,0.027,0.232,0.07,0.244c0.146,0.041,0.198-0.076,0.204-0.203c0.009-0.131,0.005-0.26,0.003-0.392
		c-0.007-0.211-0.035-0.424-0.021-0.633c0.035-0.458-0.063-0.937,0.201-1.365c0.07-0.112,0.021-0.239-0.113-0.278
		c-0.217-0.066-0.235-0.213-0.195-0.397c0.08-0.345-0.116-0.603-0.278-0.869c-0.181-0.297-0.406-0.571-0.543-0.886
		c-0.103-0.23-0.166-0.333-0.396-0.16c-0.026,0.02-0.073,0.021-0.11,0.018c-0.187-0.019-0.197,0.102-0.154,0.219
		c0.057,0.158,0.137,0.307,0.221,0.451c0.252,0.438,0.519,0.869,0.547,1.391c-0.088-0.018-0.174-0.035-0.26-0.053
		c0.019,0.127,0.031,0.254,0.047,0.383c0.041,0.002,0.082,0.003,0.123,0.005C363.347,176.008,363.376,175.896,363.403,175.781
		 M340.154,186.564c0.028,0.084,0.041,0.179,0.089,0.25c0.028,0.041,0.111,0.047,0.17,0.068c0.021-0.061,0.064-0.123,0.057-0.178
		c-0.033-0.204-0.188-0.152-0.32-0.135c0.066-0.201,0.113-0.414,0.203-0.604c0.164-0.344,0.353-0.677,0.535-1.012
		c0.034-0.063,0.084-0.121,0.136-0.173c0.227-0.227,0.471-0.436,0.681-0.676c0.446-0.516,0.853-1.068,1.318-1.563
		c0.388-0.41,0.873-0.729,1.259-1.139c0.575-0.613,1.017-1.323,1.31-2.119c0.14-0.381,0.322-0.745,0.456-1.129
		c0.12-0.348,0.399-0.649,0.316-1.061c-0.007-0.031,0.011-0.088,0.035-0.104c0.171-0.115,0.103-0.266,0.073-0.415
		c-0.021-0.103-0.009-0.212-0.029-0.315c-0.019-0.103-0.032-0.252-0.098-0.287c-0.067-0.037-0.206,0.023-0.295,0.074
		c-0.17,0.098-0.315,0.245-0.491,0.325c-0.191,0.086-0.408,0.11-0.61,0.175c-0.296,0.094-0.607,0.148-0.847,0.379
		c-0.032,0.03-0.104,0.041-0.153,0.033c-0.238-0.033-0.43,0.064-0.622,0.189c-0.235,0.154-0.454,0.127-0.67-0.065
		c-0.155-0.138-0.305-0.284-0.458-0.427c0.24-0.268,0.236-0.352-0.051-0.621c-0.045-0.042-0.097-0.076-0.143-0.117
		c-0.274-0.244-0.547-0.49-0.823-0.73c-0.067-0.059-0.149-0.101-0.229-0.143c-0.176-0.092-0.353-0.18-0.528-0.27
		c-0.001-0.027-0.002-0.057-0.003-0.084c0.067-0.037,0.138-0.071,0.252-0.131c-0.151-0.094-0.24-0.149-0.363-0.228
		c-0.008,0.144-0.013,0.237-0.019,0.329c-0.021,0.01-0.045,0.021-0.066,0.031c-0.067-0.117-0.166-0.225-0.197-0.352
		c-0.152-0.623-0.397-1.174-1.01-1.49c-0.077-0.039-0.135-0.166-0.153-0.26c-0.059-0.33-0.096-0.666-0.145-0.998
		c-0.007-0.051-0.031-0.101-0.054-0.148c-0.158-0.36-0.413-0.631-0.739-0.852c-0.19-0.129-0.28-0.322-0.173-0.564
		c0.019-0.045-0.009-0.127-0.041-0.17c-0.119-0.156-0.274-0.289-0.371-0.457c-0.234-0.402-0.431-0.828-0.667-1.229
		c-0.154-0.263-0.358-0.497-0.531-0.749c-0.074-0.107-0.127-0.23-0.188-0.347c0.024-0.013,0.051-0.024,0.074-0.037
		c0.051,0.074,0.098,0.151,0.15,0.222c0.144,0.188,0.285,0.377,0.438,0.557c0.085,0.102,0.183,0.127,0.289,0.005
		c0.139-0.153,0.297-0.146,0.425,0.014c0.216,0.271,0.437,0.537,0.63,0.822c0.194,0.288,0.354,0.601,0.545,0.892
		c0.062,0.098,0.165,0.176,0.266,0.236c0.452,0.27,0.729,0.648,0.761,1.184c0.027,0.43,0.201,0.783,0.589,0.977
		c0.307,0.152,0.508,0.369,0.672,0.662c0.147,0.265,0.35,0.5,0.544,0.734c0.252,0.305,0.497,0.604,0.463,1.039
		c-0.01,0.118,0.022,0.243,0.056,0.359c0.086,0.314,0.19,0.623,0.274,0.938c0.084,0.318,0.334,0.584,0.69,0.409
		c0.204-0.099,0.388-0.241,0.584-0.354c0.124-0.071,0.257-0.129,0.386-0.189c0.238-0.113,0.479-0.227,0.719-0.34
		c0.073-0.035,0.145-0.105,0.219-0.107c0.203-0.008,0.31-0.137,0.433-0.27c0.116-0.124,0.26-0.232,0.404-0.32
		c0.288-0.177,0.586-0.336,0.881-0.5c0.162-0.09,0.25-0.212,0.236-0.408c-0.005-0.072,0.036-0.185,0.092-0.219
		c0.286-0.171,0.575-0.342,0.88-0.474c0.189-0.082,0.328-0.152,0.371-0.384c0.021-0.115,0.146-0.256,0.256-0.301
		c0.168-0.07,0.255-0.164,0.26-0.336c0.007-0.199,0.123-0.316,0.292-0.373c0.164-0.055,0.181-0.144,0.15-0.299
		c-0.032-0.162-0.037-0.334-0.023-0.5c0.009-0.107,0.076-0.179,0.215-0.121c0.051,0.022,0.122-0.002,0.184-0.005
		c-0.01-0.063,0.001-0.144-0.033-0.187c-0.104-0.135-0.063-0.248,0.008-0.381c0.082-0.153,0.167-0.318,0.193-0.487
		c0.018-0.104-0.047-0.245-0.118-0.335c-0.094-0.117-0.241-0.189-0.344-0.301c-0.141-0.154-0.298-0.213-0.508-0.205
		c-0.472,0.017-0.795-0.252-0.903-0.717c-0.037-0.156-0.066-0.315-0.113-0.469c-0.016-0.048-0.079-0.078-0.119-0.117
		c-0.037,0.043-0.089,0.082-0.107,0.131c-0.04,0.105-0.046,0.227-0.095,0.326c-0.137,0.274-0.284,0.543-0.437,0.811
		c-0.029,0.055-0.102,0.138-0.138,0.13c-0.268-0.058-0.473,0.093-0.699,0.179c-0.215,0.082-0.427-0.05-0.445-0.252
		c-0.021-0.211-0.049-0.423-0.104-0.626c-0.021-0.073-0.133-0.12-0.204-0.18c-0.058,0.069-0.14,0.13-0.169,0.21
		c-0.033,0.092-0.02,0.199-0.024,0.301c-0.113-0.117-0.298-0.199-0.14-0.382c0.011-0.013,0.015-0.052,0.004-0.063
		c-0.119-0.141-0.216-0.33-0.368-0.406c-0.521-0.26-0.789-0.731-1.084-1.188c-0.015-0.023-0.024-0.068-0.014-0.086
		c0.104-0.145,0.191-0.375,0.323-0.404c0.159-0.035,0.396-0.127,0.553,0.067c0.201,0.252,0.381,0.522,0.597,0.759
		c0.116,0.127,0.286,0.207,0.44,0.293c0.103,0.057,0.224,0.08,0.328,0.133c0.261,0.135,0.501,0.285,0.816,0.322
		c0.238,0.029,0.406-0.082,0.608-0.117c0.128-0.021,0.224-0.063,0.258-0.217c0.034-0.15,0.183-0.176,0.274-0.053
		c0.065,0.091,0.11,0.202,0.146,0.311c0.068,0.207,0.198,0.33,0.421,0.32c0.336-0.016,0.67-0.041,1.005-0.063
		c0.068-0.006,0.152-0.045,0.202-0.018c0.218,0.119,0.415,0.032,0.617-0.031c0.065-0.021,0.129-0.047,0.193-0.07
		c0.222-0.076,0.442-0.156,0.666-0.229c0.11-0.035,0.228-0.053,0.34-0.088c0.259-0.08,0.525-0.429,0.766,0.029
		c0.01,0.018,0.042,0.02,0.06,0.035c0.219,0.209,0.435,0.396,0.727,0.537c0.267,0.127,0.458,0.369,0.809,0.195
		c-0.078,0.106-0.172,0.17-0.256,0.245c-0.047,0.042-0.107,0.147-0.104,0.153c0.268,0.225,0.542,0.443,0.818,0.656
		c0.023,0.019,0.076,0.006,0.111,0c0.305-0.063,0.521-0.527,0.377-0.795c-0.025-0.047-0.027-0.104-0.049-0.19
		c0.061,0.032,0.094,0.038,0.098,0.052c0.099,0.28,0.193,0.561,0.283,0.842c0.035,0.108,0.051,0.225,0.088,0.332
		c0.066,0.187,0.144,0.371,0.215,0.555c0.174,0.451,0.32,0.912,0.525,1.347c0.207,0.435,0.479,0.836,0.707,1.261
		c0.141,0.262,0.209,0.566,0.373,0.809c0.256,0.382,0.442,0.781,0.582,1.217c0.069,0.222,0.203,0.432,0.338,0.624
		c0.125,0.18,0.295,0.147,0.391-0.054c0.031-0.068,0.051-0.145,0.066-0.219c0.072-0.349,0.32-0.652,0.26-1.035
		c-0.004-0.025,0.027-0.055,0.033-0.084c0.029-0.129,0.1-0.267,0.076-0.386c-0.066-0.354-0.168-0.7-0.037-1.06
		c0.01-0.031-0.004-0.075-0.015-0.112c-0.106-0.407-0.217-0.813-0.321-1.224c-0.049-0.192-0.121-0.396,0.149-0.5
		c0.037-0.014,0.062-0.086,0.068-0.135c0.055-0.291,0.309-0.533,0.205-0.86c-0.004-0.011,0.012-0.027,0.018-0.042
		c0.086-0.286,0.189-0.568,0.256-0.859c0.064-0.283,0.019-0.617,0.156-0.852c0.209-0.361,0.232-0.682,0.117-1.063
		c-0.035-0.116,0.027-0.321,0.119-0.405c0.297-0.269,0.606-0.513,0.535-0.992c0.063,0.053,0.117,0.109,0.155,0.176
		c0.091,0.152,0.181,0.304,0.255,0.464c0.155,0.333,0.604,0.435,0.666,0.845c0.004,0.026,0.063,0.041,0.088,0.068
		c0.051,0.055,0.112,0.109,0.145,0.175c0.146,0.312,0.312,0.619,0.299,0.979c-0.002,0.061,0,0.131,0.027,0.181
		c0.043,0.073,0.113,0.188,0.164,0.185c0.078-0.004,0.19-0.084,0.213-0.156c0.047-0.149,0.049-0.314,0.062-0.473
		c0.008-0.084,0.002-0.17,0.002-0.254c0.02-0.002,0.041-0.004,0.061-0.006c0.031,0.059,0.076,0.114,0.094,0.178
		c0.222,0.795,0.64,1.524,0.769,2.346c0.084,0.543,0.137,1.09,0.213,1.634c0.01,0.086,0.039,0.181,0.09,0.249
		c0.248,0.324,0.381,0.689,0.439,1.091c0.084,0.56,0.112,1.131,0.396,1.646c0.076,0.142,0.154,0.193,0.314,0.142
		c0-0.065,0.006-0.126,0-0.185c-0.058-0.457-0.132-0.912-0.168-1.371c-0.037-0.463-0.164-0.869-0.531-1.18
		c-0.035-0.031-0.053-0.092-0.064-0.143c-0.051-0.191-0.084-0.387-0.143-0.576c-0.043-0.137-0.142-0.26-0.162-0.398
		c-0.109-0.679-0.201-1.361-0.297-2.041c-0.002-0.017,0.02-0.035,0.012-0.024c0.103,0.075,0.205,0.137,0.289,0.221
		c0.076,0.079,0.135,0.181,0.193,0.276c0.053,0.082,0.104,0.168,0.146,0.257c0.063,0.142,0.144,0.28,0.168,0.431
		c0.031,0.195,0.088,0.359,0.285,0.528c0.018-0.12,0.037-0.188,0.035-0.256c-0.019-0.45-0.07-0.899-0.053-1.347
		c0.024-0.617-0.104-1.209-0.25-1.795c-0.13-0.521-0.332-1.016-0.632-1.475c-0.213-0.33-0.385-0.693-0.53-1.059
		c-0.113-0.282-0.166-0.59-0.226-0.891c-0.033-0.178-0.024-0.365-0.037-0.549c0.021-0.005,0.043-0.011,0.064-0.018
		c0.055,0.145,0.123,0.283,0.16,0.432c0.069,0.289,0.117,0.584,0.184,0.874c0.015,0.054,0.063,0.108,0.109,0.14
		c0.039,0.024,0.11,0.032,0.147,0.01c0.033-0.02,0.064-0.096,0.054-0.133c-0.113-0.355-0.23-0.711-0.359-1.061
		c-0.059-0.16-0.178-0.303-0.213-0.465c-0.094-0.434-0.137-0.877-0.238-1.307c-0.11-0.469-0.217-0.949-0.412-1.383
		c-0.426-0.943-0.887-1.873-1.375-2.785c-0.33-0.613-0.694-1.218-1.112-1.773c-0.498-0.662-1.037-1.293-1.437-2.021
		c-0.113-0.205-0.209-0.269-0.418-0.074c-0.16-0.287-0.313-0.549-0.457-0.814c-0.139-0.252-0.225-0.546-0.408-0.754
		c-0.565-0.637-1.151-1.26-1.76-1.854c-0.6-0.586-1.227-1.142-1.859-1.691c-1.646-1.432-3.438-2.664-5.358-3.695
		c-0.984-0.529-1.998-1.014-3.023-1.458c-0.871-0.379-1.773-0.685-2.671-1.002c-0.556-0.196-1.124-0.353-1.688-0.528
		c-0.204-0.063-0.405-0.135-0.612-0.182c-0.054-0.012-0.127,0.057-0.19,0.087c0.054,0.043,0.101,0.097,0.158,0.127
		c0.146,0.076,0.296,0.142,0.444,0.212c-0.01,0.02-0.021,0.038-0.029,0.057c-0.067,0.024-0.137,0.049-0.205,0.074
		c0.112,0.273,0.188,0.283,0.396,0.078c0.221,0.094,0.431,0.241,0.653,0.264c0.351,0.035,0.566,0.238,0.816,0.476
		c-0.228-0.058-0.425-0.126-0.627-0.149c-0.076-0.009-0.166,0.084-0.25,0.131c0.063,0.062,0.119,0.137,0.192,0.182
		c0.077,0.049,0.173,0.068,0.26,0.102c-0.007,0.023-0.016,0.047-0.021,0.07c-0.08,0.012-0.226,0.01-0.229,0.035
		c-0.063,0.35-0.204,0.255-0.392,0.094c-0.047-0.042-0.159,0.004-0.233-0.02c-0.227-0.069-0.443-0.172-0.674-0.223
		c-0.134-0.029-0.308-0.023-0.419,0.043c-0.139,0.08-0.248,0.117-0.405,0.078c-0.072-0.02-0.164,0.038-0.247,0.061
		c0.053,0.064,0.093,0.15,0.158,0.189c0.152,0.092,0.319,0.159,0.5,0.246c-0.247,0.234-0.098,0.479-0.026,0.645
		c0.074,0.174,0.313,0.279,0.494,0.425c-0.035,0.032-0.085,0.077-0.135,0.122c-0.161,0.145-0.147,0.23,0.06,0.307
		c0.139,0.053,0.282,0.09,0.432,0.135c-0.171,0.117-0.425-0.14-0.515,0.161c-0.086-0.038-0.157-0.067-0.229-0.099
		c-0.011,0.012-0.021,0.023-0.031,0.035c0.097,0.16,0.192,0.32,0.29,0.479c-0.021,0.017-0.042,0.033-0.063,0.05
		c-0.102-0.111-0.195-0.228-0.305-0.332c-0.051-0.051-0.12-0.086-0.188-0.113c-0.112-0.045-0.229-0.084-0.348-0.113
		c-0.063-0.016-0.133-0.018-0.192-0.002c-0.016,0.004-0.033,0.104-0.015,0.137c0.152,0.268,0.343,0.508,0.485,0.788
		c0.105,0.207,0.433,0.308,0.67,0.437c0.137,0.072,0.293,0.104,0.439,0.156c-0.008,0.024-0.017,0.049-0.025,0.074
		c-0.087-0.018-0.174-0.039-0.262-0.052c-0.296-0.046-0.591-0.093-0.887-0.132c-0.254-0.034-0.508-0.063-0.764-0.088
		c-0.048-0.004-0.107,0.002-0.143,0.029c-0.02,0.016-0.013,0.108,0.01,0.123c0.103,0.063,0.21,0.146,0.322,0.16
		c0.234,0.029,0.391,0.124,0.396,0.303c-0.031-0.004-0.068,0.002-0.087-0.015c-0.135-0.128-0.234-0.108-0.364,0.03
		c-0.104,0.109-0.261,0.168-0.396,0.242c-0.024,0.015-0.092,0.006-0.103-0.012c-0.178-0.322-0.293-0.146-0.442,0.032
		c-0.092,0.108-0.242,0.162-0.354,0.255c-0.073,0.061-0.129,0.145-0.183,0.227c-0.05,0.076-0.083,0.232-0.126,0.233
		c-0.106,0.003-0.215-0.063-0.323-0.103c0.026-0.016,0.053-0.032,0.077-0.049c-0.009-0.109,0.01-0.301-0.032-0.315
		c-0.208-0.071-0.433-0.097-0.65-0.138c-0.015,0.027-0.03,0.055-0.046,0.08c0.184,0.269,0.366,0.535,0.581,0.85
		c-0.258-0.044-0.467-0.189-0.647,0.096c-0.184,0.291-0.223,0.266-0.084,0.62c-0.201-0.06-0.372-0.099-0.534-0.161
		c-0.118-0.046-0.248-0.086-0.288,0.055c-0.02,0.068,0.088,0.183,0.157,0.254c0.055,0.057,0.143,0.078,0.255,0.136
		c-0.309,0.075-0.729-0.12-0.796-0.371c-0.063-0.233-0.163-0.403-0.391-0.489c-0.003-0.002,0.002-0.027,0.007-0.064
		c0.091,0.021,0.177,0.045,0.265,0.06c0.279,0.046,0.559,0.103,0.84,0.123c0.207,0.015,0.516-0.229,0.513-0.397
		c-0.005-0.213-0.155-0.336-0.353-0.402c-0.268-0.094-0.532-0.189-0.801-0.281c-0.146-0.049-0.29-0.117-0.438-0.13
		c-0.207-0.017-0.412,0.006-0.581-0.159c-0.035-0.035-0.129-0.013-0.196-0.014c-0.064-0.002-0.13-0.001-0.201-0.001
		c0.016-0.095,0.026-0.165,0.041-0.246c-0.15-0.026-0.284-0.062-0.419-0.074c-0.252-0.022-0.512-0.071-0.758-0.036
		c-0.204,0.028-0.397,0.154-0.588,0.254c-0.152,0.078-0.291,0.188-0.457,0.025c-0.02-0.02-0.096-0.02-0.104-0.005
		c-0.116,0.226-0.529,0.146-0.51,0.53c-0.115-0.223-0.271-0.233-0.434-0.115c-0.138,0.102-0.258,0.225-0.386,0.337
		c0.016,0.017,0.03,0.032,0.047,0.05c0.031-0.018,0.063-0.046,0.096-0.053c0.061-0.012,0.123-0.01,0.185-0.014
		c-0.019,0.066-0.02,0.148-0.06,0.195c-0.068,0.08-0.166,0.137-0.246,0.207c-0.158,0.143-0.32,0.283-0.47,0.436
		c-0.327,0.334-0.65,0.664-1.145,0.744c-0.045,0.006-0.082,0.061-0.125,0.09c-0.062,0.039-0.12,0.082-0.187,0.111
		c-0.235,0.104-0.479,0.198-0.711,0.309c-0.063,0.029-0.128,0.097-0.154,0.162c-0.127,0.32-0.253,0.642-0.357,0.97
		c-0.115,0.364,0.077,0.683,0.454,0.719c0.153,0.015,0.324-0.062,0.473-0.13c0.212-0.1,0.409-0.229,0.629-0.354
		c0.028,0.076,0.05,0.113,0.06,0.156c0.063,0.311,0.109,0.625,0.193,0.932c0.046,0.17-0.005,0.24-0.149,0.297
		c-0.142,0.055-0.273,0.133-0.417,0.183c-0.056,0.021-0.126-0.008-0.151-0.011c0.085-0.167,0.158-0.286,0.209-0.415
		c0.031-0.084,0.032-0.181,0.045-0.272c0.009-0.07,0.016-0.142,0.021-0.211c-0.078,0.004-0.161-0.01-0.231,0.014
		c-0.104,0.037-0.204,0.094-0.303,0.148c-0.104,0.061-0.222,0.112-0.306,0.196c-0.288,0.291-0.158,0.667-0.167,1.008
		c-0.006,0.177-0.059,0.365-0.207,0.376c-0.238,0.016-0.485-0.007-0.714,0.049c-0.22,0.053-0.477,0.133-0.618,0.291
		c-0.266,0.295-0.534,0.551-0.932,0.627c-0.127,0.024-0.292,0.125-0.38-0.076c-0.085-0.194,0.086-0.231,0.191-0.307
		c0.02-0.014,0.038-0.027,0.056-0.041c0.218-0.195,0.192-0.367-0.068-0.496c-0.051-0.025-0.136-0.076-0.132-0.104
		c0.036-0.304-0.061-0.569-0.15-0.853c-0.064-0.203,0.046-0.461-0.218-0.604c0.188-0.153,0.347-0.272,0.492-0.405
		c0.051-0.046,0.074-0.123,0.109-0.186c-0.071-0.035-0.14-0.082-0.216-0.103c-0.074-0.021-0.157-0.013-0.256-0.019
		c0.171-0.148,0.322-0.266,0.453-0.402c0.052-0.053,0.058-0.148,0.083-0.227c-0.076,0.037-0.153,0.07-0.229,0.109
		c-0.068,0.035-0.142,0.118-0.199,0.108c-0.285-0.05-0.484,0.077-0.672,0.267c-0.056,0.057-0.145,0.077-0.219,0.115
		c-0.014-0.021-0.024-0.043-0.037-0.064c0.098-0.115,0.313-0.158,0.243-0.406c-0.087,0.037-0.165,0.063-0.235,0.101
		c-0.268,0.142-0.292,0.242-0.16,0.503c0.025,0.051-0.004,0.141-0.03,0.204c-0.039,0.091-0.099,0.171-0.148,0.257
		c0.012,0.004,0.021,0.01,0.032,0.014c-0.057,0.043-0.111,0.086-0.168,0.129c0.075,0.097,0.148,0.191,0.235,0.304
		c-0.051,0.097-0.18,0.239,0.082,0.292c0.21,0.043,0.321,0.336,0.171,0.499c-0.057,0.062-0.19,0.104-0.271,0.085
		c-0.26-0.064-0.313-0.045-0.287,0.214c0.016,0.181-0.05,0.259-0.221,0.274c-0.052,0.006-0.116,0.012-0.152,0.043
		c-0.054,0.045-0.104,0.109-0.12,0.174c-0.005,0.025,0.087,0.079,0.142,0.109c0.063,0.035,0.131,0.061,0.213,0.098
		c-0.251,0.146-0.466,0.264-0.67,0.396c-0.063,0.041-0.099,0.123-0.146,0.188c0.083,0.008,0.17,0.035,0.249,0.021
		c0.24-0.039,0.505,0.033,0.72-0.142c0.013-0.01,0.044,0.009,0.066,0.011c0.452,0.026,0.902,0.152,1.358,0.029
		c0.016-0.004,0.037,0.018,0.069,0.033c-0.084,0.191-0.169,0.357-0.416,0.371c-0.084,0.004-0.176,0.058-0.244,0.113
		c-0.2,0.164-0.239,0.162-0.43-0.035c-0.052-0.051-0.153-0.109-0.206-0.09c-0.059,0.02-0.09,0.123-0.127,0.192
		c-0.011,0.019-0.006,0.046-0.004,0.069c0.017,0.203-0.104,0.234-0.264,0.203c-0.065-0.014-0.127-0.064-0.192-0.068
		c-0.187-0.014-0.378-0.036-0.558-0.001c-0.068,0.015-0.145,0.169-0.151,0.265c-0.006,0.066,0.09,0.158,0.16,0.209
		c0.118,0.082,0.315,0.106,0.368,0.213c0.121,0.237,0.275,0.53,0.229,0.764c-0.073,0.38-0.286,0.734-0.465,1.087
		c-0.081,0.157-0.239,0.207-0.418,0.116c-0.061-0.029-0.134-0.037-0.2-0.051c-0.445-0.099-0.894-0.195-1.339-0.295
		c-0.037-0.008-0.076-0.021-0.105-0.043c-0.132-0.1-0.26-0.146-0.425-0.059c-0.131,0.068-0.285,0.091-0.418,0.158
		c-0.045,0.023-0.068,0.117-0.074,0.183c-0.051,0.466-0.16,0.913-0.425,1.306c-0.114,0.172-0.271,0.313-0.387,0.483
		c-0.063,0.093-0.14,0.249-0.103,0.324c0.133,0.271,0.033,0.483-0.102,0.7c-0.08,0.127-0.072,0.224,0.09,0.252
		c0.164,0.029,0.334,0.029,0.495,0.066c0.091,0.02,0.23,0.079,0.242,0.141c0.055,0.295,0.217,0.613-0.104,0.869
		c-0.063,0.049-0.097,0.137-0.146,0.205c-0.184,0.254-0.392,0.453-0.716,0.545c-0.257,0.071-0.503,0.215-0.724,0.369
		c-0.145,0.1-0.249,0.266-0.347,0.418c-0.129,0.205-0.313,0.42-0.327,0.641c-0.02,0.314-0.175,0.498-0.378,0.671
		c-0.322,0.274-0.661,0.53-1.121,0.513c-0.197-0.007-0.321,0.107-0.435,0.258c-0.113,0.152-0.219,0.346-0.375,0.422
		c-0.271,0.133-0.445,0.332-0.557,0.588c-0.125,0.287-0.318,0.496-0.58,0.66c-0.055,0.033-0.087,0.102-0.127,0.155
		c-0.201,0.269-0.388,0.55-0.604,0.804c-0.226,0.262-0.289,0.475-0.147,0.785c0.104,0.23,0.104,0.44-0.041,0.654
		c-0.04,0.059-0.064,0.146-0.056,0.216c0.073,0.479,0.036,0.933-0.253,1.345c-0.024,0.035-0.025,0.088-0.045,0.129
		c-0.128,0.281-0.148,0.627-0.462,0.797c-0.14,0.076-0.108,0.15-0.074,0.279c0.061,0.23,0.145,0.492,0.087,0.707
		c-0.139,0.518-0.101,0.721,0.356,1.09c0.021,0.018,0.049,0.049,0.047,0.072c-0.048,0.381,0.235,0.648,0.422,0.881
		c0.393,0.489,0.341,1.08,0.534,1.608c0.026,0.069,0.065,0.142,0.118,0.192c0.109,0.105,0.248,0.186,0.35,0.299
		c0.349,0.388,0.686,0.787,1.027,1.181c0.111,0.127,0.229,0.249,0.344,0.373c0.322,0.351,0.672,0.396,1.139,0.243
		c0.37-0.12,0.811-0.104,1.204-0.049c0.305,0.041,0.586,0.242,0.88,0.367c0.067,0.029,0.152,0.059,0.219,0.043
		c0.235-0.057,0.468-0.135,0.702-0.201c0.394-0.109,0.78-0.266,1.181-0.311c0.388-0.045,0.789,0.02,1.183,0.051
		c0.445,0.035,0.646,0.351,0.743,0.732c0.126,0.504,0.476,0.691,0.977,0.538c0.228-0.069,0.483-0.052,0.729-0.065
		c0.039-0.002,0.097,0.026,0.121,0.06c0.132,0.172,0.315,0.3,0.448,0.456c0.272,0.32,0.182,0.723,0.051,1.089
		c-0.055,0.155-0.239,0.274-0.081,0.466c0.015,0.018-0.013,0.071-0.022,0.107c-0.029,0.115-0.072,0.23-0.089,0.35
		c-0.019,0.135-0.031,0.249-0.188,0.311c-0.052,0.021-0.11,0.17-0.086,0.217c0.176,0.32,0.344,0.654,0.572,0.938
		c0.293,0.362,0.656,0.668,0.956,1.027c0.157,0.188,0.249,0.432,0.354,0.656c0.071,0.152,0.102,0.32,0.174,0.471
		c0.156,0.322,0.338,0.634,0.486,0.96c0.034,0.075-0.022,0.192-0.041,0.289c-0.017,0.089-0.078,0.194-0.049,0.262
		c0.104,0.237,0.234,0.464,0.363,0.69c0.147,0.26,0.034,0.74-0.171,0.945c-0.18,0.178-0.336,0.397-0.438,0.627
		c-0.134,0.306-0.207,0.639-0.302,0.961c-0.013,0.041-0.008,0.09-0.004,0.136c0.013,0.159,0.011,0.323,0.047,0.478
		c0.048,0.202,0.096,0.416,0.197,0.592c0.125,0.217,0.312,0.398,0.462,0.602c0.271,0.361,0.533,0.73,0.805,1.091
		c0.104,0.138,0.157,0.274,0.171,0.458c0.019,0.238,0.118,0.471,0.187,0.705c0.029,0.102,0.072,0.2,0.102,0.303
		c0.103,0.363,0.212,0.731,0.502,0.99c0.379,0.337,0.772,0.652,0.983,1.135c0.028,0.065,0.106,0.109,0.156,0.168
		c0.095,0.11,0.197,0.217,0.271,0.342c0.028,0.047,0.013,0.181-0.021,0.199c-0.152,0.078-0.104,0.166-0.035,0.26
		c0.148,0.201,0.31,0.381,0.555,0.483c0.239,0.101,0.453,0.255,0.728,0.073c0.085-0.055,0.226-0.023,0.34-0.032
		c0.1-0.007,0.215,0.017,0.295-0.026c0.337-0.178,0.7-0.131,1.041-0.092c0.516,0.059,1.001-0.066,1.457-0.226
		c0.735-0.259,1.371-0.714,1.924-1.274c0.183-0.187,0.361-0.394,0.582-0.519c0.396-0.224,0.468-0.626,0.639-0.978
		c0.017-0.033,0.004-0.1-0.021-0.133c-0.137-0.183-0.016-0.27,0.129-0.328c0.283-0.117,0.573-0.218,0.857-0.33
		c0.213-0.084,0.417-0.193,0.467-0.437c0.102-0.502,0.04-0.985-0.221-1.437c-0.088-0.152-0.055-0.25,0.109-0.354
		c0.328-0.208,0.658-0.429,0.939-0.694c0.281-0.265,0.581-0.498,0.941-0.602c0.52-0.15,0.884-0.477,1.199-0.883
		c0.158-0.202,0.23-0.412,0.21-0.697c-0.04-0.525-0.007-1.057,0.021-1.584c0.011-0.186-0.015-0.323-0.19-0.395
		c-0.162-0.066-0.235-0.18-0.249-0.352c-0.007-0.082-0.062-0.16-0.068-0.242c-0.024-0.254-0.123-0.546-0.033-0.756
		c0.117-0.275,0.002-0.376-0.162-0.512C340.082,186.809,340.003,186.702,340.154,186.564 M299.291,167.833
		c-0.028,0.002-0.06,0.004-0.088,0.006c-0.013,0.101-0.02,0.202-0.034,0.302c-0.088,0.553-0.201,1.1-0.259,1.654
		c-0.076,0.755-0.133,1.514-0.158,2.271c-0.065,1.774-0.077,3.549,0.147,5.314c0.103,0.789,0.239,1.574,0.379,2.357
		c0.104,0.582,0.22,1.162,0.363,1.732c0.155,0.617,0.341,1.227,0.529,1.834c0.191,0.62,0.376,1.248,0.615,1.852
		c0.346,0.869,0.694,1.74,1.117,2.574c0.641,1.258,1.342,2.484,2.022,3.722c0.09,0.163,0.219,0.303,0.33,0.454l0.079-0.051
		c-0.145-0.301-0.281-0.604-0.43-0.903c-0.183-0.371-0.382-0.733-0.551-1.108c-0.04-0.091-0.029-0.25,0.027-0.326
		c0.098-0.135,0.214-0.019,0.318,0.045c0.168,0.1,0.236,0.066,0.263-0.125c0.01-0.074,0.008-0.152-0.003-0.228
		c-0.036-0.239-0.075-0.479-0.119-0.717c-0.025-0.136-0.063-0.267-0.095-0.401c-0.026-0.111-0.061-0.22-0.082-0.332
		c-0.076-0.402-0.137-0.81-0.229-1.209c-0.083-0.357-0.207-0.705-0.301-1.063c-0.02-0.071,0.008-0.16,0.028-0.238
		c0.044-0.164,0.099-0.324,0.144-0.486c0.037-0.133,0.053-0.271,0.104-0.398c0.063-0.155,0.172-0.293,0.22-0.451
		c0.07-0.232,0.167-0.48,0.143-0.712c-0.047-0.447-0.154-0.89-0.27-1.326c-0.044-0.166-0.164-0.319-0.273-0.459
		c-0.086-0.11-0.233-0.177-0.309-0.293c-0.148-0.231-0.259-0.487-0.398-0.726c-0.174-0.297-0.317-0.631-0.557-0.864
		c-0.216-0.212-0.493-0.358-0.625-0.654c-0.012-0.024-0.044-0.054-0.068-0.055c-0.18-0.009-0.192-0.122-0.202-0.269
		c-0.006-0.111-0.054-0.225-0.102-0.328c-0.13-0.277-0.239-0.574-0.417-0.818c-0.175-0.242-0.319-0.487-0.406-0.77
		c-0.004-0.015-0.021-0.024-0.022-0.039c-0.057-0.225-0.182-0.463-0.143-0.672c0.038-0.211,0.063-0.391-0.01-0.595
		c-0.042-0.119-0.031-0.257-0.042-0.388c-0.054-0.617-0.091-1.237-0.169-1.854c-0.033-0.261-0.104-0.543-0.243-0.761
		c-0.201-0.313-0.229-0.642-0.243-0.985c-0.019-0.496-0.035-0.994-0.047-1.492c-0.002-0.076,0.027-0.15,0.036-0.227
		c0.057-0.451,0.202-0.898,0.099-1.363C299.332,168.124,299.315,167.979,299.291,167.833 M320.319,145.211
		c-0.095,0.023-0.18,0.072-0.255,0.059c-0.357-0.061-0.653,0.135-0.946,0.264c-0.343,0.15-0.63,0.423-0.954,0.619
		c-0.657,0.396-1.197,0.929-1.731,1.468c-0.047,0.047-0.104,0.157-0.082,0.185c0.115,0.149,0.017,0.252-0.041,0.377
		c-0.031,0.069-0.007,0.166-0.008,0.248c0.085-0.002,0.177,0.014,0.253-0.013c0.128-0.045,0.248-0.116,0.369-0.181
		c0.694-0.362,1.387-0.732,2.087-1.084c0.156-0.08,0.383-0.18,0.512-0.123c0.415,0.183,0.78,0.039,1.156-0.079
		c0.238-0.075,0.472-0.171,0.71-0.255c0.033-0.01,0.074-0.004,0.109,0.002c0.229,0.041,0.462,0.123,0.688,0.113
		c0.334-0.013,0.665-0.09,0.996-0.143c0.108-0.018,0.215-0.047,0.323-0.07c-0.067-0.092-0.135-0.184-0.199-0.277
		c-0.007-0.01-0.005-0.027-0.01-0.063c0.078-0.051,0.162-0.105,0.208-0.134c0.039,0.124,0.042,0.267,0.112,0.326
		c0.134,0.112,0.257,0.002,0.358-0.099c0.032-0.033,0.054-0.076,0.089-0.105c0.227-0.189,0.454-0.379,0.686-0.563
		c0.03-0.022,0.091-0.008,0.134-0.019c0.138-0.035,0.274-0.073,0.412-0.112c-0.009-0.027-0.017-0.056-0.023-0.082
		c0.262,0.137,0.363-0.07,0.479-0.218c0.088,0.044,0.157,0.08,0.231,0.118c0.092-0.21,0.172-0.393,0.252-0.574
		c0.309,0.122,0.428,0.076,0.596-0.205c0.041-0.07,0.093-0.164,0.156-0.184c0.541-0.16,1.087-0.309,1.634-0.454
		c0.104-0.026,0.234-0.015,0.203-0.177c-0.023-0.133-0.117-0.155-0.245-0.127c-0.078,0.016-0.164-0.012-0.247-0.02l0.009-0.076
		c0.049-0.008,0.098-0.021,0.146-0.023c0.17-0.008,0.187-0.129,0.201-0.258c0.017-0.131-0.011-0.235-0.159-0.256
		c-0.299-0.041-0.581-0.194-0.902-0.104c-0.149,0.043-0.302-0.011-0.363-0.203c0.062-0.032,0.116-0.058,0.169-0.088
		c0.059-0.035,0.115-0.075,0.175-0.11c0.185-0.113,0.195-0.221,0.018-0.346c-0.165-0.117-0.351-0.207-0.517-0.324
		c-0.075-0.052-0.161-0.134-0.173-0.213c-0.008-0.052,0.104-0.126,0.167-0.186c0.055-0.051,0.135-0.084,0.174-0.143
		c0.031-0.05,0.031-0.131,0.016-0.191c-0.006-0.018-0.104-0.018-0.157-0.018c-0.099,0-0.226,0.049-0.286,0.004
		c-0.214-0.152-0.406-0.066-0.612,0.002c-0.218,0.069-0.444,0.186-0.662,0.174c-0.415-0.021-0.796,0.094-1.187,0.182
		c-0.262,0.059-0.524,0.113-0.784,0.18c-0.492,0.123-0.982,0.252-1.475,0.383c-0.03,0.008-0.056,0.041-0.098,0.071
		c0.069,0.06,0.122,0.104,0.22,0.188c-0.131,0-0.218,0.025-0.274-0.004c-0.294-0.15-0.558,0.029-0.813,0.093
		c-0.413,0.103-0.806,0.294-1.204,0.452c-0.69,0.272-1.38,0.549-2.069,0.824c-0.013,0.006-0.018,0.024-0.06,0.084
		c0.057,0.02,0.121,0.043,0.196,0.067c-0.188,0.149-0.333,0.25-0.458,0.372c-0.039,0.039-0.058,0.16-0.028,0.197
		c0.142,0.175,0.066,0.299-0.079,0.398c-0.195,0.133-0.416,0.233-0.603,0.379c-0.247,0.191-0.477,0.408-0.703,0.625
		c-0.037,0.033-0.023,0.121-0.035,0.182c0.064-0.002,0.149,0.021,0.189-0.012c0.127-0.105,0.255-0.164,0.421-0.111
		c0.022,0.007,0.06-0.014,0.085-0.027c0.292-0.164,0.582-0.328,0.879-0.496c0.041,0.029,0.1,0.102,0.135,0.094
		c0.312-0.088,0.646-0.142,0.919-0.301c0.332-0.195,0.604-0.488,0.913-0.727c0.073-0.057,0.187-0.061,0.275-0.1
		c0.296-0.129,0.6-0.246,0.882-0.4c0.263-0.143,0.491-0.348,0.755-0.486c0.428-0.225,0.963-0.244,1.273-0.686
		c0.05-0.071,0.111-0.135,0.168-0.202c-0.097-0.015-0.192-0.029-0.287-0.046c-0.089-0.016-0.177-0.037-0.266-0.057
		c0.008-0.033,0.016-0.068,0.021-0.102c0.282,0.033,0.563,0.066,0.901,0.107c-0.101,0.092-0.16,0.139-0.207,0.195
		c-0.03,0.037-0.06,0.092-0.055,0.135c0.002,0.025,0.065,0.058,0.106,0.066c0.192,0.041,0.598-0.152,0.728-0.309
		c0.091-0.108,0.226-0.182,0.339-0.271l0.04,0.057c-0.097,0.103-0.191,0.203-0.289,0.308c0.253,0.243,0.539-0.179,0.771,0.116
		c-0.179,0.07-0.366,0.102-0.547,0.152c-0.183,0.051-0.36,0.118-0.536,0.191c-0.027,0.012-0.053,0.104-0.036,0.136
		c0.08,0.164-0.021,0.251-0.133,0.323c-0.121,0.078-0.251,0.148-0.385,0.203c-0.518,0.211-1.039,0.412-1.555,0.627
		c-0.104,0.043-0.193,0.127-0.285,0.199c-0.068,0.055-0.169,0.185-0.188,0.172c-0.232-0.143-0.402,0.082-0.606,0.1
		C320.295,144.816,320.242,144.953,320.319,145.211 M306.05,152.938c0.014,0.004,0.03,0.014,0.041,0.01
		c0.027-0.012,0.055-0.027,0.078-0.047c0.313-0.275,0.569-0.627,1.005-0.744c0.055-0.014,0.093-0.096,0.135-0.149
		c0.266-0.346,0.594-0.59,1.045-0.626c0.027-0.002,0.058,0.033,0.114,0.068c-0.302,0.162-0.672,0.219-0.734,0.689
		c0.129-0.047,0.208-0.076,0.287-0.104c0.063-0.021,0.134-0.07,0.189-0.058c0.438,0.103,0.736-0.111,0.984-0.431
		c0.022-0.028-0.013-0.149-0.052-0.169c-0.181-0.091-0.151-0.191-0.061-0.333c0.238-0.364,0.587-0.599,0.888-0.771
		c0.118,0.055,0.194,0.092,0.272,0.127c0.062-0.157,0.123-0.314,0.18-0.475c0.003-0.009-0.069-0.064-0.081-0.056
		c-0.19,0.116-0.271-0.073-0.412-0.117c0.206-0.069,0.387-0.13,0.598-0.2c0.011,0.155,0.023,0.29,0.025,0.426
		c0.002,0.231,0.056,0.274,0.279,0.196c0.088-0.03,0.166-0.081,0.255-0.108c0.044-0.014,0.099,0.002,0.147,0.004l0.014,0.063
		c-0.168,0.099-0.339,0.194-0.504,0.3c-0.354,0.225-0.703,0.457-1.058,0.682c-0.146,0.093-0.168,0.197-0.078,0.347
		c0.155,0.256,0.145,0.278-0.13,0.386c-0.017,0.006-0.025,0.034-0.028,0.037c0.039,0.109,0.084,0.203,0.108,0.303
		c0.019,0.067,0.011,0.142,0.015,0.213c0.071-0.029,0.164-0.039,0.212-0.092c0.157-0.174,0.296-0.367,0.448-0.545
		c0.145-0.166,0.299-0.32,0.442-0.486c0.025-0.029,0.049-0.1,0.032-0.125c-0.191-0.293,0.108-0.403,0.233-0.522
		c0.274-0.26,0.621-0.44,0.901-0.696c0.35-0.32,0.664-0.681,0.991-1.025c0.024-0.026,0.028-0.071,0.049-0.104
		c0.111-0.188,0.201-0.396,0.346-0.557c0.154-0.174,0.358-0.303,0.542-0.45c0.425-0.338,0.854-0.671,1.275-1.015
		c0.09-0.074,0.146-0.188,0.22-0.283c-0.155-0.116-0.247,0.036-0.368,0.08c-0.145,0.053-0.25,0.23-0.471,0.148
		c0.538-0.379,1.049-0.746,1.569-1.1c0.302-0.204,0.583-0.424,0.762-0.748c0.029-0.055,0.008-0.141,0.009-0.211
		c-0.058,0.021-0.136,0.025-0.17,0.066c-0.256,0.31-0.619,0.473-0.969,0.6c-0.711,0.26-1.272,0.76-1.933,1.094
		c-0.162,0.084-0.341,0.139-0.512,0.207c-0.012-0.025-0.022-0.05-0.035-0.074c0.49-0.272,0.958-0.574,1.377-1.004
		C313.58,145.48,306.323,151.841,306.05,152.938 M345.776,190.148c0.065-0.334-0.084-0.588-0.228-0.844
		c-0.11-0.195-0.231-0.199-0.354-0.007c-0.039,0.063-0.062,0.142-0.071,0.216c-0.024,0.17-0.097,0.297-0.259,0.379
		c-0.104,0.053-0.254,0.139-0.266,0.226c-0.05,0.358-0.34,0.521-0.563,0.726c-0.286,0.262-0.646,0.411-1.017,0.532
		c-0.213,0.069-0.454,0.122-0.461,0.425c-0.001,0.033-0.035,0.069-0.063,0.096c-0.228,0.225-0.235,0.494-0.135,0.768
		c0.128,0.348,0.063,0.645-0.167,0.921c-0.083,0.101-0.165,0.201-0.252,0.298c-0.218,0.241-0.349,0.5-0.225,0.838
		c0.029,0.08,0.029,0.184,0.01,0.271c-0.122,0.524,0.397,0.84,0.818,0.719c0.518-0.149,0.98-0.39,1.229-0.942
		c0.297-0.662,0.665-1.293,0.982-1.949c0.178-0.368,0.313-0.758,0.47-1.137c0.018-0.041,0.053-0.074,0.072-0.113
		c0.061-0.133,0.116-0.27,0.18-0.401c0.026-0.054,0.052-0.131,0.1-0.149c0.208-0.088,0.284-0.221,0.249-0.455
		C345.806,190.418,345.791,190.273,345.776,190.148 M321.385,148.365c-0.1,0.035-0.165,0.05-0.221,0.08
		c-0.104,0.06-0.126,0.131-0.013,0.209c0.111,0.076,0.212,0.171,0.331,0.23c0.103,0.051,0.225,0.098,0.332,0.088
		c0.257-0.023,0.517-0.061,0.765-0.129c0.225-0.063,0.455-0.145,0.643-0.275c0.084-0.059,0.057-0.264,0.097-0.398
		c0.054-0.179-0.035-0.219-0.185-0.218c-0.323,0.001-0.646,0-0.93,0c-0.062-0.134-0.112-0.3-0.141-0.296
		c-0.206,0.031-0.408,0.094-0.656,0.16c0.109,0.117,0.162,0.175,0.229,0.246c-0.158,0.01-0.293,0.02-0.479,0.031
		C321.256,148.211,321.304,148.268,321.385,148.365 M320.724,153.668c-0.142,0.096-0.251,0.178-0.368,0.248
		c-0.152,0.094-0.265,0.212-0.179,0.395c0.086,0.18,0.255,0.164,0.421,0.117c0.123-0.037,0.247-0.098,0.37-0.099
		c0.448-0.005,0.739-0.226,0.874-0.636c0.044-0.137,0.089-0.221,0.222-0.283c0.212-0.102,0.286-0.424,0.136-0.541
		c-0.241-0.188-0.677-0.143-0.814,0.098c-0.083,0.145-0.179,0.162-0.324,0.125c-0.072-0.018-0.207-0.014-0.229,0.025
		C320.747,153.281,320.541,153.425,320.724,153.668 M337.299,147.02l0.01-0.027c0.069,0,0.141,0.012,0.206-0.004
		c0.058-0.016,0.107-0.063,0.161-0.096c-0.037-0.043-0.067-0.1-0.114-0.125c-0.106-0.059-0.234-0.084-0.332-0.156
		c-0.138-0.1-0.341-0.213-0.365-0.348c-0.073-0.41-0.267-0.859,0.178-1.209c0.099-0.078,0.154-0.214-0.007-0.302
		c-0.133-0.071-0.265-0.122-0.371,0.065c-0.056,0.098-0.155,0.179-0.252,0.242c-0.149,0.101-0.316,0.433-0.283,0.563
		c0.076,0.314,0.135,0.634,0.214,0.947c0.018,0.072,0.075,0.166,0.136,0.189C336.747,146.857,337.024,146.936,337.299,147.02
		 M358.573,174.504c-0.02,0.004-0.041,0.008-0.063,0.012c0.076,0.412,0.143,0.825,0.229,1.234c0.021,0.083,0.101,0.171,0.176,0.217
		c0.039,0.023,0.158-0.018,0.193-0.066c0.164-0.213,0.324-0.44,0.262-0.732c-0.039-0.184-0.084-0.371-0.162-0.54
		c-0.104-0.229-0.231-0.448-0.37-0.659c-0.041-0.061-0.152-0.074-0.23-0.107c-0.018,0.068-0.049,0.138-0.049,0.207
		C358.556,174.213,358.567,174.359,358.573,174.504 M331.111,144.993c0.132,0.118,0.216,0.237,0.329,0.284
		c0.068,0.029,0.183-0.053,0.275-0.086c-0.044-0.069-0.078-0.15-0.137-0.205c-0.081-0.077-0.182-0.135-0.272-0.199l0.03-0.053
		c0.05,0.006,0.102,0.022,0.148,0.017c0.138-0.019,0.281-0.026,0.406-0.078c0.122-0.051,0.113-0.207,0.008-0.228
		c-0.257-0.053-0.549-0.129-0.779-0.053c-0.204,0.067-0.389,0.114-0.6,0.105c-0.089-0.003-0.243,0.02-0.256,0.064
		c-0.035,0.119-0.029,0.26-0.003,0.385c0.022,0.107,0.083,0.215,0.148,0.307c0.067,0.094,0.155,0.176,0.251,0.241
		c0.015,0.009,0.117-0.101,0.171-0.163C330.932,145.217,331.024,145.1,331.111,144.993 M336.305,143.24
		c0.208,0.076,0.389,0.175,0.579,0.199c0.28,0.039,0.568,0.023,0.854,0.031c0.104,0.002,0.208,0.004,0.313,0
		c0.085-0.004,0.169-0.015,0.254-0.023c-0.042-0.088-0.064-0.232-0.129-0.256c-0.13-0.047-0.283-0.027-0.428-0.039
		c-0.34-0.023-0.683-0.024-1.015-0.086C336.528,143.027,336.394,143.038,336.305,143.24 M339.313,142.424
		c0.115-0.061,0.18-0.095,0.244-0.128c-0.023-0.043-0.037-0.104-0.073-0.126c-0.271-0.152-0.543-0.305-0.821-0.441
		c-0.05-0.023-0.134,0.027-0.2,0.043c0.03,0.053,0.057,0.112,0.096,0.16c0.043,0.051,0.092,0.104,0.148,0.137
		C338.91,142.193,339.117,142.313,339.313,142.424 M334.661,144.298c0.158-0.142,0.298-0.252,0.42-0.378
		c0.026-0.027,0.003-0.105,0.001-0.16c-0.049,0.006-0.113-0.007-0.145,0.02c-0.168,0.152-0.34,0.186-0.541,0.063
		c-0.04-0.023-0.148-0.014-0.159,0.01c-0.021,0.053-0.03,0.158,0,0.184C334.357,144.128,334.494,144.197,334.661,144.298
		 M361.653,170.992c0.226-0.217,0.113-0.955-0.146-1.153C361.36,170.266,361.731,170.6,361.653,170.992 M313.579,165.952
		c0.171,0.001,0.306-0.034,0.365-0.224c0.021-0.065,0.106-0.107,0.149-0.168c0.035-0.049,0.051-0.111,0.075-0.168
		c-0.045-0.019-0.093-0.058-0.134-0.052C313.882,165.363,313.586,165.76,313.579,165.952 M334.286,144.3
		c-0.067-0.079-0.114-0.188-0.187-0.208c-0.121-0.029-0.257-0.012-0.385,0.006c-0.022,0.002-0.063,0.127-0.045,0.143
		c0.066,0.061,0.152,0.139,0.232,0.14C334.031,144.383,334.162,144.33,334.286,144.3 M347.865,175.279
		c-0.159,0.015-0.269,0.016-0.371,0.037c-0.052,0.012-0.124,0.061-0.13,0.1c-0.005,0.043,0.059,0.134,0.09,0.134
		c0.153,0,0.31-0.017,0.46-0.046c0.026-0.006,0.061-0.109,0.046-0.154C347.945,175.309,347.875,175.286,347.865,175.279
		 M336.607,147.361c-0.098,0.109-0.157,0.174-0.216,0.238c0.087,0.073,0.165,0.178,0.264,0.205c0.051,0.014,0.141-0.115,0.21-0.179
		C336.79,147.549,336.715,147.473,336.607,147.361 M312.736,165.793c0.106-0.126,0.191-0.229,0.277-0.33
		c-0.044-0.031-0.109-0.1-0.127-0.089c-0.124,0.071-0.238,0.161-0.355,0.245C312.584,165.664,312.636,165.708,312.736,165.793
		 M323.207,181.466c-0.104-0.071-0.192-0.149-0.204-0.139c-0.084,0.073-0.16,0.159-0.218,0.254c-0.011,0.017,0.111,0.14,0.119,0.134
		C323,181.652,323.082,181.575,323.207,181.466 M346.863,202.253c0.11-0.106,0.203-0.198,0.296-0.289
		c-0.046-0.039-0.123-0.12-0.135-0.112c-0.103,0.08-0.195,0.174-0.291,0.262C346.765,202.148,346.798,202.184,346.863,202.253
		 M308.198,171.068c-0.053-0.027-0.1-0.041-0.131-0.072c-0.062-0.061-0.109-0.133-0.171-0.193c-0.044-0.043-0.095-0.082-0.149-0.109
		c-0.01-0.004-0.079,0.066-0.074,0.092c0.012,0.061,0.043,0.124,0.085,0.169c0.063,0.069,0.14,0.126,0.215,0.181
		c0.033,0.025,0.078,0.047,0.117,0.047C308.112,171.182,308.135,171.135,308.198,171.068 M347.722,193.223
		c0.084-0.101,0.176-0.17,0.166-0.211c-0.021-0.072-0.103-0.131-0.157-0.195c-0.056,0.062-0.14,0.115-0.158,0.185
		C347.562,193.046,347.647,193.117,347.722,193.223 M300.4,163.508c-0.095,0.129-0.17,0.211-0.219,0.307
		c-0.015,0.025,0.047,0.09,0.073,0.138c0.074-0.087,0.155-0.171,0.22-0.265C300.488,163.667,300.442,163.605,300.4,163.508
		 M340.565,185.941c-0.081,0.121-0.151,0.186-0.164,0.26c-0.008,0.044,0.075,0.104,0.118,0.156c0.054-0.064,0.126-0.123,0.156-0.198
		C340.69,186.124,340.626,186.057,340.565,185.941 M313.281,165.855c-0.076-0.084-0.123-0.133-0.168-0.184
		c-0.059,0.059-0.143,0.109-0.165,0.18c-0.012,0.037,0.081,0.146,0.138,0.153C313.135,166.012,313.197,165.924,313.281,165.855
		 M308.207,172.271c0.07-0.088,0.112-0.14,0.153-0.19c-0.06-0.044-0.118-0.115-0.183-0.124c-0.05-0.006-0.11,0.066-0.166,0.105
		C308.068,172.121,308.123,172.182,308.207,172.271 M311.69,159.038c0-0.029,0.001-0.058,0.001-0.086
		c-0.14-0.021-0.278-0.048-0.419-0.058c-0.035-0.002-0.074,0.055-0.11,0.086c0.03,0.029,0.063,0.084,0.094,0.084
		C311.4,159.063,311.545,159.047,311.69,159.038 M317.119,144.257c-0.082,0.065-0.136,0.108-0.188,0.149
		c0.069,0.047,0.133,0.117,0.206,0.13c0.048,0.008,0.108-0.069,0.165-0.108C317.246,144.376,317.192,144.326,317.119,144.257
		 M363.271,176.988c0.057,0.078,0.096,0.135,0.135,0.189c0.041-0.06,0.111-0.119,0.115-0.181c0.004-0.056-0.066-0.115-0.104-0.173
		C363.371,176.874,363.328,176.923,363.271,176.988 M348.718,192.645c0.072-0.106,0.137-0.164,0.146-0.23
		c0.008-0.042-0.065-0.098-0.104-0.145c-0.059,0.058-0.131,0.107-0.167,0.178C348.581,192.473,348.652,192.542,348.718,192.645
		 M342.559,189.329c-0.097-0.072-0.15-0.11-0.203-0.151c-0.044,0.063-0.107,0.121-0.122,0.19c-0.007,0.034,0.09,0.13,0.119,0.122
		C342.416,189.473,342.467,189.404,342.559,189.329 M313.672,163.152c-0.118-0.08-0.187-0.133-0.262-0.168
		c-0.013-0.006-0.099,0.102-0.092,0.111c0.046,0.059,0.104,0.118,0.168,0.151C313.514,163.26,313.573,163.206,313.672,163.152
		 M324.637,151.111c0.067-0.1,0.122-0.152,0.137-0.213c0.007-0.03-0.079-0.117-0.091-0.11c-0.062,0.028-0.132,0.071-0.156,0.127
		C324.512,150.947,324.579,151.016,324.637,151.111 M321.966,183.204c-0.083-0.067-0.137-0.142-0.175-0.134
		c-0.058,0.01-0.121,0.07-0.145,0.125c-0.01,0.027,0.069,0.125,0.109,0.127C321.813,183.32,321.87,183.262,321.966,183.204
		 M312.364,165.007c-0.051,0.108-0.099,0.165-0.094,0.216c0.004,0.045,0.07,0.082,0.109,0.123c0.04-0.047,0.108-0.09,0.112-0.139
		C312.497,165.161,312.433,165.107,312.364,165.007 M341.356,173.648c-0.058,0.078-0.127,0.139-0.116,0.162
		c0.028,0.057,0.092,0.096,0.143,0.143c0.036-0.04,0.104-0.085,0.101-0.12C341.475,173.779,341.416,173.732,341.356,173.648
		 M323.906,149.954c-0.069-0.046-0.124-0.093-0.133-0.084c-0.061,0.049-0.111,0.11-0.166,0.168c0.031,0.024,0.078,0.079,0.091,0.071
		C323.763,150.072,323.82,150.021,323.906,149.954 M362.992,175.465c0.056-0.085,0.115-0.143,0.105-0.169
		c-0.021-0.05-0.08-0.092-0.133-0.114c-0.015-0.008-0.095,0.066-0.09,0.094C362.884,175.33,362.933,175.375,362.992,175.465
		 M362.294,173.068c-0.037,0.023-0.072,0.047-0.109,0.072c0.057,0.072,0.113,0.146,0.168,0.221l0.092-0.066
		C362.394,173.219,362.343,173.145,362.294,173.068"/>
	<rect x="-204.613" y="-88.558" fill="none" width="850.392" height="595.277"/>
	<path fill="#3A4A9F" d="M327.402,158.2c0,0.104-0.019,0.187,0.006,0.252c0.025,0.065,0.1,0.169,0.143,0.163
		c0.25-0.028,0.314,0.158,0.394,0.318c0.156,0.319,0.458,0.451,0.735,0.631c0.333,0.219,0.638,0.481,0.942,0.738
		c0.036,0.03,0.024,0.151-0.002,0.217c-0.145,0.365,0.08,0.66,0.174,0.98c0.011,0.033,0.07,0.053,0.109,0.077
		c0.239,0.153,0.257,0.218,0.123,0.469c-0.097,0.181,0.037,0.458,0.241,0.479c0.138,0.017,0.219,0.07,0.201,0.219
		c-0.019,0.143,0.055,0.197,0.182,0.244c0.198,0.074,0.428,0.127,0.449,0.406c0.164-0.101,0.177-0.17,0.125-0.617
		c0.141-0.063,0.263-0.149,0.119-0.35c0.161,0.069,0.31,0.161,0.415-0.023c0.141,0.078,0.268,0.148,0.395,0.217
		c0.019-0.021,0.037-0.042,0.055-0.063c-0.075-0.097-0.145-0.203-0.232-0.287c-0.213-0.201-0.218-0.195-0.101-0.387
		c-0.132-0.025-0.281-0.037-0.418-0.09c-0.061-0.025-0.089-0.132-0.132-0.201c-0.044-0.07-0.091-0.139-0.131-0.211
		c-0.048-0.085-0.091-0.173-0.137-0.26c0.023-0.02,0.05-0.039,0.076-0.059c0.063,0.063,0.118,0.137,0.192,0.183
		c0.067,0.041,0.172,0.094,0.228,0.069c0.086-0.041,0.229-0.088,0.152-0.256c-0.019-0.043,0.027-0.164,0.049-0.164
		c0.271-0.017,0.563-0.186,0.807,0.064c0.043,0.044,0.066,0.139,0.055,0.199c-0.032,0.148-0.102,0.289-0.138,0.438
		c-0.04,0.168,0.048,0.236,0.214,0.244c0.063,0.004,0.124,0.055,0.186,0.086c-0.062,0.02-0.125,0.039-0.185,0.063
		c-0.079,0.032-0.213,0.056-0.225,0.106c-0.034,0.146,0.087,0.164,0.204,0.17c0.1,0.004,0.238-0.033,0.199,0.158
		c-0.004,0.018,0.068,0.045,0.092,0.077c0.058,0.078,0.171,0.198,0.147,0.238c-0.154,0.272,0.069,0.267,0.214,0.325
		c0.021,0.006,0.035,0.027,0.049,0.039c0.001,0.021,0.008,0.037,0.002,0.051c-0.051,0.117-0.151,0.266,0.037,0.322
		c0.158,0.045,0.188-0.119,0.213-0.24c0.055-0.23,0.131-0.268,0.297-0.102c0.174,0.174,0.36,0.234,0.582,0.143
		c0.075-0.031,0.125-0.123,0.192-0.18c0.063-0.049,0.146-0.139,0.194-0.125c0.172,0.051,0.351,0.111,0.494,0.215
		c0.272,0.199,0.644,0.203,0.889-0.037c0.147-0.145,0.272-0.274,0.515-0.178c0.078,0.031,0.212-0.076,0.343-0.131
		c-0.115,0.365,0.007,0.707,0.044,1.057c0.021,0.205-0.08,0.424-0.136,0.635c-0.073,0.289-0.173,0.572-0.229,0.863
		c-0.087,0.432-0.443,0.662-0.945,0.567c-0.188-0.036-0.369-0.132-0.56-0.161c-0.245-0.039-0.494-0.018-0.691,0.162
		c-0.343,0.314-0.722,0.172-1.082,0.072c-0.377-0.105-0.738-0.266-1.144-0.21c-0.034,0.004-0.093-0.003-0.106-0.024
		c-0.18-0.279-0.486-0.216-0.743-0.293c-0.111-0.035-0.202-0.138-0.312-0.193c-0.172-0.088-0.346-0.213-0.528-0.231
		c-0.368-0.036-0.691,0.119-0.954,0.378c-0.138,0.137-0.201,0.309-0.104,0.506c0.087,0.178,0.007,0.309-0.13,0.42
		c-0.144,0.116-0.287,0.174-0.457,0.045c-0.354-0.271-0.755-0.435-1.195-0.51c-0.188-0.031-0.32-0.15-0.351-0.351
		c-0.027-0.194-0.104-0.332-0.328-0.347c-0.063-0.004-0.117-0.07-0.182-0.094c-0.185-0.068-0.376-0.188-0.559-0.179
		c-0.264,0.011-0.481-0.054-0.691-0.188c-0.051-0.033-0.119-0.066-0.138-0.115c-0.066-0.172-0.15-0.279-0.362-0.284
		c-0.128-0.002-0.178-0.115-0.053-0.226c0.104-0.092,0.209-0.182,0.31-0.276c0.201-0.192,0.227-0.38,0.052-0.585
		c-0.126-0.148-0.104-0.239,0.058-0.324c0.046-0.025,0.095-0.061,0.12-0.104c0.028-0.049,0.047-0.117,0.034-0.166
		c-0.008-0.029-0.085-0.043-0.132-0.06c-0.078-0.028-0.165-0.044-0.235-0.086c-0.162-0.099-0.302-0.175-0.509-0.073
		c-0.213,0.104-0.433,0.143-0.7,0.049c-0.245-0.084-0.551,0.004-0.829,0.015c-0.08,0.003-0.175,0.03-0.238-0.003
		c-0.372-0.192-0.749-0.195-1.136-0.064c-0.021,0.008-0.046,0.018-0.066,0.016c-0.51-0.074-0.964,0.131-1.426,0.283
		c-0.158,0.053-0.304,0.151-0.464,0.198c-0.118,0.035-0.255,0.048-0.375,0.026c-0.238-0.043-0.468-0.137-0.707-0.17
		c-0.21-0.029-0.319-0.116-0.346-0.325c-0.026-0.207,0.116-0.293,0.266-0.312c0.231-0.031,0.475-0.041,0.7-0.002
		c0.264,0.047,0.458,0.028,0.691-0.152c0.26-0.2,0.539-0.373,0.796-0.588c0.169-0.142,0.26-0.189,0.176-0.416
		c-0.032-0.088,0.051-0.254,0.13-0.338c0.182-0.193,0.393-0.36,0.595-0.533c0.032-0.028,0.084-0.034,0.128-0.047
		c0.19-0.051,0.383-0.098,0.569-0.154c0.262-0.08,0.41-0.232,0.401-0.535c-0.009-0.277,0.254-0.443,0.525-0.352
		c0.169,0.058,0.327,0.154,0.499,0.203c0.104,0.031,0.241,0.043,0.335,0.002c0.321-0.142,0.629-0.312,0.944-0.467
		c0.179-0.09,0.55,0.084,0.56,0.297c0.031,0.648,0.555,0.949,0.944,1.318c0.168,0.157,0.448,0.238,0.622,0.424
		c0.216,0.229,0.529,0.381,0.571,0.756c0.022,0.213-0.059,0.428-0.268,0.459c-0.313,0.045-0.626,0.189-0.946,0.02
		c-0.05-0.025-0.126-0.021-0.182-0.002c-0.091,0.031-0.219,0.064-0.251,0.134c-0.063,0.14,0.057,0.206,0.173,0.272
		c0.241,0.131,0.47,0.291,0.708,0.425c0.077,0.043,0.203,0.081,0.266,0.047c0.065-0.039,0.119-0.164,0.119-0.251
		c0-0.313-0.001-0.285,0.301-0.37c0.14-0.039,0.245-0.212,0.36-0.329c0.048-0.047,0.069-0.124,0.122-0.156
		c0.243-0.156,0.262-0.236,0.034-0.445c-0.129-0.116-0.057-0.196,0.002-0.297c0.068-0.115,0.15-0.112,0.247-0.037
		c0.083,0.063,0.162,0.138,0.254,0.185c0.063,0.031,0.177,0.054,0.208,0.022c0.043-0.043,0.047-0.145,0.037-0.217
		c-0.006-0.041-0.065-0.082-0.109-0.11c-0.229-0.154-0.467-0.298-0.69-0.457c-0.067-0.048-0.141-0.13-0.15-0.202
		c-0.019-0.148-0.09-0.193-0.224-0.207c-0.383-0.04-0.502-0.165-0.619-0.534c-0.051-0.159-0.151-0.317-0.271-0.435
		c-0.167-0.165-0.316-0.258-0.188-0.568C327.081,158.326,327.166,158.246,327.402,158.2 M325.281,160.334
		c-0.123,0.044-0.216,0.094-0.313,0.109c-0.138,0.022-0.166,0.084-0.168,0.219c-0.002,0.208-0.029,0.419-0.073,0.623
		c-0.034,0.162,0.066,0.336,0.22,0.32c0.269-0.026,0.453-0.211,0.498-0.492c0.017-0.096,0.051-0.192,0.06-0.289
		c0.011-0.114,0.037-0.249-0.01-0.342c-0.086-0.166-0.055-0.295,0.017-0.451c0.063-0.143,0.087-0.305,0.104-0.461
		c0.003-0.029-0.134-0.117-0.164-0.1C325.103,159.659,324.976,159.958,325.281,160.334 M331.509,163.613
		c-0.019,0.014-0.085,0.072-0.153,0.13c0.063,0.055,0.118,0.132,0.191,0.161c0.117,0.05,0.25,0.089,0.377,0.095
		c0.255,0.015,0.512,0.006,0.768-0.004c0.036-0.001,0.094-0.067,0.095-0.104c0.001-0.033-0.057-0.095-0.096-0.102
		C332.323,163.729,331.952,163.678,331.509,163.613 M335.771,164.133c0.246,0.006,0.707-0.373,0.715-0.556
		c0.001-0.033-0.095-0.108-0.122-0.099c-0.27,0.098-0.537,0.205-0.797,0.326c-0.03,0.014-0.046,0.152-0.017,0.184
		C335.619,164.061,335.721,164.104,335.771,164.133 M322.587,160.661c-0.126,0.116-0.251,0.181-0.267,0.265
		c-0.011,0.061,0.114,0.194,0.197,0.213c0.132,0.032,0.244-0.062,0.229-0.209C322.743,160.855,322.666,160.787,322.587,160.661
		 M332.41,161.225c-0.025-0.039-0.053-0.078-0.08-0.117c-0.099,0.059-0.195,0.115-0.296,0.174c0.042,0.044,0.108,0.132,0.122,0.125
		C332.247,161.357,332.327,161.288,332.41,161.225 M332.436,162.896c-0.087-0.063-0.137-0.129-0.185-0.127
		c-0.051,0.004-0.098,0.069-0.146,0.107c0.044,0.047,0.082,0.121,0.135,0.135C332.282,163.021,332.343,162.956,332.436,162.896
		 M321.974,161.156c-0.083-0.047-0.144-0.104-0.172-0.09c-0.059,0.023-0.106,0.082-0.139,0.139
		c-0.008,0.014,0.083,0.111,0.104,0.104C321.83,161.286,321.881,161.23,321.974,161.156 M323.221,160.829
		c-0.084-0.062-0.137-0.127-0.183-0.122c-0.04,0.003-0.095,0.085-0.098,0.135c-0.003,0.037,0.069,0.113,0.105,0.111
		C323.095,160.95,323.141,160.891,323.221,160.829"/>
	<rect x="-204.613" y="-88.558" fill="none" width="850.392" height="595.277"/>
	<path fill="#3A4A9F" d="M335.349,158.059c-0.091,0.08-0.166,0.129-0.219,0.196c-0.033,0.042-0.057,0.121-0.037,0.165
		c0.016,0.04,0.096,0.084,0.141,0.078c0.188-0.027,0.24,0.052,0.254,0.229c0.019,0.203,0.17,0.254,0.321,0.109
		c0.259-0.25,0.586-0.322,0.919-0.344c0.131-0.008,0.266,0.102,0.403,0.148c0.371,0.127,0.72,0.285,1.03,0.537
		c0.169,0.135,0.399,0.191,0.596,0.297c0.195,0.108,0.348,0.407,0.294,0.547c-0.07,0.18-0.425,0.379-0.623,0.375
		c-0.163-0.002-0.327,0.033-0.49,0.047c-0.098,0.009-0.204,0.031-0.295,0.009c-0.298-0.077-0.595-0.16-0.885-0.263
		c-0.652-0.231-1.267-0.219-1.834,0.229c-0.268,0.21-1.154,0.182-1.416-0.027c-0.247-0.197-0.27-0.656-0.063-0.883
		c0.079-0.086,0.124-0.215,0.152-0.332c0.043-0.183,0.021-0.389,0.285-0.435c0.044-0.009,0.098-0.136,0.094-0.206
		c-0.008-0.161,0.029-0.27,0.173-0.364c0.096-0.063,0.146-0.196,0.229-0.282c0.048-0.05,0.128-0.088,0.192-0.088
		c0.035-0.001,0.064,0.096,0.107,0.139c0.048,0.047,0.105,0.107,0.166,0.115C334.994,158.07,335.146,158.059,335.349,158.059"/>
	<rect x="-204.613" y="-88.558" fill="none" width="850.392" height="595.277"/>
	<path fill="#3A4A9F" d="M342.235,157.975c-0.047,0.014-0.121,0.01-0.143,0.043c-0.034,0.053-0.067,0.166-0.042,0.187
		c0.254,0.224,0.514,0.442,0.786,0.646c0.142,0.106,0.37,0.35,0.458,0.539c0.025,0.062,0.071,0.121,0.124,0.162
		c0.045,0.037,0.109,0.049,0.168,0.072c0.011-0.063,0.021-0.125,0.031-0.188c0.011-0.064,0.018-0.131,0.024-0.195
		c0.069,0.018,0.149,0.02,0.204,0.058c0.115,0.087,0.22,0.188,0.322,0.291c0.033,0.033,0.074,0.106,0.061,0.13
		c-0.026,0.043-0.091,0.063-0.141,0.09c-0.012,0.006-0.03-0.006-0.045-0.004c-0.138,0.002-0.275,0.006-0.412,0.01
		c0.028,0.147,0.054,0.297,0.091,0.441c0.009,0.036,0.059,0.088,0.091,0.09c0.151,0.004,0.226,0.059,0.208,0.225
		c-0.003,0.031,0.083,0.068,0.123,0.107c0.098,0.094,0.225,0.178,0.281,0.293c0.106,0.219,0.182,0.453,0.249,0.688
		c0.016,0.053-0.033,0.163-0.084,0.19c-0.277,0.155-0.569,0.272-0.899,0.221c-0.074-0.012-0.166-0.012-0.219-0.055
		c-0.188-0.154-0.388-0.244-0.642-0.265c-0.219-0.019-0.389-0.511-0.288-0.735c0.032-0.074,0.073-0.166,0.059-0.236
		c-0.038-0.176-0.111-0.346,0.134-0.434c0.007-0.002-0.018-0.17-0.045-0.175c-0.445-0.088-0.641-0.507-0.978-0.739
		c-0.247-0.17-0.465-0.402-0.548-0.72c-0.017-0.063-0.07-0.118-0.113-0.172c-0.208-0.261-0.21-0.261-0.162-0.589
		c0.008-0.059,0.012-0.133,0.049-0.172c0.252-0.26,0.504-0.523,0.776-0.766c0.079-0.07,0.219-0.078,0.333-0.101
		c0.089-0.019,0.194,0.015,0.269-0.022c0.193-0.101,0.275,0.016,0.341,0.152c0.124,0.262,0.031,0.462-0.232,0.529
		C342.24,157.621,342.237,157.627,342.235,157.975"/>
	<rect x="-204.613" y="-88.558" fill="none" width="850.392" height="595.277"/>
	<path fill="#3A4A9F" d="M333.139,151.493c-0.274,0.14-0.539,0.239-0.87,0.187c-0.218-0.035-0.465,0.068-0.689,0.141
		c-0.072,0.023-0.115,0.143-0.175,0.221c-0.22-0.131-0.357-0.079-0.411,0.171c-0.03,0.146,0.053,0.226,0.193,0.181
		c0.051-0.016,0.096-0.065,0.145-0.066c0.118-0.004,0.32-0.02,0.339,0.027c0.044,0.115,0.002,0.262-0.004,0.396
		c-0.086-0.007-0.202,0.02-0.248-0.025c-0.303-0.301-0.443-0.281-0.651,0.096c-0.116,0.211-0.18,0.42-0.09,0.66
		c0.041,0.115-0.007,0.172-0.133,0.213c-0.123,0.039-0.225,0.143-0.345,0.199c-0.076,0.037-0.222,0.084-0.247,0.053
		c-0.249-0.303-0.516-0.129-0.777-0.047c-0.233,0.074-0.464,0.156-0.697,0.229c-0.126,0.038-0.208,0.003-0.219-0.147
		c-0.017-0.201-0.125-0.224-0.287-0.143c-0.069,0.035-0.144,0.061-0.213,0.09c-0.253,0.102-0.495,0.055-0.673-0.143
		c-0.027-0.031-0.023-0.092-0.047-0.191c0.127,0.049,0.218,0.065,0.285,0.114c0.207,0.151,0.364,0.133,0.513-0.076
		c0.039-0.055,0.07-0.114,0.112-0.183c0.065,0.045,0.11,0.091,0.164,0.109c0.154,0.055,0.307,0.072,0.396-0.111
		c0.074-0.156,0.196-0.221,0.369-0.223c0.105,0,0.215-0.025,0.315-0.056c0.193-0.056,0.288-0.235,0.236-0.424
		c-0.083-0.302,0.078-0.623,0.375-0.694c0.229-0.054,0.314-0.251,0.393-0.412c0.034-0.07-0.121-0.293-0.239-0.363
		c-0.206-0.119-0.177-0.241-0.112-0.42c0.14-0.393,0.42-0.615,0.797-0.768c0.223-0.089,0.423-0.216,0.43-0.531
		c0.007-0.263,0.579-0.437,0.77-0.248c0.031,0.03,0.016,0.166-0.024,0.203c-0.248,0.225-0.499,0.451-0.771,0.648
		c-0.159,0.115-0.215,0.234-0.188,0.426c0.023,0.172,0.026,0.352,0.015,0.525c-0.013,0.162,0.043,0.231,0.181,0.34
		c0.338,0.27,0.646,0.158,0.985,0.051c0.245-0.078,0.504-0.132,0.76-0.152C332.906,151.339,333.024,151.439,333.139,151.493
		 M329.802,152.863c0.167,0.009,0.424-0.299,0.367-0.404c-0.021-0.042-0.146-0.083-0.163-0.066c-0.103,0.11-0.19,0.232-0.271,0.36
		C329.725,152.773,329.786,152.839,329.802,152.863 M330.704,151.49c-0.106-0.071-0.164-0.135-0.222-0.137
		c-0.044-0.002-0.092,0.072-0.138,0.112c0.046,0.042,0.088,0.109,0.141,0.119C330.533,151.594,330.594,151.542,330.704,151.49"/>
	<rect x="-204.613" y="-88.558" fill="none" width="850.392" height="595.277"/>
	<path fill="#3A4A9F" d="M336.159,185.139c-0.021-0.099-0.044-0.148-0.038-0.193c0.041-0.352,0.086-0.705,0.133-1.057
		c0.004-0.029,0.016-0.061,0.033-0.084c0.09-0.117,0.845-0.297,0.959-0.207c0.076,0.059,0.146,0.176,0.148,0.271
		c0.01,0.253-0.079,0.476-0.272,0.657c-0.103,0.097-0.205,0.225-0.005,0.412c-0.188,0.016-0.335,0.062-0.463,0.028
		C336.46,184.917,336.302,184.916,336.159,185.139"/>
	<rect x="-204.613" y="-88.558" fill="none" width="850.392" height="595.277"/>
	<path fill="#3A4A9F" d="M337.375,157.361c-0.339,0.357-0.339,0.357-0.199,0.478c-0.041,0.087-0.082,0.175-0.124,0.263
		c-0.011,0.021-0.019,0.043-0.031,0.061c-0.127,0.15-0.881,0.094-0.969-0.08c-0.022-0.046-0.016-0.152,0.018-0.174
		C336.467,157.639,336.914,157.48,337.375,157.361"/>
	<rect x="-204.613" y="-88.558" fill="none" width="850.392" height="595.277"/>
	<path fill="#3A4A9F" d="M335.589,188.311c-0.054-0.049-0.13-0.086-0.154-0.146c-0.123-0.309-0.271-0.587-0.542-0.807
		c-0.148-0.119-0.227-0.31-0.179-0.555c0.046-0.238-0.029-0.498-0.051-0.748c-0.004-0.051,0-0.101,0.055-0.168
		c0.027,0.071,0.07,0.141,0.081,0.215c0.041,0.308,0.064,0.617,0.111,0.924c0.011,0.07,0.071,0.141,0.125,0.195
		c0.063,0.065,0.171,0.098,0.207,0.172c0.143,0.283,0.264,0.576,0.393,0.867C335.62,188.277,335.604,188.294,335.589,188.311"/>
	<rect x="-204.613" y="-88.558" fill="none" width="850.392" height="595.277"/>
	<path fill="#3A4A9F" d="M337.38,188.74c0.045,0.084,0.104,0.162,0.131,0.252c0.066,0.218,0.122,0.441,0.176,0.662
		c0.013,0.05,0.024,0.115,0.001,0.154c-0.146,0.258-0.033,0.526-0.033,0.789c0,0.1,0.084,0.2,0.101,0.346
		c-0.057-0.027-0.146-0.041-0.163-0.084c-0.063-0.152-0.094-0.317-0.15-0.473c-0.085-0.236-0.061-0.453-0.008-0.701
		c0.05-0.232-0.069-0.5-0.114-0.752c-0.01-0.053-0.012-0.107-0.017-0.162C337.328,188.762,337.354,188.751,337.38,188.74"/>
	<rect x="-204.613" y="-88.558" fill="none" width="850.392" height="595.277"/>
	<path fill="#3A4A9F" d="M345.073,156.811c0.177,0.207,0.334,0.371,0.459,0.555c0.05,0.072,0.055,0.207,0.021,0.289
		c-0.021,0.049-0.156,0.057-0.241,0.064c-0.029,0.002-0.082-0.047-0.091-0.08c-0.063-0.232-0.115-0.466-0.17-0.699
		C345.045,156.914,345.061,156.883,345.073,156.811"/>
	<rect x="-204.613" y="-88.558" fill="none" width="850.392" height="595.277"/>
	<path fill="#3A4A9F" d="M340.965,146.875c0.278,0.079,0.396,0.309,0.454,0.579c0.01,0.047-0.025,0.104-0.039,0.157
		c-0.053-0.034-0.127-0.057-0.149-0.104C341.135,147.305,341.055,147.094,340.965,146.875"/>
	<rect x="-204.613" y="-88.558" fill="none" width="850.392" height="595.277"/>
	<path fill="#3A4A9F" d="M333.793,160.915c-0.234,0.034-0.47,0.067-0.723,0.103c0.104-0.287,0.425-0.356,0.706-0.187
		C333.782,160.857,333.787,160.887,333.793,160.915"/>
	<rect x="-204.613" y="-88.558" fill="none" width="850.392" height="595.277"/>
	<path fill="#3A4A9F" d="M349.301,155.214v0.661c-0.181-0.098-0.182-0.26-0.175-0.416
		C349.13,155.348,349.112,155.204,349.301,155.214"/>
	<rect x="-204.613" y="-88.558" fill="none" width="850.392" height="595.277"/>
	<path fill="#3A4A9F" d="M351.424,149.404c-0.233-0.264-0.469-0.529-0.701-0.793c0.013-0.012,0.023-0.024,0.037-0.036
		c0.242,0.257,0.483,0.514,0.726,0.771C351.465,149.365,351.445,149.385,351.424,149.404"/>
	<rect x="-204.613" y="-88.558" fill="none" width="850.392" height="595.277"/>
	<path fill="#3A4A9F" d="M340.295,146.523c0.162,0.056,0.326,0.113,0.521,0.181c-0.003,0.004-0.025,0.073-0.053,0.075
		c-0.208,0.015-0.36-0.084-0.464-0.262L340.295,146.523z"/>
	<rect x="-204.613" y="-88.558" fill="none" width="850.392" height="595.277"/>
	<path fill="#3A4A9F" d="M340.301,146.518c-0.18-0.104-0.359-0.209-0.538-0.314c0.015-0.02,0.026-0.041,0.041-0.063
		c0.208,0.063,0.354,0.219,0.491,0.383L340.301,146.518"/>
	<rect x="-204.613" y="-88.558" fill="none" width="850.392" height="595.277"/>
	<path fill="#3A4A9F" d="M319.157,144.146c-0.337,0.084-0.66,0.166-0.999,0.252c-0.042-0.224-0.219-0.114-0.387-0.107
		c0.035-0.025,0.07-0.055,0.108-0.076c0.237-0.133,0.471-0.279,0.719-0.393c0.141-0.063,0.306-0.071,0.461-0.098
		c0.103-0.019,0.212-0.012,0.312-0.037c0.311-0.084,0.616-0.178,0.926-0.264c0.056-0.015,0.116-0.01,0.191,0.032
		c-0.078,0.034-0.154,0.071-0.233,0.104c-0.07,0.028-0.146,0.041-0.214,0.078c-0.169,0.092-0.311,0.202-0.544,0.147
		C319.266,143.732,319.117,143.914,319.157,144.146"/>
	<rect x="-204.613" y="-88.558" fill="none" width="850.392" height="595.277"/>
	<path fill="#3A4A9F" d="M324.832,142.074c0.056-0.01,0.113-0.01,0.164-0.029c0.104-0.039,0.274-0.064,0.299-0.136
		c0.096-0.296,0.369-0.261,0.572-0.345c0.168-0.068,0.354-0.111,0.533-0.129c0.127-0.013,0.261,0.037,0.393,0.06
		c-0.005,0.032-0.008,0.063-0.011,0.095c-0.053,0.008-0.109,0.03-0.155,0.018c-0.339-0.098-0.624-0.028-0.877,0.223
		c-0.116,0.117-0.252,0.238-0.401,0.291c-0.157,0.055-0.341,0.027-0.513,0.037C324.834,142.13,324.832,142.102,324.832,142.074"/>
	<rect x="-204.613" y="-88.558" fill="none" width="850.392" height="595.277"/>
	<path fill="#3A4A9F" d="M325.258,141.648c-0.07,0.013-0.146,0.016-0.21,0.041c-0.165,0.063-0.339,0.117-0.488,0.207
		c-0.187,0.113-0.487,0.106-0.554-0.028c0.321-0.119,0.643-0.246,0.971-0.349c0.083-0.026,0.19,0.023,0.287,0.039
		C325.262,141.588,325.26,141.618,325.258,141.648"/>
	<rect x="-204.613" y="-88.558" fill="none" width="850.392" height="595.277"/>
	<path fill="#3A4A9F" d="M325.265,142.626c0.221-0.108,0.437-0.103,0.642,0.089h-0.646
		C325.262,142.686,325.264,142.656,325.265,142.626"/>
	<rect x="-204.613" y="-88.558" fill="none" width="850.392" height="595.277"/>
	<path fill="#3A4A9F" d="M320.795,142.943c0.124-0.061,0.247-0.121,0.371-0.182c0.013,0.028,0.024,0.055,0.039,0.084
		c-0.126,0.066-0.251,0.133-0.376,0.2C320.818,143.012,320.807,142.977,320.795,142.943"/>
	<rect x="-204.613" y="-88.558" fill="none" width="850.392" height="595.277"/>
	<polygon fill="#3A4A9F" points="390.81,206.471 377.707,206.471 377.707,139.594 381.188,139.594 414.263,178.07 414.263,141.059 
		427.452,141.059 427.452,207.846 423.973,207.846 390.81,170.833 	"/>
	<rect x="-204.613" y="-88.558" fill="none" width="850.392" height="595.277"/>
	<rect x="-204.613" y="-88.558" fill="none" width="850.392" height="595.277"/>
	<rect x="-204.613" y="-88.558" fill="none" width="850.392" height="595.277"/>
	<rect x="-204.613" y="-88.558" fill="none" width="850.392" height="595.277"/>
	<rect x="-204.613" y="-88.558" fill="none" width="850.392" height="595.277"/>
	<rect x="-204.613" y="-88.558" fill="none" width="850.392" height="595.277"/>
	<rect x="-204.613" y="-88.558" fill="none" width="850.392" height="595.277"/>
	<rect x="-204.613" y="-88.558" fill="none" width="850.392" height="595.277"/>
	<rect x="-204.613" y="-88.558" fill="none" width="850.392" height="595.277"/>
	<rect x="-204.613" y="-88.558" fill="none" width="850.392" height="595.277"/>
	<rect x="-204.613" y="-88.558" fill="none" width="850.392" height="595.277"/>
	<rect x="-204.613" y="-88.558" fill="none" width="850.392" height="595.277"/>
	<rect x="-204.613" y="-88.558" fill="none" width="850.392" height="595.277"/>
	<rect x="-204.613" y="-88.558" fill="none" width="850.392" height="595.277"/>
	<rect x="-204.613" y="-88.558" fill="none" width="850.392" height="595.277"/>
	<rect x="-204.613" y="-88.558" fill="none" width="850.392" height="595.277"/>
	<rect x="-204.613" y="-88.558" fill="none" width="850.392" height="595.277"/>
	<rect x="-204.613" y="-88.558" fill="none" width="850.392" height="595.277"/>
	<rect x="-204.613" y="-88.558" fill="none" width="850.392" height="595.277"/>
	<g>
		<path fill="#3A4A9F" d="M193.084,118.56l0.986-1.194c1.219,1.133,2.478,1.825,4.137,1.825c1.764,0,2.939-1.069,2.939-2.479v-0.02
			c0-1.219-0.588-1.996-3.255-2.941c-3.044-1.133-4.241-2.225-4.241-4.303v-0.043c0-2.203,1.849-3.883,4.431-3.883
			c1.701,0,3.106,0.523,4.409,1.658l-0.945,1.218c-1.091-0.944-2.246-1.429-3.527-1.429c-1.68,0-2.771,1.029-2.771,2.289v0.041
			c0,1.281,0.649,2.019,3.422,3.025c2.98,1.111,4.073,2.309,4.073,4.262v0.041c0,2.353-1.932,4.011-4.557,4.011
			C196.296,120.638,194.617,119.988,193.084,118.56"/>
		<polygon fill="#3A4A9F" points="205.558,105.73 214.522,105.73 214.522,107.181 207.133,107.181 207.133,112.304 213.767,112.304 
			213.767,113.731 207.133,113.731 207.133,118.979 214.627,118.979 214.627,120.429 205.558,120.429 		"/>
		<path fill="#3A4A9F" d="M217.444,105.73h5.019c1.68,0,3.022,0.504,3.863,1.366c0.734,0.733,1.154,1.784,1.154,3.022v0.041
			c0,2.33-1.448,3.738-3.484,4.242l3.946,6.025h-1.89l-3.695-5.711h-3.338v5.711h-1.575V105.73L217.444,105.73z M222.189,113.289
			c2.395,0,3.716-1.197,3.716-3.063v-0.043c0-1.931-1.343-3.001-3.548-3.001h-3.338v6.109h3.17V113.289z"/>
		<polygon fill="#3A4A9F" points="229.078,105.73 230.8,105.73 235.124,118.246 239.471,105.73 241.13,105.73 235.839,120.535 
			234.39,120.535 		"/>
		<rect x="243.735" y="105.731" fill="#3A4A9F" width="1.575" height="14.697"/>
		<path fill="#3A4A9F" d="M248.397,113.164v-0.125c0-4.451,2.771-7.518,6.446-7.518c2.015,0,3.317,0.736,4.472,1.807l-0.966,1.197
			c-0.924-0.882-2.036-1.533-3.526-1.533c-2.71,0-4.787,2.479-4.787,6.025v0.084c0,3.611,2.077,6.068,4.787,6.068
			c1.512,0,2.581-0.631,3.632-1.639l0.944,1.092c-1.238,1.219-2.646,2.018-4.66,2.018
			C251.105,120.64,248.397,117.636,248.397,113.164"/>
		<polygon fill="#3A4A9F" points="261.879,105.73 270.844,105.73 270.844,107.181 263.455,107.181 263.455,112.304 270.088,112.304 
			270.088,113.731 263.455,113.731 263.455,118.979 270.949,118.979 270.949,120.429 261.879,120.429 		"/>
		<path fill="#3A4A9F" d="M272.778,118.56l0.987-1.194c1.218,1.133,2.478,1.825,4.136,1.825c1.765,0,2.94-1.069,2.94-2.479v-0.02
			c0-1.219-0.588-1.996-3.255-2.941c-3.044-1.133-4.241-2.225-4.241-4.303v-0.043c0-2.203,1.848-3.883,4.43-3.883
			c1.701,0,3.107,0.523,4.409,1.658l-0.945,1.218c-1.091-0.944-2.245-1.429-3.526-1.429c-1.68,0-2.771,1.029-2.771,2.289v0.041
			c0,1.281,0.65,2.019,3.422,3.025c2.981,1.111,4.073,2.309,4.073,4.262v0.041c0,2.353-1.931,4.011-4.556,4.011
			C275.99,120.638,274.311,119.988,272.778,118.56"/>
		<path fill="#3A4A9F" d="M298.103,118.455c-1.134,1.342-2.478,2.162-4.22,2.162c-2.394,0-4.158-1.658-4.158-3.969v-0.063
			c0-1.869,1.155-3.338,3.192-4.367c-1.008-1.303-1.449-2.227-1.449-3.359v-0.063c0-1.786,1.386-3.297,3.506-3.297
			c1.933,0,3.255,1.449,3.255,3.17v0.063c0,1.785-1.196,2.961-3.107,3.863l2.961,3.57c0.546-0.924,0.986-1.976,1.427-3.191
			l1.281,0.525c-0.525,1.426-1.092,2.686-1.764,3.758l2.204,2.561l-1.196,0.861L298.103,118.455z M297.221,117.427l-3.485-4.199
			c-1.7,0.817-2.415,2.058-2.415,3.274v0.063c0,1.533,1.093,2.709,2.688,2.709C295.268,119.274,296.318,118.56,297.221,117.427
			 M296.78,108.776v-0.021c0-1.114-0.776-1.954-1.848-1.954c-1.175,0-1.994,0.883-1.994,1.997v0.041c0,0.84,0.336,1.553,1.364,2.813
			C295.961,110.916,296.78,109.994,296.78,108.776"/>
		<path fill="#3A4A9F" d="M308.394,113.164v-0.125c0-4.451,2.771-7.518,6.446-7.518c2.016,0,3.317,0.736,4.473,1.807l-0.967,1.197
			c-0.924-0.882-2.035-1.533-3.526-1.533c-2.709,0-4.786,2.479-4.786,6.025v0.084c0,3.611,2.077,6.068,4.786,6.068
			c1.513,0,2.582-0.631,3.633-1.639l0.944,1.092c-1.238,1.219-2.646,2.018-4.661,2.018
			C311.102,120.64,308.394,117.636,308.394,113.164"/>
		<path fill="#3A4A9F" d="M320.868,113.185v-0.168c0-4.324,2.604-7.515,6.341-7.515c3.735,0,6.299,3.168,6.299,7.474v0.168
			c0,4.323-2.583,7.517-6.32,7.517C323.429,120.66,320.868,117.49,320.868,113.185 M331.89,113.164v-0.146
			c0-3.547-1.995-6.068-4.703-6.068c-2.709,0-4.682,2.5-4.682,6.047v0.147c0,3.547,1.994,6.067,4.703,6.067
			C329.916,119.211,331.89,116.711,331.89,113.164"/>
		<polygon fill="#3A4A9F" points="336.47,105.73 337.961,105.73 345.645,117.299 345.645,105.73 347.2,105.73 347.2,120.429 
			345.876,120.429 338.003,108.586 338.003,120.429 336.47,120.429 		"/>
		<path fill="#3A4A9F" d="M349.742,118.56l0.986-1.194c1.218,1.133,2.478,1.825,4.137,1.825c1.764,0,2.939-1.069,2.939-2.479v-0.02
			c0-1.219-0.589-1.996-3.256-2.941c-3.044-1.133-4.24-2.225-4.24-4.303v-0.043c0-2.203,1.849-3.883,4.43-3.883
			c1.701,0,3.107,0.523,4.409,1.658l-0.944,1.218c-1.092-0.944-2.246-1.429-3.527-1.429c-1.68,0-2.771,1.029-2.771,2.289v0.041
			c0,1.281,0.65,2.019,3.423,3.025c2.98,1.111,4.072,2.309,4.072,4.262v0.041c0,2.353-1.932,4.011-4.557,4.011
			C352.954,120.638,351.275,119.988,349.742,118.56"/>
		<path fill="#3A4A9F" d="M362.048,114.949v-9.218h1.574v9.177c0,2.771,1.405,4.305,3.717,4.305c2.247,0,3.674-1.449,3.674-4.242
			v-9.239h1.575v9.134c0,3.778-2.121,5.795-5.291,5.795C364.168,120.66,362.048,118.644,362.048,114.949"/>
		<polygon fill="#3A4A9F" points="375.95,105.73 377.525,105.73 377.525,118.979 384.348,118.979 384.348,120.429 375.95,120.429 		
			"/>
		<polygon fill="#3A4A9F" points="388.318,107.201 384.203,107.201 384.203,105.73 394.029,105.73 394.029,107.201 389.893,107.201 
			389.893,120.429 388.318,120.429 		"/>
		<rect x="396.739" y="105.731" fill="#3A4A9F" width="1.575" height="14.697"/>
		<polygon fill="#3A4A9F" points="401.968,105.73 403.459,105.73 411.143,117.299 411.143,105.73 412.698,105.73 412.698,120.429 
			411.373,120.429 403.501,108.586 403.501,120.429 401.968,120.429 		"/>
		<path fill="#3A4A9F" d="M415.66,113.164v-0.146c0-4.262,2.688-7.496,6.552-7.496c1.909,0,3.189,0.546,4.45,1.576l-0.944,1.259
			c-0.903-0.798-1.953-1.364-3.548-1.364c-2.793,0-4.871,2.52-4.871,6.025v0.105c0,3.694,1.994,6.09,5.018,6.09
			c1.261,0,2.414-0.463,3.17-1.051v-4.138h-3.674v-1.405H427v6.299c-1.136,0.924-2.793,1.723-4.745,1.723
			C418.242,120.64,415.66,117.595,415.66,113.164"/>
	</g>
	<rect x="-204.613" y="-88.558" fill="none" width="850.392" height="595.277"/>
	<rect x="-204.613" y="-88.558" fill="none" width="850.392" height="595.277"/>
</g>
</svg>
