<?xml version="1.0" encoding="utf-8"?>
<!-- Generator: Adobe Illustrator 16.0.3, SVG Export Plug-In . SVG Version: 6.00 Build 0)  -->
<!DOCTYPE svg PUBLIC "-//W3C//DTD SVG 1.1//EN" "http://www.w3.org/Graphics/SVG/1.1/DTD/svg11.dtd">
<svg version="1.1" id="Layer_1" xmlns="http://www.w3.org/2000/svg" xmlns:xlink="http://www.w3.org/1999/xlink" x="0px" y="0px"
	 width="428px" height="245px" viewBox="0 0 428 245" enable-background="new 0 0 428 245" xml:space="preserve">
<g>
	<defs>
		<rect id="SVGID_1_" x="-204.613" y="-88.558" width="850.392" height="595.276"/>
	</defs>
	<clipPath id="SVGID_2_">
		<use xlink:href="#SVGID_1_"  overflow="visible"/>
	</clipPath>
	<path clip-path="url(#SVGID_2_)" fill="#3A4A9F" d="M33.892,120.907c5.873-4.939,10.478-10.857,14.553-17.495
		c0,1.605,0.18,3.234-0.03,4.811c-1.188,8.955-2.413,17.906-3.779,26.835c-0.201,1.318-0.998,2.698-1.887,3.734
		c-6.189,7.203-11.8,14.728-14.909,23.866c-2.349,6.905-1.508,13.446,1.758,19.828c1.751,3.422,3.39,6.9,6.277,9.583
		c0.328,0.306,0.541,0.904,0.541,1.367v13.035c-14.233-21.702-25.612-44.589-30.906-70.077c0.443,0.344,0.889,0.682,1.327,1.031
		c0.505,0.403,1.002,0.816,1.728,1.408c-0.918-1.693-1.659-3.231-2.553-4.674c-2.429-3.923-2.693-8.358-3.142-12.758
		c-0.749-7.345-0.859-14.691-0.061-22.039c0.028-0.251,0.125-0.495,0.324-1.259c1.887,3.429,3.58,6.505,5.273,9.581
		c0.121-0.066,0.242-0.133,0.363-0.199c-0.929-3.158-1.853-6.317-2.788-9.473c-1.348-4.544-1.807-9.028-0.791-13.818
		c1.429-6.737,2.203-13.613,3.27-20.428c0.117-0.745,0.319-1.477,0.62-2.84c1.636,2.311,2.935,4.146,4.234,5.981
		c0.133-0.078,0.266-0.156,0.399-0.235c-0.786-2.515-1.319-5.148-2.418-7.518c-1.787-3.853-1.255-7.746-0.872-11.691
		c1.226-12.622,1.556-25.218-1.403-37.678C8.427,7.286,7.559,4.852,6.662,1.871c2.138,2.085,3.978,3.696,5.604,5.5
		c7.084,7.861,13.399,16.323,18.393,25.65c3.34,6.237,6.017,12.826,9.07,19.221c1.601,3.355,0.384,6.623-0.445,9.729
		c-1.372,5.14-3.337,10.121-5.052,15.169c-0.096,0.282-0.191,0.565-0.286,0.847l0.543,0.293c2.854-4.749,5.709-9.499,8.737-14.537
		c0.341,0.783,0.698,1.371,0.858,2.008c2.181,8.672,3.949,17.444,4.079,26.394c0.04,2.79-1.159,5.72-2.277,8.382
		c-2.985,7.105-6.611,13.874-11.714,19.745C34.027,120.439,33.983,120.694,33.892,120.907 M20.464,40.984
		c0.043,0.372,0.073,0.746,0.13,1.117c0.801,5.203,1.987,10.38,2.342,15.613c1.219,17.945-1.085,35.58-5.121,53.052
		c-1.301,5.632-2.421,11.351-3.003,17.093c-1.217,12.005,0.269,23.787,4.012,35.269c0.425,1.302,0.913,2.582,1.371,3.873
		c-0.306-2.823-0.864-5.548-1.487-8.258c-3.505-15.243-2.363-30.346,1.126-45.434c1.596-6.901,2.974-13.866,4.097-20.859
		c1.699-10.581,1.903-21.247,0.896-31.92C24.197,53.846,22.833,47.309,20.464,40.984"/>
</g>
<g>
	<defs>
		<path id="SVGID_3_" d="M166.713,125.458c-7.894,2.185-15.858,4.152-23.658,6.638c-8.187,2.609-16.317,5.467-24.287,8.677
			c-9.299,3.744-18.571,7.636-27.547,12.085c-16.973,8.411-32.927,18.489-47.316,30.903c-2.137,1.843-4.158,3.82-5.914,5.441
			c2.515,4.612,0.496,9.228,1.519,13.806c49.983-24.619,102.383-40.088,157.765-46.024c-0.373-0.65-0.504-1.028-0.754-1.294
			c-2.935-3.133-5.859-6.277-8.851-9.355c-1.351-1.39-2.671-2.556-5.054-2.062c-10.845,2.246-21.773,4.088-32.593,6.439
			c-17.395,3.781-34.594,8.324-51.352,14.41c-1.846,0.671-3.725,1.249-5.589,1.87c-0.046-0.154-0.093-0.308-0.14-0.461
			c28.512-12.159,57.981-21.158,88.802-26.446c-0.491-0.684-0.754-1.123-1.085-1.502c-3.423-3.92-6.928-7.772-10.249-11.776
			c-0.82-0.989-1.641-1.501-2.666-1.501C167.423,125.306,167.081,125.356,166.713,125.458"/>
	</defs>
	<clipPath id="SVGID_4_">
		<use xlink:href="#SVGID_3_"  overflow="visible"/>
	</clipPath>
	
		<linearGradient id="SVGID_5_" gradientUnits="userSpaceOnUse" x1="-1.085" y1="593.8345" x2="-0.0855" y2="593.8345" gradientTransform="matrix(27.7638 119.0551 119.0551 -27.7638 -70577.625 16667.1035)">
		<stop  offset="0" style="stop-color:#FFC20E"/>
		<stop  offset="1" style="stop-color:#CBDB2A"/>
	</linearGradient>
	<polygon clip-path="url(#SVGID_4_)" fill="url(#SVGID_5_)" points="189.06,90.077 214.461,199 46.207,238.237 20.806,129.314 	"/>
</g>
<g>
	<defs>
		<path id="SVGID_6_" d="M124.625,62.592c-10.145,6.352-19.176,14.084-27.661,22.483c-9.076,8.985-17.443,18.613-24.798,29.035
			c-5.247,7.434-10.217,15.115-14.671,23.044c-5.545,9.872-10.478,20.09-15.575,30.21c-1.387,2.757-2.412,5.696-3.603,8.553
			c0.478-0.017,0.684-0.168,0.838-0.361c5.091-6.403,9.934-13.024,15.319-19.17c9.98-11.391,21.212-21.478,33.443-30.421
			c9-6.582,18.365-12.612,28.377-17.54c6.303-3.103,12.778-5.857,19.2-8.716c1.038-0.461,1.545-0.86,1.239-2.163
			c-2.103-8.964-3.232-18.063-3.443-27.267c-0.091-4.008-0.015-8.02-0.015-12.765C130.07,59.389,127.302,60.917,124.625,62.592"/>
	</defs>
	<clipPath id="SVGID_7_">
		<use xlink:href="#SVGID_6_"  overflow="visible"/>
	</clipPath>
	
		<linearGradient id="SVGID_8_" gradientUnits="userSpaceOnUse" x1="-1.0854" y1="593.8247" x2="-0.0859" y2="593.8247" gradientTransform="matrix(27.7638 119.0551 119.0551 -27.7638 -70594.5 16671.041)">
		<stop  offset="0" style="stop-color:#FFC20E"/>
		<stop  offset="1" style="stop-color:#CBDB2A"/>
	</linearGradient>
	<polygon clip-path="url(#SVGID_7_)" fill="url(#SVGID_8_)" points="131.947,35.68 163.227,169.81 43.409,197.752 12.129,63.621 	
		"/>
</g>
<g>
	<defs>
		<path id="SVGID_9_" d="M94.341,124.946c-23.783,16.54-43.467,37.032-59.009,61.449c0.148,0.164,0.296,0.328,0.443,0.492
			c0.31-0.193,0.645-0.354,0.925-0.581c6.932-5.603,13.655-11.489,20.833-16.757c10.733-7.877,22.227-14.62,34.331-20.153
			c11.662-5.332,23.496-10.319,35.425-15.022c7.382-2.91,15.043-5.146,22.666-7.39c2.304-0.679,3.547-1.541,4.008-3.984
			c1.626-8.606,4.533-16.839,7.72-24.975c0.439-1.117,0.858-2.242,1.496-3.912C137.869,100.101,115.17,110.46,94.341,124.946"/>
	</defs>
	<clipPath id="SVGID_10_">
		<use xlink:href="#SVGID_9_"  overflow="visible"/>
	</clipPath>
	
		<linearGradient id="SVGID_11_" gradientUnits="userSpaceOnUse" x1="-1.0854" y1="593.8091" x2="-0.0854" y2="593.8091" gradientTransform="matrix(27.7638 119.0551 119.0551 -27.7638 -70587 16669.2285)">
		<stop  offset="0" style="stop-color:#FFC20E"/>
		<stop  offset="1" style="stop-color:#CBDB2A"/>
	</linearGradient>
	<polygon clip-path="url(#SVGID_10_)" fill="url(#SVGID_11_)" points="156.585,65.837 183.698,182.102 41.926,215.164 
		14.813,98.898 	"/>
</g>
<g>
	<defs>
		<path id="SVGID_12_" d="M80.686,56.512c-4.78,6.907-9.708,13.731-14.081,20.891c-4.341,7.109-8.163,14.542-12.035,21.926
			c-1.643,3.133-3.37,6.232-3.506,10.029c-0.328,9.202-1.795,18.272-3.951,27.222c-0.268,1.114-0.693,2.293-1.379,3.184
			c-2.059,2.672-4.36,5.157-6.424,7.824c-3.331,4.306-6.165,8.837-6.84,14.465c-0.478,4.002-1.243,7.979-2.08,11.924
			c-0.608,2.867,0.942,4.93,2.134,7.737c0.53-1.074,0.876-1.667,1.125-2.299c5.75-14.577,12.4-28.732,20.225-42.306
			c5.988-10.386,12.522-20.429,19.846-29.941c7.719-10.025,16.17-19.39,25.321-28.119c1.255-1.199,1.424-2.08,0.473-3.598
			c-3.647-5.823-6.4-12.081-8.524-18.611c-1.022-3.142-1.968-6.309-3.099-9.95C85.272,50.371,82.865,53.364,80.686,56.512"/>
	</defs>
	<clipPath id="SVGID_13_">
		<use xlink:href="#SVGID_12_"  overflow="visible"/>
	</clipPath>
	
		<linearGradient id="SVGID_14_" gradientUnits="userSpaceOnUse" x1="-1.0854" y1="593.8325" x2="-0.0854" y2="593.8325" gradientTransform="matrix(27.7638 119.0551 119.0551 -27.7638 -70616.25 16676.1035)">
		<stop  offset="0" style="stop-color:#FFC20E"/>
		<stop  offset="1" style="stop-color:#CBDB2A"/>
	</linearGradient>
	<polygon clip-path="url(#SVGID_13_)" fill="url(#SVGID_14_)" points="96.819,31.257 130.285,174.76 33.428,197.348 -0.037,53.844 	
		"/>
</g>
<g>
	<defs>
		<rect id="SVGID_15_" x="-204.613" y="-88.558" width="850.392" height="595.276"/>
	</defs>
	<clipPath id="SVGID_16_">
		<use xlink:href="#SVGID_15_"  overflow="visible"/>
	</clipPath>
	<polygon clip-path="url(#SVGID_16_)" fill="#3A4A9F" points="52.296,140.967 52.296,193.37 73.092,193.37 73.092,206.471 
		39.196,206.471 39.196,140.967 	"/>
	<polygon clip-path="url(#SVGID_16_)" fill="#3A4A9F" points="84.361,206.471 84.361,140.967 117.159,140.967 117.159,154.068 
		97.461,154.068 97.461,167.168 114.685,167.168 114.685,180.269 97.461,180.269 97.461,193.371 118.258,193.371 118.258,206.471 	
		"/>
	<polygon clip-path="url(#SVGID_16_)" fill="#3A4A9F" points="144.368,171.566 126.595,140.875 142.444,140.875 152.339,159.107 
		162.142,140.875 177.625,140.875 159.759,171.566 180.373,206.471 164.889,206.471 152.339,184.025 139.696,206.471 
		123.755,206.471 	"/>
	<polygon clip-path="url(#SVGID_16_)" fill="#3A4A9F" points="204.375,176.971 181.565,140.967 197.506,140.967 210.88,163.504 
		224.255,140.967 240.289,140.967 217.386,176.971 217.386,206.47 204.375,206.47 	"/>
	<path clip-path="url(#SVGID_16_)" fill="#3A4A9F" d="M275.285,153.335c-25.926,0-25.926,39.943,0,39.943
		c5.681,0,10.17-1.649,12.644-2.932l1.741,13.559c-4.032,1.649-9.804,2.748-14.385,2.748c-44.432,0-44.341-66.51,0-66.51
		c4.581,0,8.979,0.824,12.917,2.564l-1.556,13.468C284.172,154.892,280.965,153.335,275.285,153.335"/>
	<path clip-path="url(#SVGID_16_)" fill="#3A4A9F" d="M331.638,207.921c-18.703-0.007-34.741-15.094-34.278-35.315
		c0.405-17.725,14.946-33.542,35.168-33.27c8.664,0.379,16.291,3.344,22.61,9.331c7.18,6.804,10.77,15.27,10.766,25.121
		C365.899,192.592,350.575,207.916,331.638,207.921 M363.403,175.781c0.154,0.402,0.229,0.819,0.271,1.247
		c0.037,0.345,0.137,0.682,0.203,1.023c0.037,0.198,0.061,0.399,0.096,0.598c0.014,0.086,0.027,0.232,0.07,0.244
		c0.146,0.04,0.199-0.077,0.205-0.204c0.008-0.13,0.004-0.26,0.002-0.391c-0.006-0.211-0.035-0.424-0.02-0.633
		c0.035-0.458-0.064-0.937,0.201-1.365c0.07-0.113,0.021-0.239-0.113-0.279c-0.217-0.066-0.236-0.212-0.195-0.397
		c0.08-0.344-0.117-0.603-0.279-0.869c-0.18-0.297-0.406-0.572-0.543-0.886c-0.102-0.231-0.166-0.333-0.395-0.16
		c-0.027,0.02-0.074,0.021-0.111,0.018c-0.186-0.019-0.197,0.101-0.154,0.219c0.057,0.157,0.137,0.306,0.221,0.451
		c0.252,0.437,0.518,0.868,0.547,1.39c-0.088-0.017-0.174-0.035-0.26-0.053c0.018,0.128,0.031,0.255,0.047,0.383
		c0.041,0.002,0.082,0.003,0.123,0.005C363.347,176.008,363.376,175.896,363.403,175.781 M340.154,186.564
		c0.028,0.085,0.041,0.179,0.089,0.25c0.028,0.042,0.111,0.047,0.17,0.069c0.02-0.06,0.064-0.123,0.056-0.178
		c-0.033-0.204-0.187-0.153-0.32-0.134c0.066-0.202,0.113-0.414,0.203-0.605c0.164-0.344,0.353-0.677,0.535-1.012
		c0.034-0.064,0.084-0.121,0.136-0.173c0.227-0.226,0.471-0.435,0.681-0.676c0.446-0.515,0.852-1.068,1.318-1.562
		c0.388-0.41,0.873-0.728,1.259-1.139c0.575-0.613,1.016-1.323,1.309-2.119c0.14-0.38,0.323-0.745,0.456-1.128
		c0.121-0.348,0.4-0.65,0.317-1.061c-0.007-0.032,0.011-0.088,0.035-0.104c0.171-0.115,0.103-0.265,0.073-0.415
		c-0.021-0.103-0.009-0.212-0.029-0.315c-0.019-0.103-0.032-0.252-0.098-0.288c-0.067-0.036-0.206,0.024-0.295,0.075
		c-0.17,0.098-0.315,0.245-0.491,0.325c-0.191,0.086-0.408,0.111-0.61,0.175c-0.296,0.094-0.608,0.148-0.847,0.378
		c-0.032,0.031-0.104,0.041-0.153,0.034c-0.238-0.034-0.43,0.065-0.622,0.19c-0.236,0.153-0.454,0.127-0.67-0.066
		c-0.155-0.138-0.305-0.284-0.458-0.427c0.24-0.267,0.236-0.352-0.051-0.621c-0.045-0.042-0.097-0.076-0.143-0.117
		c-0.274-0.244-0.546-0.491-0.823-0.731c-0.067-0.058-0.149-0.1-0.228-0.142c-0.176-0.092-0.353-0.18-0.529-0.269
		c-0.001-0.028-0.002-0.057-0.003-0.085c0.068-0.036,0.138-0.071,0.252-0.13c-0.151-0.095-0.24-0.15-0.363-0.228
		c-0.008,0.144-0.013,0.237-0.018,0.329c-0.022,0.01-0.045,0.021-0.067,0.031c-0.067-0.117-0.166-0.225-0.197-0.351
		c-0.152-0.624-0.398-1.174-1.01-1.49c-0.077-0.04-0.135-0.166-0.153-0.261c-0.059-0.33-0.096-0.665-0.145-0.997
		c-0.007-0.051-0.031-0.101-0.053-0.149c-0.159-0.36-0.414-0.631-0.74-0.851c-0.19-0.129-0.28-0.322-0.173-0.565
		c0.019-0.044-0.008-0.126-0.041-0.17c-0.119-0.156-0.274-0.289-0.371-0.456c-0.234-0.403-0.43-0.829-0.667-1.23
		c-0.154-0.263-0.358-0.497-0.531-0.749c-0.074-0.108-0.127-0.231-0.188-0.347c0.024-0.013,0.05-0.025,0.074-0.037
		c0.051,0.074,0.097,0.151,0.15,0.222c0.144,0.188,0.285,0.377,0.438,0.557c0.085,0.101,0.182,0.126,0.289,0.004
		c0.138-0.153,0.297-0.146,0.425,0.014c0.215,0.27,0.436,0.537,0.629,0.822c0.195,0.288,0.354,0.601,0.545,0.892
		c0.062,0.097,0.165,0.176,0.266,0.236c0.452,0.27,0.729,0.649,0.761,1.183c0.027,0.43,0.201,0.784,0.589,0.977
		c0.306,0.153,0.507,0.37,0.672,0.663c0.147,0.264,0.349,0.499,0.543,0.733c0.252,0.306,0.498,0.605,0.463,1.04
		c-0.009,0.118,0.023,0.243,0.056,0.359c0.086,0.314,0.19,0.623,0.274,0.937c0.084,0.319,0.334,0.584,0.691,0.41
		c0.204-0.099,0.388-0.241,0.584-0.355c0.124-0.071,0.257-0.128,0.386-0.189c0.238-0.114,0.479-0.226,0.718-0.34
		c0.074-0.035,0.145-0.106,0.219-0.108c0.203-0.007,0.31-0.136,0.433-0.269c0.116-0.124,0.259-0.232,0.404-0.321
		c0.288-0.176,0.586-0.335,0.881-0.499c0.162-0.09,0.25-0.212,0.236-0.409c-0.005-0.072,0.036-0.184,0.092-0.218
		c0.286-0.171,0.575-0.342,0.88-0.474c0.189-0.082,0.328-0.152,0.371-0.383c0.021-0.116,0.145-0.256,0.256-0.302
		c0.168-0.07,0.255-0.164,0.26-0.335c0.006-0.199,0.123-0.316,0.292-0.373c0.164-0.055,0.18-0.144,0.15-0.299
		c-0.032-0.162-0.037-0.334-0.023-0.5c0.008-0.107,0.076-0.179,0.214-0.121c0.051,0.022,0.122-0.002,0.184-0.005
		c-0.01-0.063,0.001-0.143-0.033-0.186c-0.105-0.136-0.063-0.248,0.008-0.381c0.082-0.154,0.167-0.319,0.193-0.488
		c0.018-0.104-0.047-0.245-0.118-0.335c-0.094-0.117-0.241-0.189-0.344-0.301c-0.141-0.154-0.298-0.212-0.508-0.204
		c-0.471,0.016-0.795-0.253-0.903-0.717c-0.037-0.157-0.066-0.316-0.113-0.47c-0.016-0.047-0.079-0.078-0.12-0.116
		c-0.037,0.043-0.088,0.081-0.107,0.131c-0.04,0.105-0.046,0.226-0.095,0.325c-0.136,0.275-0.284,0.544-0.436,0.811
		c-0.029,0.055-0.102,0.138-0.138,0.13c-0.267-0.057-0.473,0.093-0.699,0.179c-0.215,0.081-0.427-0.05-0.445-0.252
		c-0.021-0.211-0.049-0.423-0.104-0.626c-0.021-0.073-0.133-0.121-0.204-0.18c-0.058,0.069-0.14,0.13-0.169,0.21
		c-0.033,0.092-0.019,0.2-0.024,0.301c-0.114-0.117-0.298-0.2-0.14-0.382c0.011-0.013,0.015-0.052,0.004-0.064
		c-0.119-0.14-0.216-0.33-0.368-0.406c-0.521-0.259-0.789-0.731-1.084-1.187c-0.015-0.023-0.025-0.069-0.014-0.086
		c0.104-0.145,0.192-0.375,0.323-0.404c0.16-0.035,0.397-0.127,0.553,0.067c0.201,0.252,0.381,0.522,0.597,0.759
		c0.116,0.126,0.286,0.206,0.44,0.292c0.103,0.057,0.224,0.081,0.328,0.134c0.261,0.135,0.501,0.284,0.817,0.322
		c0.238,0.029,0.406-0.083,0.608-0.118c0.128-0.021,0.224-0.063,0.258-0.216c0.034-0.15,0.183-0.176,0.274-0.053
		c0.066,0.091,0.111,0.202,0.146,0.31c0.068,0.208,0.198,0.331,0.421,0.321c0.336-0.015,0.67-0.041,1.005-0.063
		c0.068-0.005,0.152-0.044,0.202-0.017c0.218,0.119,0.415,0.032,0.617-0.032c0.065-0.02,0.129-0.047,0.193-0.069
		c0.222-0.077,0.443-0.157,0.666-0.229c0.111-0.036,0.228-0.053,0.34-0.088c0.259-0.081,0.526-0.429,0.766,0.029
		c0.01,0.017,0.042,0.02,0.059,0.035c0.219,0.209,0.435,0.396,0.727,0.537c0.267,0.128,0.458,0.369,0.809,0.196
		c-0.078,0.106-0.172,0.169-0.256,0.245c-0.047,0.042-0.108,0.148-0.104,0.153c0.268,0.224,0.542,0.443,0.819,0.656
		c0.023,0.019,0.076,0.007,0.111,0c0.305-0.062,0.521-0.527,0.377-0.795c-0.025-0.046-0.027-0.104-0.049-0.19
		c0.061,0.032,0.094,0.038,0.098,0.052c0.098,0.28,0.193,0.56,0.283,0.841c0.035,0.109,0.051,0.225,0.088,0.332
		c0.066,0.187,0.143,0.371,0.215,0.556c0.174,0.45,0.32,0.912,0.525,1.346c0.207,0.435,0.48,0.836,0.707,1.261
		c0.141,0.262,0.209,0.566,0.373,0.809c0.256,0.381,0.443,0.781,0.582,1.216c0.07,0.222,0.203,0.431,0.338,0.624
		c0.125,0.18,0.295,0.148,0.391-0.053c0.031-0.069,0.051-0.145,0.066-0.22c0.072-0.348,0.32-0.652,0.26-1.035
		c-0.004-0.025,0.027-0.054,0.033-0.084c0.029-0.128,0.1-0.266,0.076-0.385c-0.066-0.354-0.168-0.7-0.037-1.059
		c0.01-0.032-0.004-0.076-0.014-0.113c-0.107-0.408-0.217-0.814-0.322-1.223c-0.049-0.193-0.121-0.396,0.15-0.501
		c0.037-0.014,0.061-0.086,0.068-0.135c0.055-0.29,0.309-0.533,0.205-0.86c-0.004-0.011,0.012-0.027,0.018-0.042
		c0.086-0.286,0.189-0.568,0.256-0.859c0.064-0.283,0.018-0.618,0.156-0.852c0.209-0.361,0.232-0.682,0.117-1.063
		c-0.035-0.116,0.027-0.322,0.119-0.405c0.297-0.269,0.607-0.513,0.535-0.992c0.064,0.052,0.117,0.109,0.156,0.175
		c0.09,0.152,0.18,0.304,0.254,0.464c0.156,0.333,0.605,0.434,0.666,0.844c0.004,0.027,0.063,0.042,0.088,0.069
		c0.051,0.055,0.113,0.109,0.145,0.175c0.146,0.311,0.311,0.619,0.299,0.98c-0.002,0.06,0,0.131,0.027,0.18
		c0.043,0.074,0.113,0.188,0.164,0.184c0.078-0.004,0.191-0.084,0.213-0.155c0.047-0.15,0.049-0.315,0.061-0.474
		c0.008-0.084,0.002-0.169,0.002-0.253c0.02-0.002,0.041-0.004,0.061-0.006c0.031,0.059,0.076,0.114,0.094,0.177
		c0.221,0.795,0.639,1.525,0.768,2.347c0.084,0.542,0.137,1.089,0.213,1.633c0.01,0.086,0.039,0.181,0.09,0.249
		c0.248,0.325,0.381,0.689,0.439,1.091c0.084,0.559,0.113,1.131,0.396,1.646c0.076,0.141,0.154,0.193,0.314,0.141
		c0-0.065,0.006-0.126,0-0.185c-0.057-0.456-0.131-0.912-0.168-1.37c-0.037-0.463-0.164-0.87-0.531-1.18
		c-0.035-0.031-0.053-0.092-0.064-0.143c-0.051-0.191-0.084-0.387-0.143-0.576c-0.043-0.137-0.141-0.26-0.162-0.398
		c-0.109-0.679-0.201-1.361-0.297-2.042c-0.002-0.016,0.02-0.035,0.012-0.024c0.102,0.075,0.205,0.137,0.289,0.221
		c0.076,0.079,0.135,0.181,0.193,0.276c0.053,0.083,0.105,0.168,0.146,0.257c0.063,0.141,0.143,0.281,0.168,0.43
		c0.031,0.196,0.088,0.36,0.285,0.529c0.018-0.12,0.037-0.188,0.035-0.256c-0.018-0.45-0.07-0.9-0.053-1.347
		c0.025-0.617-0.104-1.208-0.25-1.794c-0.129-0.522-0.332-1.016-0.631-1.475c-0.213-0.33-0.385-0.693-0.531-1.059
		c-0.113-0.282-0.166-0.59-0.225-0.89c-0.033-0.178-0.025-0.365-0.037-0.549c0.021-0.005,0.043-0.011,0.064-0.017
		c0.055,0.144,0.123,0.283,0.16,0.431c0.07,0.289,0.117,0.584,0.184,0.874c0.014,0.053,0.063,0.109,0.109,0.14
		c0.039,0.024,0.111,0.032,0.148,0.01c0.033-0.02,0.064-0.096,0.053-0.134c-0.113-0.355-0.23-0.71-0.359-1.06
		c-0.059-0.16-0.178-0.302-0.213-0.465c-0.094-0.433-0.137-0.877-0.238-1.307c-0.111-0.468-0.217-0.948-0.412-1.382
		c-0.426-0.943-0.887-1.873-1.375-2.785c-0.33-0.614-0.695-1.218-1.113-1.774c-0.498-0.662-1.037-1.293-1.436-2.022
		c-0.113-0.205-0.209-0.268-0.418-0.074c-0.16-0.286-0.313-0.548-0.457-0.814c-0.139-0.252-0.225-0.546-0.408-0.754
		c-0.566-0.637-1.152-1.259-1.76-1.854c-0.6-0.585-1.227-1.141-1.859-1.69c-1.647-1.432-3.438-2.665-5.359-3.696
		c-0.984-0.529-1.998-1.013-3.023-1.458c-0.871-0.379-1.774-0.685-2.671-1.002c-0.556-0.196-1.124-0.353-1.688-0.528
		c-0.204-0.063-0.405-0.135-0.612-0.182c-0.054-0.012-0.127,0.056-0.19,0.087c0.053,0.043,0.1,0.096,0.158,0.127
		c0.146,0.076,0.296,0.142,0.444,0.212c-0.01,0.019-0.02,0.038-0.029,0.057c-0.068,0.024-0.137,0.048-0.205,0.073
		c0.112,0.274,0.188,0.284,0.395,0.078c0.221,0.094,0.431,0.242,0.654,0.265c0.35,0.035,0.566,0.237,0.816,0.475
		c-0.228-0.058-0.425-0.126-0.627-0.149c-0.076-0.009-0.166,0.084-0.25,0.131c0.063,0.061,0.119,0.136,0.192,0.181
		c0.078,0.049,0.173,0.069,0.26,0.102c-0.007,0.023-0.015,0.047-0.021,0.07c-0.08,0.011-0.226,0.01-0.23,0.035
		c-0.062,0.35-0.204,0.255-0.391,0.094c-0.047-0.042-0.16,0.003-0.234-0.02c-0.226-0.069-0.443-0.172-0.674-0.222
		c-0.133-0.029-0.307-0.023-0.419,0.042c-0.138,0.081-0.248,0.118-0.405,0.079c-0.072-0.019-0.164,0.038-0.247,0.061
		c0.053,0.064,0.093,0.149,0.158,0.189c0.153,0.091,0.32,0.159,0.5,0.246c-0.247,0.235-0.097,0.478-0.026,0.644
		c0.074,0.174,0.313,0.279,0.494,0.425c-0.035,0.033-0.085,0.078-0.135,0.122c-0.161,0.145-0.147,0.231,0.06,0.307
		c0.139,0.052,0.282,0.089,0.432,0.134c-0.171,0.118-0.425-0.139-0.515,0.162c-0.086-0.038-0.157-0.068-0.229-0.099
		c-0.01,0.012-0.021,0.023-0.031,0.035c0.097,0.16,0.193,0.32,0.29,0.48c-0.021,0.017-0.042,0.033-0.062,0.05
		c-0.102-0.112-0.196-0.228-0.305-0.333c-0.051-0.05-0.12-0.086-0.188-0.113c-0.113-0.044-0.23-0.083-0.348-0.113
		c-0.063-0.015-0.133-0.017-0.193-0.002c-0.015,0.004-0.033,0.103-0.014,0.137c0.152,0.268,0.343,0.508,0.485,0.788
		c0.106,0.207,0.433,0.308,0.67,0.436c0.137,0.073,0.293,0.105,0.44,0.156c-0.008,0.025-0.017,0.05-0.026,0.075
		c-0.087-0.017-0.174-0.039-0.262-0.052c-0.295-0.046-0.59-0.092-0.886-0.132c-0.254-0.034-0.508-0.062-0.764-0.087
		c-0.048-0.005-0.107,0.002-0.143,0.029c-0.019,0.015-0.012,0.108,0.01,0.122c0.103,0.064,0.21,0.147,0.323,0.161
		c0.234,0.029,0.39,0.124,0.396,0.303c-0.031-0.005-0.068,0.001-0.087-0.015c-0.135-0.128-0.234-0.109-0.364,0.03
		c-0.104,0.109-0.261,0.169-0.397,0.243c-0.024,0.014-0.091,0.005-0.102-0.013c-0.178-0.322-0.293-0.145-0.443,0.033
		c-0.091,0.108-0.242,0.162-0.353,0.255c-0.073,0.061-0.129,0.145-0.183,0.226c-0.049,0.077-0.083,0.233-0.126,0.234
		c-0.106,0.003-0.215-0.064-0.323-0.103c0.026-0.016,0.053-0.032,0.077-0.048c-0.009-0.11,0.01-0.301-0.032-0.316
		c-0.208-0.071-0.433-0.096-0.65-0.137c-0.015,0.027-0.031,0.054-0.046,0.08c0.183,0.268,0.366,0.535,0.581,0.849
		c-0.258-0.044-0.467-0.19-0.648,0.096c-0.183,0.29-0.222,0.266-0.084,0.62c-0.201-0.059-0.372-0.099-0.534-0.161
		c-0.118-0.046-0.248-0.086-0.288,0.055c-0.019,0.067,0.088,0.182,0.157,0.254c0.055,0.056,0.143,0.078,0.255,0.135
		c-0.308,0.076-0.729-0.12-0.796-0.371c-0.063-0.233-0.163-0.403-0.39-0.49c-0.003-0.002,0.002-0.026,0.006-0.063
		c0.091,0.02,0.177,0.044,0.265,0.059c0.279,0.045,0.559,0.103,0.84,0.123c0.207,0.014,0.516-0.229,0.513-0.397
		c-0.005-0.214-0.156-0.336-0.353-0.403c-0.267-0.093-0.532-0.19-0.801-0.281c-0.145-0.049-0.29-0.118-0.438-0.13
		c-0.207-0.016-0.412,0.006-0.581-0.16c-0.035-0.035-0.129-0.012-0.197-0.013c-0.064-0.002-0.129-0.001-0.201-0.001
		c0.016-0.094,0.027-0.165,0.041-0.246c-0.15-0.027-0.284-0.062-0.419-0.074c-0.252-0.023-0.511-0.072-0.757-0.037
		c-0.205,0.029-0.398,0.155-0.588,0.254c-0.153,0.079-0.291,0.188-0.457,0.026c-0.02-0.019-0.096-0.019-0.104-0.005
		c-0.116,0.225-0.529,0.146-0.51,0.531c-0.115-0.224-0.27-0.234-0.433-0.116c-0.138,0.101-0.258,0.224-0.386,0.337
		c0.016,0.017,0.03,0.033,0.047,0.05c0.031-0.018,0.062-0.046,0.096-0.053c0.06-0.011,0.123-0.01,0.184-0.013
		c-0.018,0.066-0.019,0.148-0.059,0.195c-0.069,0.08-0.166,0.136-0.246,0.207c-0.159,0.143-0.321,0.283-0.47,0.436
		c-0.327,0.334-0.651,0.664-1.145,0.743c-0.045,0.007-0.082,0.061-0.125,0.09c-0.061,0.039-0.12,0.083-0.186,0.112
		c-0.236,0.104-0.479,0.198-0.711,0.308c-0.064,0.03-0.128,0.097-0.154,0.162c-0.127,0.32-0.253,0.642-0.358,0.97
		c-0.115,0.364,0.077,0.683,0.454,0.719c0.153,0.014,0.324-0.062,0.473-0.13c0.212-0.099,0.409-0.228,0.629-0.353
		c0.028,0.075,0.05,0.113,0.059,0.155c0.064,0.311,0.11,0.626,0.194,0.932c0.046,0.17-0.005,0.24-0.15,0.297
		c-0.141,0.055-0.273,0.133-0.417,0.183c-0.055,0.02-0.126-0.008-0.151-0.011c0.085-0.167,0.158-0.286,0.209-0.415
		c0.031-0.084,0.032-0.181,0.045-0.273c0.009-0.07,0.015-0.141,0.021-0.211c-0.078,0.004-0.161-0.009-0.231,0.015
		c-0.105,0.036-0.204,0.093-0.303,0.148c-0.104,0.06-0.222,0.112-0.306,0.196c-0.288,0.291-0.158,0.667-0.167,1.008
		c-0.005,0.177-0.058,0.365-0.207,0.376c-0.238,0.016-0.485-0.007-0.713,0.048c-0.22,0.053-0.477,0.134-0.619,0.291
		c-0.265,0.296-0.534,0.552-0.931,0.628c-0.127,0.024-0.292,0.125-0.38-0.077c-0.085-0.194,0.086-0.231,0.191-0.306
		c0.02-0.014,0.038-0.027,0.056-0.042c0.218-0.194,0.192-0.366-0.068-0.496c-0.051-0.025-0.136-0.075-0.132-0.104
		c0.036-0.303-0.061-0.569-0.151-0.853c-0.064-0.202,0.046-0.46-0.217-0.604c0.188-0.153,0.346-0.273,0.492-0.405
		c0.051-0.046,0.074-0.123,0.109-0.186c-0.071-0.035-0.14-0.082-0.216-0.102c-0.074-0.02-0.157-0.013-0.256-0.019
		c0.171-0.148,0.323-0.265,0.454-0.402c0.051-0.053,0.057-0.149,0.083-0.226c-0.077,0.036-0.154,0.069-0.229,0.108
		c-0.068,0.036-0.142,0.119-0.199,0.109c-0.285-0.049-0.485,0.078-0.672,0.267c-0.056,0.056-0.145,0.077-0.219,0.115
		c-0.013-0.022-0.024-0.043-0.037-0.065c0.098-0.114,0.313-0.158,0.243-0.405c-0.087,0.037-0.165,0.062-0.235,0.1
		c-0.268,0.141-0.292,0.242-0.16,0.502c0.025,0.051-0.004,0.142-0.031,0.205c-0.039,0.09-0.098,0.171-0.148,0.256
		c0.012,0.005,0.021,0.01,0.032,0.015c-0.056,0.043-0.111,0.086-0.168,0.129c0.075,0.096,0.149,0.191,0.236,0.303
		c-0.051,0.096-0.18,0.239,0.082,0.292c0.21,0.043,0.321,0.336,0.171,0.499c-0.057,0.062-0.191,0.105-0.271,0.085
		c-0.26-0.064-0.312-0.045-0.287,0.214c0.016,0.181-0.05,0.259-0.221,0.275c-0.052,0.005-0.116,0.011-0.152,0.042
		c-0.054,0.045-0.105,0.109-0.12,0.174c-0.005,0.025,0.087,0.079,0.141,0.11c0.063,0.035,0.131,0.06,0.213,0.097
		c-0.251,0.147-0.466,0.263-0.67,0.396c-0.063,0.041-0.098,0.124-0.146,0.188c0.083,0.008,0.17,0.035,0.249,0.022
		c0.24-0.04,0.505,0.033,0.72-0.142c0.012-0.01,0.044,0.008,0.066,0.01c0.452,0.027,0.902,0.153,1.358,0.03
		c0.016-0.004,0.038,0.017,0.07,0.033c-0.084,0.192-0.169,0.358-0.416,0.371c-0.084,0.004-0.176,0.058-0.244,0.113
		c-0.201,0.165-0.24,0.162-0.43-0.034c-0.052-0.052-0.153-0.11-0.206-0.091c-0.059,0.02-0.09,0.124-0.127,0.193
		c-0.011,0.018-0.006,0.046-0.004,0.069c0.017,0.203-0.104,0.235-0.264,0.203c-0.065-0.013-0.127-0.064-0.192-0.068
		c-0.187-0.013-0.378-0.036-0.558-0.001c-0.068,0.014-0.144,0.169-0.151,0.265c-0.006,0.066,0.09,0.158,0.16,0.208
		c0.118,0.082,0.315,0.107,0.368,0.213c0.121,0.238,0.276,0.531,0.23,0.765c-0.074,0.379-0.286,0.734-0.465,1.086
		c-0.081,0.158-0.239,0.207-0.418,0.117c-0.061-0.03-0.134-0.037-0.2-0.051c-0.446-0.099-0.894-0.196-1.339-0.295
		c-0.037-0.008-0.076-0.022-0.106-0.044c-0.131-0.099-0.259-0.145-0.424-0.058c-0.131,0.068-0.286,0.091-0.418,0.158
		c-0.045,0.023-0.069,0.118-0.075,0.183c-0.05,0.466-0.16,0.913-0.424,1.306c-0.115,0.171-0.272,0.313-0.387,0.483
		c-0.063,0.093-0.14,0.249-0.103,0.324c0.133,0.27,0.034,0.483-0.101,0.7c-0.08,0.127-0.073,0.224,0.09,0.253
		c0.164,0.029,0.334,0.029,0.495,0.066c0.091,0.02,0.23,0.079,0.242,0.141c0.055,0.294,0.217,0.612-0.105,0.868
		c-0.063,0.05-0.096,0.138-0.145,0.206c-0.184,0.254-0.392,0.453-0.716,0.544c-0.257,0.072-0.503,0.216-0.724,0.37
		c-0.144,0.099-0.249,0.266-0.346,0.418c-0.129,0.205-0.314,0.42-0.327,0.64c-0.02,0.314-0.175,0.498-0.378,0.671
		c-0.323,0.275-0.661,0.53-1.121,0.513c-0.198-0.007-0.322,0.108-0.435,0.258c-0.113,0.152-0.219,0.346-0.375,0.422
		c-0.271,0.132-0.445,0.332-0.557,0.587c-0.125,0.288-0.318,0.497-0.58,0.66c-0.054,0.034-0.087,0.102-0.127,0.156
		c-0.201,0.269-0.387,0.55-0.604,0.804c-0.226,0.261-0.289,0.474-0.148,0.785c0.104,0.23,0.104,0.44-0.041,0.654
		c-0.04,0.058-0.064,0.147-0.055,0.216c0.073,0.479,0.036,0.933-0.253,1.344c-0.025,0.036-0.026,0.088-0.045,0.13
		c-0.128,0.281-0.149,0.627-0.462,0.796c-0.14,0.076-0.108,0.151-0.074,0.28c0.06,0.23,0.144,0.492,0.087,0.706
		c-0.139,0.519-0.101,0.721,0.356,1.09c0.021,0.018,0.049,0.05,0.047,0.072c-0.048,0.381,0.235,0.649,0.422,0.881
		c0.392,0.49,0.341,1.081,0.534,1.609c0.026,0.07,0.065,0.142,0.118,0.193c0.11,0.105,0.248,0.185,0.35,0.298
		c0.348,0.388,0.685,0.788,1.027,1.181c0.111,0.127,0.229,0.249,0.344,0.373c0.322,0.35,0.672,0.395,1.139,0.243
		c0.37-0.12,0.81-0.104,1.204-0.049c0.304,0.042,0.586,0.243,0.88,0.367c0.067,0.029,0.152,0.059,0.218,0.043
		c0.236-0.056,0.468-0.134,0.702-0.2c0.394-0.11,0.781-0.267,1.181-0.312c0.388-0.044,0.789,0.02,1.183,0.052
		c0.445,0.035,0.646,0.35,0.743,0.732c0.126,0.504,0.475,0.691,0.976,0.538c0.228-0.07,0.484-0.051,0.729-0.065
		c0.039-0.002,0.097,0.026,0.121,0.059c0.132,0.172,0.315,0.3,0.448,0.456c0.273,0.321,0.182,0.723,0.051,1.089
		c-0.055,0.155-0.239,0.274-0.081,0.466c0.015,0.018-0.013,0.071-0.022,0.107c-0.03,0.116-0.073,0.231-0.089,0.35
		c-0.019,0.134-0.032,0.249-0.188,0.311c-0.052,0.021-0.11,0.17-0.086,0.216c0.176,0.321,0.344,0.654,0.572,0.937
		c0.293,0.363,0.657,0.669,0.957,1.028c0.157,0.187,0.249,0.432,0.354,0.657c0.071,0.151,0.102,0.32,0.174,0.47
		c0.156,0.323,0.338,0.634,0.486,0.96c0.034,0.075-0.022,0.192-0.041,0.289c-0.016,0.089-0.078,0.195-0.049,0.262
		c0.104,0.237,0.235,0.464,0.364,0.69c0.147,0.26,0.034,0.741-0.171,0.945c-0.18,0.178-0.336,0.398-0.438,0.628
		c-0.134,0.305-0.207,0.638-0.302,0.96c-0.012,0.042-0.007,0.091-0.003,0.136c0.012,0.159,0.01,0.323,0.046,0.477
		c0.048,0.203,0.096,0.416,0.198,0.593c0.125,0.217,0.311,0.398,0.462,0.601c0.271,0.362,0.533,0.73,0.804,1.091
		c0.104,0.138,0.158,0.275,0.171,0.458c0.019,0.238,0.118,0.471,0.187,0.705c0.029,0.101,0.072,0.2,0.101,0.302
		c0.103,0.364,0.212,0.732,0.502,0.991c0.379,0.337,0.773,0.653,0.984,1.134c0.028,0.066,0.106,0.11,0.156,0.168
		c0.095,0.111,0.197,0.218,0.271,0.342c0.029,0.048,0.013,0.181-0.021,0.199c-0.153,0.079-0.104,0.166-0.035,0.26
		c0.148,0.201,0.309,0.381,0.554,0.484c0.24,0.101,0.453,0.254,0.728,0.073c0.085-0.055,0.225-0.024,0.34-0.032
		c0.099-0.007,0.215,0.017,0.295-0.026c0.337-0.178,0.7-0.131,1.041-0.092c0.515,0.058,1.001-0.066,1.457-0.226
		c0.735-0.259,1.371-0.714,1.924-1.275c0.182-0.186,0.361-0.393,0.582-0.518c0.395-0.223,0.467-0.626,0.638-0.978
		c0.017-0.033,0.004-0.099-0.02-0.132c-0.137-0.183-0.016-0.269,0.129-0.328c0.283-0.117,0.573-0.218,0.857-0.33
		c0.213-0.084,0.417-0.194,0.467-0.437c0.101-0.502,0.04-0.986-0.221-1.437c-0.088-0.152-0.055-0.25,0.11-0.354
		c0.328-0.208,0.658-0.428,0.939-0.694c0.281-0.265,0.581-0.498,0.941-0.602c0.52-0.15,0.884-0.477,1.2-0.882
		c0.158-0.203,0.23-0.413,0.21-0.698c-0.04-0.525-0.007-1.056,0.021-1.584c0.011-0.186-0.015-0.323-0.19-0.395
		c-0.162-0.066-0.236-0.179-0.249-0.351c-0.007-0.082-0.062-0.16-0.069-0.242c-0.024-0.254-0.123-0.546-0.033-0.756
		c0.117-0.275,0.002-0.376-0.162-0.512C340.083,186.809,340.003,186.702,340.154,186.564 M299.292,167.833
		c-0.029,0.002-0.06,0.004-0.088,0.006c-0.013,0.101-0.02,0.202-0.035,0.302c-0.087,0.552-0.201,1.1-0.258,1.654
		c-0.077,0.755-0.133,1.514-0.159,2.272c-0.065,1.774-0.077,3.549,0.148,5.314c0.102,0.789,0.239,1.574,0.379,2.358
		c0.104,0.581,0.22,1.161,0.363,1.732c0.155,0.617,0.341,1.226,0.529,1.833c0.192,0.621,0.376,1.248,0.616,1.852
		c0.345,0.869,0.694,1.741,1.117,2.574c0.64,1.258,1.342,2.485,2.022,3.722c0.09,0.163,0.219,0.303,0.33,0.454l0.079-0.051
		c-0.144-0.301-0.281-0.604-0.429-0.903c-0.183-0.371-0.382-0.733-0.551-1.109c-0.04-0.09-0.029-0.25,0.027-0.326
		c0.098-0.134,0.214-0.018,0.319,0.045c0.168,0.1,0.236,0.067,0.262-0.124c0.01-0.075,0.008-0.153-0.003-0.228
		c-0.036-0.24-0.075-0.479-0.119-0.717c-0.025-0.135-0.063-0.267-0.094-0.401c-0.027-0.111-0.061-0.22-0.082-0.332
		c-0.077-0.403-0.137-0.81-0.229-1.209c-0.083-0.358-0.207-0.706-0.301-1.062c-0.019-0.072,0.008-0.161,0.029-0.239
		c0.043-0.164,0.098-0.324,0.143-0.487c0.037-0.132,0.053-0.271,0.104-0.398c0.062-0.155,0.171-0.293,0.219-0.451
		c0.071-0.232,0.167-0.481,0.143-0.712c-0.047-0.447-0.154-0.89-0.27-1.326c-0.044-0.166-0.164-0.319-0.273-0.459
		c-0.086-0.111-0.233-0.177-0.309-0.293c-0.148-0.231-0.258-0.488-0.398-0.726c-0.174-0.297-0.317-0.63-0.557-0.864
		c-0.216-0.212-0.493-0.359-0.625-0.654c-0.011-0.024-0.044-0.054-0.068-0.055c-0.18-0.009-0.192-0.122-0.202-0.269
		c-0.006-0.111-0.054-0.224-0.102-0.327c-0.13-0.278-0.239-0.574-0.417-0.819c-0.175-0.242-0.319-0.487-0.406-0.77
		c-0.004-0.014-0.021-0.024-0.023-0.038c-0.056-0.225-0.181-0.464-0.142-0.672c0.038-0.212,0.062-0.391-0.01-0.595
		c-0.042-0.119-0.031-0.257-0.042-0.387c-0.054-0.618-0.091-1.238-0.169-1.854c-0.033-0.261-0.103-0.544-0.243-0.761
		c-0.201-0.313-0.229-0.641-0.243-0.985c-0.019-0.497-0.035-0.995-0.047-1.493c-0.002-0.075,0.027-0.15,0.036-0.226
		c0.057-0.452,0.202-0.898,0.099-1.363C299.333,168.124,299.315,167.978,299.292,167.833 M320.319,145.211
		c-0.095,0.024-0.18,0.072-0.255,0.059c-0.357-0.061-0.653,0.134-0.946,0.263c-0.343,0.151-0.63,0.423-0.954,0.619
		c-0.658,0.396-1.198,0.929-1.732,1.468c-0.047,0.047-0.103,0.158-0.082,0.184c0.115,0.15,0.017,0.252-0.041,0.378
		c-0.031,0.069-0.007,0.165-0.008,0.248c0.085-0.003,0.177,0.014,0.253-0.013c0.128-0.045,0.248-0.116,0.369-0.18
		c0.695-0.363,1.387-0.733,2.087-1.085c0.157-0.079,0.383-0.179,0.512-0.122c0.415,0.182,0.78,0.038,1.156-0.08
		c0.239-0.075,0.472-0.171,0.71-0.254c0.033-0.011,0.074-0.004,0.11,0.002c0.229,0.04,0.462,0.122,0.688,0.113
		c0.334-0.013,0.665-0.09,0.996-0.143c0.109-0.017,0.215-0.047,0.323-0.07c-0.067-0.092-0.134-0.184-0.199-0.277
		c-0.007-0.01-0.005-0.028-0.01-0.063c0.079-0.051,0.163-0.106,0.208-0.134c0.04,0.124,0.042,0.266,0.113,0.326
		c0.134,0.112,0.257,0.002,0.358-0.099c0.032-0.032,0.054-0.076,0.089-0.105c0.227-0.19,0.454-0.379,0.686-0.562
		c0.03-0.023,0.09-0.008,0.133-0.019c0.138-0.035,0.275-0.074,0.412-0.112c-0.008-0.028-0.016-0.056-0.023-0.083
		c0.262,0.137,0.363-0.069,0.479-0.217c0.087,0.044,0.157,0.08,0.231,0.118c0.092-0.21,0.172-0.392,0.252-0.574
		c0.309,0.122,0.428,0.076,0.596-0.206c0.041-0.069,0.092-0.164,0.156-0.183c0.541-0.16,1.087-0.309,1.634-0.454
		c0.104-0.027,0.234-0.014,0.203-0.176c-0.024-0.134-0.117-0.156-0.245-0.128c-0.078,0.016-0.164-0.011-0.247-0.019l0.008-0.076
		c0.049-0.008,0.098-0.022,0.146-0.024c0.17-0.007,0.186-0.129,0.201-0.257c0.017-0.131-0.011-0.236-0.159-0.257
		c-0.299-0.041-0.581-0.194-0.902-0.104c-0.15,0.043-0.302-0.011-0.364-0.203c0.062-0.032,0.117-0.058,0.169-0.088
		c0.059-0.035,0.116-0.075,0.175-0.111c0.185-0.112,0.195-0.22,0.018-0.345c-0.165-0.117-0.351-0.207-0.517-0.324
		c-0.075-0.052-0.161-0.134-0.173-0.213c-0.008-0.052,0.104-0.126,0.167-0.185c0.055-0.051,0.135-0.084,0.174-0.144
		c0.031-0.049,0.031-0.13,0.016-0.19c-0.006-0.019-0.104-0.018-0.158-0.018c-0.098,0-0.225,0.048-0.286,0.004
		c-0.214-0.153-0.406-0.066-0.612,0.001c-0.218,0.07-0.444,0.186-0.662,0.175c-0.415-0.021-0.796,0.093-1.187,0.181
		c-0.261,0.059-0.524,0.113-0.784,0.179c-0.492,0.124-0.982,0.253-1.474,0.384c-0.031,0.008-0.056,0.04-0.098,0.071
		c0.069,0.059,0.122,0.105,0.22,0.188c-0.131,0-0.218,0.026-0.275-0.004c-0.294-0.15-0.557,0.03-0.813,0.093
		c-0.413,0.103-0.806,0.294-1.204,0.452c-0.691,0.273-1.38,0.549-2.07,0.825c-0.012,0.005-0.017,0.024-0.059,0.084
		c0.056,0.019,0.121,0.042,0.196,0.067c-0.188,0.15-0.333,0.25-0.458,0.372c-0.039,0.039-0.058,0.16-0.028,0.197
		c0.141,0.175,0.066,0.299-0.079,0.398c-0.196,0.134-0.416,0.234-0.603,0.379c-0.247,0.192-0.476,0.409-0.703,0.625
		c-0.037,0.034-0.023,0.121-0.035,0.183c0.064-0.003,0.149,0.02,0.189-0.013c0.127-0.105,0.255-0.163,0.421-0.111
		c0.023,0.007,0.06-0.013,0.085-0.027c0.292-0.164,0.582-0.329,0.879-0.497c0.041,0.03,0.1,0.103,0.135,0.094
		c0.311-0.088,0.646-0.141,0.919-0.3c0.332-0.195,0.604-0.488,0.913-0.727c0.073-0.057,0.186-0.06,0.275-0.099
		c0.296-0.129,0.6-0.247,0.882-0.401c0.263-0.142,0.491-0.348,0.755-0.486c0.428-0.224,0.963-0.244,1.273-0.685
		c0.05-0.072,0.112-0.136,0.168-0.203c-0.096-0.015-0.192-0.029-0.287-0.046c-0.089-0.016-0.177-0.037-0.265-0.056
		c0.007-0.034,0.015-0.068,0.021-0.102c0.282,0.034,0.563,0.067,0.901,0.107c-0.1,0.093-0.16,0.139-0.207,0.196
		c-0.03,0.037-0.059,0.091-0.054,0.135c0.002,0.025,0.065,0.057,0.106,0.066c0.193,0.041,0.598-0.153,0.728-0.308
		c0.091-0.109,0.225-0.182,0.339-0.272l0.04,0.057c-0.097,0.102-0.192,0.203-0.289,0.307c0.252,0.244,0.539-0.179,0.77,0.117
		c-0.179,0.07-0.366,0.101-0.547,0.152c-0.182,0.051-0.36,0.118-0.536,0.191c-0.027,0.012-0.053,0.103-0.036,0.136
		c0.08,0.164-0.021,0.251-0.133,0.323c-0.121,0.078-0.251,0.148-0.385,0.203c-0.517,0.211-1.039,0.412-1.554,0.627
		c-0.105,0.043-0.194,0.127-0.285,0.199c-0.069,0.055-0.169,0.185-0.189,0.173c-0.232-0.143-0.402,0.081-0.606,0.099
		C320.295,144.817,320.243,144.953,320.319,145.211 M306.05,152.937c0.014,0.004,0.031,0.014,0.041,0.01
		c0.028-0.012,0.055-0.027,0.078-0.047c0.313-0.275,0.57-0.626,1.005-0.743c0.055-0.015,0.093-0.096,0.135-0.15
		c0.266-0.346,0.594-0.59,1.045-0.626c0.027-0.002,0.058,0.033,0.114,0.068c-0.302,0.162-0.672,0.219-0.734,0.69
		c0.129-0.047,0.208-0.077,0.287-0.105c0.063-0.021,0.134-0.07,0.189-0.057c0.438,0.102,0.737-0.112,0.985-0.431
		c0.022-0.028-0.013-0.15-0.052-0.169c-0.181-0.091-0.151-0.192-0.06-0.333c0.238-0.364,0.586-0.598,0.887-0.77
		c0.118,0.054,0.195,0.091,0.273,0.127c0.061-0.158,0.123-0.315,0.179-0.475c0.003-0.009-0.069-0.064-0.081-0.056
		c-0.19,0.116-0.27-0.073-0.412-0.117c0.206-0.069,0.387-0.13,0.598-0.201c0.011,0.156,0.023,0.291,0.025,0.427
		c0.002,0.231,0.056,0.274,0.28,0.196c0.087-0.03,0.166-0.081,0.254-0.109c0.044-0.014,0.099,0.002,0.148,0.004l0.014,0.064
		c-0.168,0.099-0.339,0.194-0.504,0.299c-0.354,0.225-0.703,0.457-1.058,0.682c-0.146,0.093-0.168,0.197-0.078,0.347
		c0.155,0.256,0.144,0.278-0.13,0.385c-0.017,0.007-0.025,0.035-0.028,0.038c0.039,0.109,0.084,0.203,0.108,0.302
		c0.019,0.068,0.011,0.142,0.015,0.213c0.071-0.029,0.164-0.039,0.212-0.091c0.157-0.174,0.296-0.367,0.448-0.545
		c0.144-0.166,0.299-0.321,0.442-0.486c0.026-0.03,0.049-0.1,0.033-0.125c-0.192-0.293,0.108-0.404,0.233-0.523
		c0.274-0.26,0.621-0.441,0.901-0.696c0.35-0.32,0.664-0.681,0.992-1.026c0.024-0.026,0.028-0.071,0.048-0.103
		c0.112-0.188,0.202-0.396,0.346-0.557c0.154-0.173,0.358-0.303,0.542-0.45c0.425-0.338,0.855-0.671,1.275-1.015
		c0.09-0.074,0.146-0.188,0.22-0.283c-0.155-0.116-0.247,0.036-0.368,0.08c-0.144,0.053-0.25,0.231-0.471,0.148
		c0.538-0.378,1.049-0.746,1.57-1.099c0.301-0.204,0.583-0.424,0.761-0.748c0.03-0.055,0.008-0.14,0.009-0.211
		c-0.057,0.021-0.136,0.025-0.17,0.066c-0.256,0.31-0.619,0.473-0.968,0.6c-0.711,0.259-1.273,0.759-1.933,1.094
		c-0.162,0.083-0.341,0.138-0.512,0.206c-0.012-0.024-0.022-0.049-0.035-0.073c0.49-0.273,0.958-0.574,1.377-1.004
		C313.581,145.481,306.324,151.841,306.05,152.937 M345.776,190.149c0.065-0.334-0.084-0.589-0.228-0.844
		c-0.11-0.196-0.231-0.2-0.354-0.007c-0.039,0.063-0.062,0.141-0.071,0.215c-0.025,0.171-0.097,0.297-0.259,0.38
		c-0.104,0.053-0.254,0.138-0.266,0.225c-0.05,0.359-0.34,0.52-0.563,0.725c-0.286,0.263-0.646,0.412-1.017,0.533
		c-0.213,0.069-0.454,0.122-0.461,0.425c-0.001,0.033-0.035,0.069-0.062,0.095c-0.228,0.225-0.236,0.495-0.135,0.768
		c0.128,0.347,0.063,0.645-0.167,0.921c-0.083,0.1-0.165,0.201-0.252,0.298c-0.218,0.241-0.349,0.5-0.225,0.837
		c0.03,0.081,0.03,0.185,0.01,0.271c-0.122,0.524,0.398,0.84,0.818,0.719c0.518-0.149,0.981-0.389,1.229-0.942
		c0.297-0.663,0.665-1.294,0.982-1.949c0.178-0.369,0.313-0.758,0.47-1.137c0.018-0.041,0.053-0.074,0.072-0.114
		c0.061-0.133,0.117-0.269,0.18-0.401c0.026-0.054,0.052-0.131,0.1-0.15c0.208-0.088,0.284-0.22,0.249-0.455
		C345.806,190.418,345.792,190.274,345.776,190.149 M321.385,148.366c-0.099,0.035-0.165,0.049-0.22,0.08
		c-0.104,0.059-0.126,0.13-0.013,0.208c0.111,0.076,0.212,0.171,0.331,0.231c0.102,0.05,0.225,0.097,0.332,0.087
		c0.257-0.023,0.517-0.06,0.765-0.129c0.224-0.062,0.455-0.144,0.642-0.275c0.084-0.059,0.057-0.264,0.097-0.398
		c0.054-0.179-0.035-0.219-0.185-0.218c-0.323,0.001-0.646,0-0.929,0c-0.062-0.133-0.113-0.3-0.141-0.296
		c-0.206,0.031-0.408,0.094-0.656,0.16c0.109,0.118,0.162,0.175,0.229,0.246c-0.158,0.011-0.293,0.02-0.479,0.032
		C321.256,148.211,321.304,148.268,321.385,148.366 M320.724,153.668c-0.141,0.095-0.251,0.177-0.368,0.248
		c-0.152,0.093-0.265,0.212-0.179,0.394c0.086,0.18,0.255,0.165,0.421,0.117c0.123-0.036,0.247-0.097,0.37-0.098
		c0.449-0.005,0.74-0.225,0.874-0.636c0.044-0.137,0.089-0.22,0.222-0.283c0.212-0.101,0.286-0.424,0.136-0.541
		c-0.241-0.188-0.677-0.143-0.815,0.098c-0.083,0.145-0.178,0.162-0.324,0.125c-0.072-0.018-0.207-0.014-0.228,0.025
		C320.748,153.281,320.542,153.425,320.724,153.668 M337.299,147.02l0.01-0.028c0.069,0,0.141,0.012,0.206-0.004
		c0.058-0.015,0.108-0.062,0.161-0.095c-0.037-0.043-0.067-0.1-0.114-0.126c-0.106-0.058-0.234-0.084-0.332-0.155
		c-0.138-0.1-0.341-0.213-0.365-0.348c-0.074-0.41-0.267-0.86,0.177-1.21c0.099-0.078,0.155-0.213-0.006-0.301
		c-0.133-0.072-0.265-0.122-0.371,0.066c-0.056,0.097-0.156,0.178-0.252,0.242c-0.15,0.1-0.317,0.432-0.284,0.562
		c0.077,0.315,0.135,0.634,0.214,0.948c0.018,0.072,0.075,0.166,0.136,0.189C336.748,146.858,337.024,146.935,337.299,147.02
		 M358.573,174.504c-0.02,0.004-0.041,0.008-0.063,0.012c0.076,0.412,0.143,0.825,0.229,1.234c0.02,0.083,0.1,0.171,0.176,0.217
		c0.039,0.024,0.158-0.018,0.193-0.066c0.164-0.214,0.324-0.441,0.262-0.733c-0.039-0.184-0.084-0.371-0.162-0.54
		c-0.105-0.229-0.232-0.449-0.371-0.66c-0.041-0.06-0.152-0.073-0.23-0.107c-0.018,0.069-0.049,0.138-0.049,0.207
		C358.556,174.213,358.567,174.359,358.573,174.504 M331.111,144.993c0.132,0.119,0.216,0.238,0.329,0.285
		c0.068,0.028,0.183-0.054,0.275-0.087c-0.044-0.069-0.078-0.15-0.136-0.205c-0.081-0.077-0.182-0.134-0.273-0.199l0.03-0.053
		c0.05,0.006,0.102,0.023,0.149,0.017c0.138-0.019,0.281-0.027,0.406-0.078c0.122-0.051,0.113-0.207,0.008-0.228
		c-0.257-0.053-0.549-0.128-0.779-0.052c-0.204,0.067-0.389,0.114-0.6,0.105c-0.089-0.003-0.243,0.02-0.256,0.064
		c-0.035,0.12-0.029,0.26-0.003,0.385c0.023,0.108,0.083,0.215,0.149,0.307c0.067,0.094,0.155,0.176,0.251,0.241
		c0.014,0.009,0.117-0.101,0.171-0.163C330.932,145.217,331.024,145.099,331.111,144.993 M336.305,143.241
		c0.208,0.075,0.389,0.174,0.579,0.199c0.281,0.038,0.569,0.023,0.854,0.03c0.104,0.002,0.208,0.004,0.313,0
		c0.085-0.003,0.169-0.014,0.254-0.022c-0.042-0.089-0.064-0.233-0.129-0.257c-0.13-0.047-0.283-0.027-0.427-0.038
		c-0.34-0.024-0.683-0.025-1.015-0.086C336.528,143.028,336.394,143.038,336.305,143.241 M339.313,142.424
		c0.115-0.061,0.18-0.095,0.244-0.128c-0.023-0.043-0.037-0.105-0.073-0.126c-0.271-0.153-0.543-0.305-0.821-0.441
		c-0.05-0.024-0.134,0.027-0.201,0.043c0.031,0.053,0.057,0.112,0.096,0.159c0.043,0.052,0.092,0.104,0.149,0.138
		C338.911,142.194,339.118,142.312,339.313,142.424 M334.662,144.298c0.158-0.141,0.297-0.252,0.42-0.378
		c0.026-0.027,0.002-0.106,0.001-0.161c-0.049,0.006-0.114-0.006-0.145,0.02c-0.168,0.152-0.34,0.186-0.541,0.063
		c-0.04-0.024-0.148-0.014-0.159,0.009c-0.022,0.054-0.031,0.159,0,0.184C334.357,144.128,334.495,144.198,334.662,144.298
		 M361.653,170.992c0.225-0.217,0.113-0.955-0.146-1.153C361.36,170.265,361.731,170.599,361.653,170.992 M313.58,165.952
		c0.171,0.001,0.305-0.034,0.365-0.224c0.021-0.065,0.106-0.107,0.149-0.168c0.035-0.049,0.051-0.111,0.075-0.168
		c-0.044-0.018-0.092-0.057-0.133-0.051C313.882,165.363,313.586,165.759,313.58,165.952 M334.287,144.3
		c-0.068-0.08-0.115-0.189-0.187-0.208c-0.121-0.03-0.257-0.012-0.385,0.005c-0.022,0.003-0.062,0.128-0.045,0.143
		c0.067,0.061,0.153,0.139,0.233,0.14C334.032,144.383,334.163,144.33,334.287,144.3 M347.866,175.279
		c-0.159,0.015-0.269,0.016-0.371,0.038c-0.052,0.011-0.124,0.06-0.13,0.099c-0.005,0.043,0.058,0.134,0.09,0.134
		c0.153,0,0.309-0.017,0.46-0.046c0.026-0.006,0.06-0.11,0.045-0.154C347.945,175.309,347.875,175.286,347.866,175.279
		 M336.607,147.361c-0.098,0.109-0.157,0.174-0.216,0.239c0.087,0.073,0.165,0.178,0.264,0.205c0.051,0.013,0.14-0.115,0.21-0.179
		C336.791,147.549,336.715,147.473,336.607,147.361 M312.736,165.793c0.106-0.126,0.191-0.228,0.277-0.33
		c-0.044-0.032-0.109-0.1-0.127-0.089c-0.124,0.072-0.238,0.161-0.355,0.245C312.584,165.664,312.636,165.708,312.736,165.793
		 M323.208,181.466c-0.104-0.072-0.193-0.15-0.205-0.139c-0.084,0.073-0.16,0.159-0.217,0.254c-0.011,0.016,0.111,0.139,0.119,0.134
		C323,181.652,323.083,181.575,323.208,181.466 M346.863,202.253c0.11-0.107,0.203-0.198,0.296-0.289
		c-0.046-0.039-0.123-0.12-0.135-0.112c-0.103,0.079-0.195,0.173-0.291,0.262C346.765,202.149,346.798,202.184,346.863,202.253
		 M308.198,171.069c-0.053-0.028-0.1-0.042-0.131-0.073c-0.062-0.06-0.109-0.132-0.171-0.193c-0.044-0.044-0.095-0.082-0.149-0.11
		c-0.01-0.004-0.08,0.066-0.075,0.092c0.012,0.06,0.043,0.124,0.085,0.169c0.063,0.069,0.14,0.126,0.215,0.181
		c0.033,0.025,0.078,0.046,0.117,0.046C308.112,171.181,308.135,171.135,308.198,171.069 M347.722,193.223
		c0.084-0.101,0.176-0.17,0.166-0.211c-0.021-0.073-0.102-0.131-0.157-0.195c-0.056,0.061-0.14,0.114-0.158,0.184
		C347.562,193.046,347.647,193.117,347.722,193.223 M300.4,163.508c-0.095,0.128-0.17,0.211-0.219,0.306
		c-0.014,0.026,0.047,0.091,0.073,0.138c0.075-0.087,0.156-0.17,0.22-0.264C300.488,163.667,300.442,163.606,300.4,163.508
		 M340.565,185.942c-0.081,0.121-0.151,0.185-0.164,0.259c-0.008,0.044,0.075,0.104,0.118,0.157
		c0.054-0.065,0.126-0.124,0.156-0.199C340.69,186.124,340.626,186.057,340.565,185.942 M313.282,165.856
		c-0.076-0.084-0.123-0.134-0.168-0.184c-0.059,0.059-0.143,0.11-0.165,0.18c-0.012,0.037,0.081,0.145,0.137,0.153
		C313.135,166.012,313.197,165.924,313.282,165.856 M308.208,172.271c0.07-0.088,0.112-0.139,0.153-0.19
		c-0.06-0.044-0.118-0.115-0.183-0.124c-0.05-0.006-0.11,0.067-0.166,0.105C308.068,172.121,308.124,172.181,308.208,172.271
		 M311.69,159.038c0-0.029,0.001-0.057,0.001-0.086c-0.14-0.02-0.278-0.048-0.419-0.057c-0.035-0.002-0.074,0.055-0.11,0.085
		c0.03,0.03,0.062,0.084,0.093,0.084C311.4,159.063,311.545,159.047,311.69,159.038 M317.12,144.257
		c-0.082,0.065-0.136,0.108-0.189,0.15c0.069,0.046,0.133,0.117,0.206,0.129c0.048,0.008,0.109-0.069,0.165-0.108
		C317.247,144.376,317.192,144.326,317.12,144.257 M363.271,176.989c0.057,0.078,0.096,0.134,0.135,0.189
		c0.041-0.06,0.111-0.119,0.115-0.181c0.004-0.055-0.066-0.115-0.104-0.173C363.372,176.874,363.329,176.923,363.271,176.989
		 M348.718,192.645c0.073-0.107,0.137-0.165,0.147-0.231c0.008-0.042-0.066-0.097-0.104-0.145c-0.058,0.058-0.131,0.108-0.167,0.178
		C348.582,192.473,348.652,192.542,348.718,192.645 M342.559,189.329c-0.097-0.072-0.15-0.111-0.203-0.151
		c-0.044,0.063-0.107,0.121-0.122,0.19c-0.007,0.034,0.09,0.13,0.119,0.122C342.417,189.472,342.467,189.405,342.559,189.329
		 M313.672,163.152c-0.118-0.08-0.186-0.133-0.261-0.167c-0.013-0.006-0.099,0.101-0.092,0.111c0.046,0.059,0.103,0.118,0.168,0.151
		C313.514,163.26,313.574,163.206,313.672,163.152 M324.637,151.112c0.068-0.1,0.122-0.153,0.137-0.214
		c0.007-0.03-0.079-0.116-0.091-0.11c-0.061,0.029-0.132,0.071-0.156,0.127C324.512,150.947,324.58,151.016,324.637,151.112
		 M321.966,183.204c-0.083-0.067-0.136-0.141-0.175-0.134c-0.057,0.01-0.121,0.071-0.144,0.126c-0.01,0.026,0.069,0.125,0.109,0.126
		C321.813,183.321,321.871,183.261,321.966,183.204 M312.364,165.007c-0.051,0.109-0.099,0.165-0.094,0.216
		c0.004,0.044,0.07,0.082,0.109,0.122c0.04-0.046,0.109-0.089,0.113-0.138C312.498,165.161,312.433,165.108,312.364,165.007
		 M341.356,173.649c-0.058,0.077-0.127,0.138-0.116,0.161c0.028,0.057,0.092,0.097,0.142,0.143c0.036-0.04,0.105-0.085,0.101-0.12
		C341.475,173.779,341.417,173.732,341.356,173.649 M323.906,149.954c-0.07-0.046-0.124-0.092-0.133-0.084
		c-0.061,0.049-0.111,0.11-0.166,0.168c0.031,0.025,0.078,0.079,0.091,0.071C323.763,150.072,323.82,150.021,323.906,149.954
		 M362.993,175.465c0.055-0.085,0.115-0.142,0.105-0.169c-0.02-0.05-0.08-0.092-0.133-0.115c-0.014-0.007-0.094,0.067-0.09,0.095
		C362.884,175.33,362.933,175.375,362.993,175.465 M362.294,173.068c-0.037,0.024-0.072,0.048-0.109,0.072
		c0.057,0.073,0.113,0.147,0.168,0.221l0.092-0.066C362.394,173.219,362.343,173.145,362.294,173.068"/>
	<path clip-path="url(#SVGID_16_)" fill="#3A4A9F" d="M327.402,158.2c0,0.105-0.019,0.187,0.006,0.252
		c0.025,0.066,0.099,0.169,0.142,0.164c0.25-0.029,0.315,0.158,0.394,0.317c0.156,0.32,0.458,0.452,0.735,0.632
		c0.333,0.218,0.638,0.481,0.943,0.738c0.036,0.03,0.024,0.151-0.002,0.216c-0.145,0.365,0.08,0.661,0.173,0.981
		c0.011,0.033,0.071,0.052,0.11,0.077c0.239,0.153,0.257,0.218,0.123,0.469c-0.097,0.181,0.037,0.458,0.241,0.48
		c0.138,0.016,0.219,0.07,0.201,0.218c-0.018,0.143,0.055,0.198,0.182,0.245c0.198,0.074,0.428,0.127,0.449,0.406
		c0.164-0.101,0.177-0.17,0.125-0.617c0.141-0.063,0.263-0.15,0.119-0.351c0.161,0.07,0.31,0.162,0.415-0.022
		c0.141,0.077,0.268,0.147,0.395,0.216c0.018-0.021,0.037-0.042,0.055-0.063c-0.076-0.096-0.145-0.203-0.233-0.286
		c-0.213-0.201-0.218-0.196-0.1-0.387c-0.132-0.026-0.282-0.037-0.418-0.09c-0.061-0.025-0.089-0.132-0.132-0.201
		c-0.044-0.07-0.091-0.139-0.131-0.211c-0.048-0.085-0.091-0.173-0.137-0.26c0.024-0.019,0.05-0.039,0.076-0.058
		c0.063,0.062,0.119,0.136,0.193,0.182c0.067,0.041,0.172,0.094,0.227,0.069c0.086-0.041,0.229-0.087,0.153-0.256
		c-0.019-0.042,0.027-0.163,0.048-0.164c0.272-0.016,0.563-0.185,0.807,0.065c0.043,0.044,0.067,0.138,0.055,0.199
		c-0.032,0.149-0.102,0.289-0.138,0.437c-0.04,0.168,0.048,0.237,0.214,0.245c0.063,0.003,0.124,0.055,0.186,0.085
		c-0.062,0.021-0.125,0.039-0.185,0.064c-0.079,0.032-0.213,0.056-0.225,0.106c-0.034,0.146,0.087,0.165,0.204,0.17
		c0.1,0.005,0.239-0.032,0.2,0.159c-0.004,0.018,0.068,0.044,0.091,0.077c0.058,0.078,0.171,0.198,0.148,0.238
		c-0.154,0.273,0.069,0.267,0.214,0.325c0.021,0.007,0.035,0.028,0.049,0.04c0.001,0.02,0.007,0.037,0.002,0.05
		c-0.051,0.117-0.152,0.266,0.037,0.322c0.158,0.046,0.187-0.119,0.213-0.239c0.054-0.231,0.13-0.268,0.296-0.102
		c0.174,0.174,0.361,0.234,0.582,0.142c0.076-0.031,0.125-0.123,0.193-0.179c0.062-0.05,0.146-0.139,0.194-0.125
		c0.172,0.05,0.351,0.111,0.494,0.215c0.273,0.198,0.644,0.203,0.889-0.038c0.147-0.144,0.272-0.274,0.515-0.177
		c0.078,0.031,0.212-0.077,0.342-0.131c-0.115,0.365,0.007,0.706,0.044,1.056c0.021,0.205-0.08,0.424-0.135,0.635
		c-0.074,0.289-0.173,0.572-0.23,0.864c-0.087,0.431-0.443,0.662-0.945,0.567c-0.189-0.036-0.369-0.132-0.56-0.162
		c-0.245-0.039-0.494-0.017-0.691,0.163c-0.343,0.314-0.722,0.172-1.082,0.072c-0.377-0.105-0.738-0.265-1.144-0.21
		c-0.034,0.004-0.093-0.003-0.106-0.025c-0.18-0.278-0.487-0.215-0.743-0.292c-0.112-0.035-0.203-0.138-0.312-0.193
		c-0.172-0.088-0.346-0.214-0.528-0.232c-0.368-0.037-0.692,0.119-0.954,0.378c-0.138,0.136-0.201,0.308-0.105,0.505
		c0.087,0.179,0.007,0.309-0.13,0.421c-0.143,0.116-0.287,0.174-0.457,0.044c-0.354-0.271-0.755-0.434-1.195-0.509
		c-0.187-0.032-0.32-0.15-0.351-0.351c-0.027-0.194-0.104-0.332-0.328-0.346c-0.062-0.004-0.117-0.071-0.181-0.094
		c-0.185-0.069-0.376-0.188-0.559-0.179c-0.264,0.011-0.481-0.053-0.691-0.189c-0.051-0.033-0.119-0.066-0.138-0.115
		c-0.066-0.172-0.15-0.279-0.362-0.284c-0.128-0.002-0.178-0.115-0.053-0.226c0.104-0.092,0.209-0.181,0.31-0.276
		c0.201-0.192,0.226-0.379,0.051-0.585c-0.126-0.149-0.103-0.239,0.058-0.324c0.046-0.025,0.095-0.06,0.12-0.104
		c0.028-0.048,0.047-0.116,0.034-0.165c-0.008-0.03-0.085-0.043-0.132-0.06c-0.078-0.029-0.165-0.044-0.235-0.086
		c-0.162-0.098-0.302-0.175-0.509-0.074c-0.213,0.104-0.432,0.144-0.7,0.05c-0.245-0.085-0.551,0.003-0.829,0.014
		c-0.08,0.003-0.175,0.031-0.238-0.002c-0.372-0.193-0.749-0.196-1.136-0.065c-0.021,0.008-0.046,0.018-0.067,0.015
		c-0.509-0.074-0.963,0.132-1.425,0.284c-0.159,0.053-0.304,0.151-0.464,0.198c-0.118,0.035-0.255,0.047-0.375,0.026
		c-0.238-0.043-0.468-0.137-0.707-0.17c-0.21-0.029-0.32-0.116-0.346-0.325c-0.026-0.207,0.116-0.293,0.266-0.312
		c0.231-0.03,0.474-0.04,0.7-0.001c0.264,0.046,0.458,0.028,0.691-0.153c0.26-0.2,0.539-0.373,0.796-0.588
		c0.169-0.141,0.26-0.189,0.176-0.416c-0.032-0.087,0.051-0.253,0.13-0.337c0.182-0.194,0.392-0.361,0.595-0.534
		c0.032-0.028,0.084-0.034,0.128-0.046c0.19-0.052,0.382-0.099,0.569-0.155c0.262-0.08,0.41-0.232,0.401-0.535
		c-0.009-0.278,0.254-0.443,0.526-0.351c0.169,0.057,0.327,0.153,0.499,0.203c0.104,0.031,0.241,0.043,0.335,0.001
		c0.321-0.141,0.629-0.311,0.944-0.467c0.179-0.089,0.55,0.085,0.56,0.297c0.031,0.649,0.554,0.95,0.944,1.319
		c0.168,0.157,0.448,0.238,0.622,0.423c0.216,0.229,0.529,0.382,0.571,0.756c0.023,0.213-0.058,0.428-0.267,0.459
		c-0.313,0.046-0.626,0.19-0.947,0.02c-0.049-0.025-0.126-0.021-0.181-0.002c-0.091,0.031-0.219,0.065-0.251,0.134
		c-0.063,0.14,0.056,0.206,0.173,0.272c0.241,0.132,0.469,0.291,0.708,0.425c0.077,0.043,0.203,0.081,0.265,0.047
		c0.066-0.039,0.119-0.164,0.119-0.251c0-0.313-0.001-0.285,0.301-0.37c0.14-0.039,0.245-0.212,0.36-0.329
		c0.048-0.047,0.07-0.124,0.123-0.157c0.243-0.155,0.261-0.236,0.034-0.444c-0.129-0.117-0.057-0.197,0.002-0.297
		c0.068-0.116,0.15-0.113,0.247-0.038c0.083,0.064,0.162,0.138,0.254,0.185c0.063,0.031,0.176,0.054,0.208,0.022
		c0.043-0.042,0.047-0.144,0.037-0.216c-0.006-0.042-0.066-0.082-0.11-0.111c-0.229-0.154-0.466-0.298-0.69-0.457
		c-0.067-0.047-0.141-0.129-0.15-0.202c-0.019-0.148-0.09-0.193-0.224-0.207c-0.383-0.04-0.502-0.165-0.619-0.534
		c-0.051-0.159-0.152-0.317-0.271-0.435c-0.167-0.165-0.316-0.258-0.188-0.568C327.082,158.326,327.167,158.246,327.402,158.2
		 M325.281,160.334c-0.123,0.044-0.216,0.094-0.313,0.11c-0.137,0.022-0.166,0.083-0.168,0.218
		c-0.002,0.208-0.029,0.419-0.073,0.623c-0.034,0.162,0.066,0.336,0.22,0.321c0.268-0.027,0.453-0.212,0.498-0.492
		c0.016-0.097,0.051-0.193,0.059-0.29c0.011-0.114,0.038-0.249-0.009-0.341c-0.086-0.167-0.055-0.295,0.016-0.452
		c0.063-0.142,0.087-0.305,0.104-0.461c0.003-0.029-0.134-0.117-0.164-0.1C325.103,159.659,324.976,159.958,325.281,160.334
		 M331.509,163.613c-0.018,0.014-0.085,0.072-0.153,0.13c0.063,0.055,0.118,0.132,0.191,0.162c0.118,0.049,0.25,0.088,0.377,0.094
		c0.255,0.014,0.512,0.006,0.768-0.004c0.036-0.001,0.094-0.067,0.095-0.104c0.001-0.034-0.057-0.095-0.096-0.102
		C332.323,163.729,331.953,163.677,331.509,163.613 M335.771,164.133c0.246,0.005,0.707-0.373,0.715-0.556
		c0.001-0.033-0.095-0.109-0.122-0.099c-0.27,0.098-0.537,0.206-0.797,0.326c-0.03,0.015-0.046,0.153-0.017,0.184
		C335.62,164.061,335.721,164.103,335.771,164.133 M322.587,160.661c-0.126,0.117-0.251,0.181-0.266,0.265
		c-0.011,0.061,0.114,0.194,0.197,0.213c0.132,0.032,0.244-0.062,0.23-0.21C322.744,160.855,322.667,160.787,322.587,160.661
		 M332.411,161.225c-0.026-0.039-0.053-0.078-0.08-0.117c-0.099,0.058-0.196,0.115-0.296,0.173c0.042,0.044,0.108,0.132,0.122,0.125
		C332.248,161.357,332.328,161.288,332.411,161.225 M332.436,162.897c-0.087-0.064-0.137-0.129-0.185-0.127
		c-0.05,0.003-0.097,0.069-0.145,0.107c0.044,0.047,0.082,0.121,0.135,0.134C332.283,163.021,332.343,162.956,332.436,162.897
		 M321.974,161.157c-0.083-0.047-0.143-0.104-0.172-0.091c-0.058,0.024-0.106,0.083-0.138,0.139
		c-0.008,0.013,0.083,0.112,0.104,0.104C321.831,161.286,321.881,161.23,321.974,161.157 M323.221,160.829
		c-0.084-0.061-0.137-0.127-0.182-0.122c-0.04,0.003-0.095,0.085-0.098,0.135c-0.003,0.037,0.069,0.113,0.105,0.111
		C323.095,160.95,323.141,160.89,323.221,160.829"/>
	<path clip-path="url(#SVGID_16_)" fill="#3A4A9F" d="M335.349,158.059c-0.091,0.079-0.166,0.129-0.219,0.196
		c-0.033,0.042-0.056,0.121-0.037,0.165c0.016,0.04,0.096,0.084,0.141,0.078c0.187-0.027,0.24,0.052,0.254,0.228
		c0.018,0.204,0.17,0.255,0.321,0.11c0.259-0.25,0.586-0.323,0.919-0.344c0.131-0.008,0.266,0.101,0.403,0.148
		c0.371,0.127,0.72,0.286,1.031,0.538c0.169,0.135,0.399,0.191,0.595,0.297c0.196,0.108,0.348,0.407,0.294,0.546
		c-0.07,0.18-0.425,0.379-0.623,0.376c-0.163-0.003-0.327,0.032-0.49,0.047c-0.098,0.008-0.204,0.031-0.295,0.008
		c-0.298-0.077-0.595-0.16-0.885-0.263c-0.652-0.231-1.266-0.219-1.834,0.229c-0.267,0.21-1.154,0.181-1.416-0.027
		c-0.247-0.197-0.269-0.657-0.062-0.883c0.079-0.086,0.124-0.215,0.152-0.332c0.043-0.183,0.021-0.389,0.285-0.435
		c0.044-0.008,0.098-0.136,0.094-0.206c-0.008-0.161,0.029-0.27,0.173-0.364c0.096-0.064,0.145-0.197,0.229-0.283
		c0.048-0.049,0.128-0.087,0.193-0.087c0.035-0.001,0.064,0.096,0.107,0.138c0.048,0.047,0.106,0.108,0.166,0.115
		C334.995,158.07,335.146,158.059,335.349,158.059"/>
	<path clip-path="url(#SVGID_16_)" fill="#3A4A9F" d="M342.235,157.975c-0.047,0.013-0.121,0.01-0.143,0.043
		c-0.034,0.052-0.067,0.165-0.042,0.186c0.254,0.224,0.514,0.443,0.786,0.646c0.142,0.106,0.371,0.349,0.458,0.539
		c0.026,0.061,0.072,0.12,0.124,0.162c0.045,0.037,0.11,0.049,0.168,0.072c0.011-0.063,0.022-0.125,0.032-0.187
		c0.01-0.065,0.017-0.131,0.024-0.196c0.069,0.018,0.15,0.019,0.204,0.058c0.115,0.086,0.22,0.189,0.322,0.291
		c0.034,0.033,0.075,0.107,0.061,0.129c-0.026,0.043-0.091,0.064-0.141,0.09c-0.011,0.006-0.03-0.005-0.045-0.004
		c-0.137,0.003-0.275,0.007-0.412,0.011c0.029,0.147,0.054,0.296,0.091,0.441c0.009,0.036,0.059,0.088,0.091,0.089
		c0.151,0.005,0.226,0.06,0.208,0.225c-0.003,0.031,0.083,0.068,0.123,0.107c0.098,0.095,0.225,0.178,0.281,0.294
		c0.107,0.218,0.182,0.453,0.249,0.688c0.016,0.053-0.033,0.163-0.084,0.191c-0.277,0.155-0.569,0.272-0.899,0.221
		c-0.074-0.012-0.166-0.013-0.219-0.056c-0.188-0.154-0.388-0.244-0.641-0.264c-0.219-0.018-0.389-0.511-0.289-0.736
		c0.033-0.074,0.074-0.165,0.059-0.236c-0.038-0.176-0.111-0.346,0.134-0.433c0.007-0.003-0.018-0.17-0.045-0.175
		c-0.445-0.088-0.641-0.507-0.978-0.739c-0.247-0.17-0.464-0.403-0.547-0.72c-0.017-0.063-0.071-0.118-0.114-0.172
		c-0.208-0.261-0.21-0.26-0.162-0.589c0.008-0.059,0.012-0.133,0.049-0.171c0.252-0.261,0.504-0.524,0.776-0.766
		c0.079-0.07,0.219-0.078,0.333-0.101c0.089-0.018,0.195,0.015,0.269-0.023c0.193-0.1,0.275,0.017,0.341,0.153
		c0.124,0.262,0.031,0.462-0.233,0.53C342.241,157.621,342.237,157.627,342.235,157.975"/>
	<path clip-path="url(#SVGID_16_)" fill="#3A4A9F" d="M333.139,151.493c-0.274,0.14-0.539,0.239-0.87,0.186
		c-0.218-0.034-0.465,0.069-0.689,0.141c-0.073,0.024-0.116,0.143-0.175,0.221c-0.22-0.131-0.358-0.079-0.411,0.171
		c-0.031,0.146,0.052,0.226,0.193,0.181c0.051-0.016,0.096-0.066,0.145-0.067c0.118-0.003,0.32-0.019,0.338,0.028
		c0.044,0.115,0.002,0.262-0.004,0.396c-0.085-0.007-0.202,0.019-0.248-0.026c-0.302-0.3-0.443-0.281-0.651,0.097
		c-0.116,0.211-0.18,0.42-0.09,0.659c0.041,0.115-0.007,0.173-0.133,0.213c-0.123,0.039-0.224,0.143-0.344,0.2
		c-0.077,0.037-0.222,0.084-0.247,0.053c-0.249-0.304-0.516-0.129-0.778-0.047c-0.233,0.073-0.464,0.156-0.697,0.229
		c-0.126,0.038-0.208,0.003-0.219-0.147c-0.016-0.201-0.125-0.224-0.287-0.143c-0.069,0.035-0.143,0.06-0.213,0.089
		c-0.253,0.102-0.495,0.055-0.673-0.142c-0.027-0.031-0.023-0.091-0.046-0.191c0.126,0.049,0.217,0.065,0.285,0.114
		c0.207,0.151,0.364,0.133,0.512-0.076c0.039-0.055,0.071-0.114,0.113-0.183c0.065,0.045,0.11,0.091,0.164,0.11
		c0.154,0.054,0.306,0.072,0.395-0.112c0.074-0.156,0.197-0.22,0.369-0.222c0.106-0.001,0.215-0.026,0.316-0.056
		c0.193-0.056,0.288-0.235,0.236-0.424c-0.083-0.301,0.078-0.623,0.375-0.694c0.229-0.054,0.315-0.251,0.393-0.412
		c0.034-0.071-0.121-0.294-0.24-0.363c-0.206-0.12-0.176-0.242-0.112-0.42c0.14-0.393,0.42-0.616,0.797-0.768
		c0.223-0.089,0.423-0.216,0.43-0.531c0.007-0.263,0.579-0.437,0.769-0.248c0.031,0.03,0.016,0.166-0.024,0.202
		c-0.248,0.226-0.499,0.452-0.771,0.649c-0.159,0.116-0.215,0.235-0.188,0.426c0.023,0.172,0.026,0.351,0.014,0.525
		c-0.012,0.162,0.043,0.232,0.181,0.34c0.338,0.269,0.646,0.158,0.985,0.051c0.246-0.078,0.504-0.132,0.76-0.153
		C332.906,151.339,333.024,151.44,333.139,151.493 M329.802,152.864c0.167,0.008,0.424-0.3,0.367-0.405
		c-0.021-0.042-0.146-0.083-0.163-0.066c-0.102,0.11-0.19,0.232-0.27,0.36C329.725,152.773,329.787,152.839,329.802,152.864
		 M330.705,151.49c-0.107-0.071-0.164-0.134-0.222-0.137c-0.044-0.002-0.092,0.073-0.138,0.113c0.046,0.042,0.088,0.109,0.141,0.119
		C330.534,151.594,330.594,151.542,330.705,151.49"/>
	<path clip-path="url(#SVGID_16_)" fill="#3A4A9F" d="M336.16,185.138c-0.021-0.098-0.044-0.147-0.038-0.192
		c0.041-0.353,0.086-0.705,0.132-1.057c0.004-0.029,0.016-0.061,0.034-0.084c0.089-0.117,0.844-0.297,0.959-0.208
		c0.076,0.059,0.146,0.177,0.148,0.271c0.01,0.253-0.079,0.475-0.272,0.658c-0.103,0.096-0.206,0.224-0.005,0.412
		c-0.188,0.015-0.335,0.061-0.463,0.028C336.46,184.917,336.302,184.916,336.16,185.138"/>
	<path clip-path="url(#SVGID_16_)" fill="#3A4A9F" d="M337.375,157.362c-0.338,0.356-0.338,0.356-0.199,0.477
		c-0.041,0.087-0.082,0.175-0.124,0.262c-0.01,0.021-0.018,0.044-0.031,0.061c-0.127,0.15-0.881,0.094-0.969-0.08
		c-0.022-0.046-0.015-0.153,0.018-0.174C336.467,157.638,336.915,157.48,337.375,157.362"/>
	<path clip-path="url(#SVGID_16_)" fill="#3A4A9F" d="M335.589,188.311c-0.053-0.049-0.13-0.087-0.154-0.147
		c-0.123-0.309-0.27-0.587-0.542-0.806c-0.148-0.119-0.226-0.31-0.179-0.556c0.046-0.237-0.029-0.497-0.05-0.747
		c-0.004-0.051,0-0.101,0.054-0.168c0.028,0.071,0.071,0.14,0.081,0.214c0.041,0.308,0.065,0.618,0.112,0.925
		c0.01,0.07,0.071,0.14,0.125,0.195c0.062,0.065,0.171,0.098,0.207,0.171c0.142,0.283,0.263,0.577,0.392,0.867
		C335.621,188.277,335.604,188.294,335.589,188.311"/>
	<path clip-path="url(#SVGID_16_)" fill="#3A4A9F" d="M337.38,188.74c0.045,0.084,0.104,0.163,0.131,0.252
		c0.067,0.218,0.122,0.441,0.176,0.663c0.013,0.049,0.024,0.115,0.001,0.154c-0.147,0.257-0.033,0.526-0.033,0.788
		c0,0.101,0.084,0.201,0.1,0.347c-0.056-0.028-0.146-0.041-0.163-0.084c-0.063-0.153-0.094-0.318-0.15-0.473
		c-0.085-0.236-0.061-0.453-0.008-0.702c0.05-0.232-0.069-0.499-0.114-0.751c-0.01-0.053-0.012-0.108-0.017-0.162
		C337.329,188.761,337.354,188.751,337.38,188.74"/>
	<path clip-path="url(#SVGID_16_)" fill="#3A4A9F" d="M345.074,156.81c0.176,0.208,0.334,0.371,0.459,0.556
		c0.049,0.072,0.054,0.207,0.021,0.289c-0.021,0.048-0.156,0.056-0.241,0.064c-0.029,0.002-0.082-0.047-0.091-0.081
		c-0.062-0.231-0.115-0.465-0.17-0.699C345.045,156.914,345.061,156.883,345.074,156.81"/>
	<path clip-path="url(#SVGID_16_)" fill="#3A4A9F" d="M340.965,146.875c0.279,0.079,0.396,0.308,0.454,0.579
		c0.01,0.047-0.025,0.105-0.039,0.157c-0.052-0.034-0.127-0.056-0.149-0.103C341.135,147.305,341.055,147.094,340.965,146.875"/>
	<path clip-path="url(#SVGID_16_)" fill="#3A4A9F" d="M333.793,160.915c-0.234,0.034-0.469,0.067-0.722,0.103
		c0.104-0.287,0.425-0.357,0.706-0.187C333.783,160.858,333.788,160.887,333.793,160.915"/>
	<path clip-path="url(#SVGID_16_)" fill="#3A4A9F" d="M349.301,155.214v0.661c-0.18-0.098-0.181-0.26-0.175-0.416
		C349.13,155.348,349.112,155.204,349.301,155.214"/>
	<path clip-path="url(#SVGID_16_)" fill="#3A4A9F" d="M351.424,149.405c-0.233-0.265-0.468-0.53-0.701-0.794
		c0.013-0.012,0.024-0.024,0.037-0.036c0.242,0.257,0.484,0.514,0.726,0.771C351.465,149.365,351.445,149.385,351.424,149.405"/>
	<path clip-path="url(#SVGID_16_)" fill="#3A4A9F" d="M340.295,146.523c0.163,0.056,0.327,0.113,0.522,0.181
		c-0.003,0.004-0.026,0.074-0.053,0.076c-0.208,0.014-0.36-0.085-0.464-0.262L340.295,146.523z"/>
	<path clip-path="url(#SVGID_16_)" fill="#3A4A9F" d="M340.301,146.518c-0.179-0.105-0.359-0.21-0.538-0.315
		c0.015-0.02,0.027-0.041,0.041-0.062c0.208,0.063,0.354,0.218,0.491,0.382L340.301,146.518"/>
	<path clip-path="url(#SVGID_16_)" fill="#3A4A9F" d="M319.158,144.146c-0.337,0.085-0.66,0.166-0.999,0.252
		c-0.042-0.223-0.219-0.114-0.387-0.107c0.035-0.025,0.07-0.054,0.108-0.076c0.238-0.133,0.471-0.28,0.719-0.392
		c0.141-0.063,0.306-0.072,0.461-0.099c0.103-0.018,0.212-0.011,0.312-0.037c0.31-0.083,0.616-0.177,0.925-0.263
		c0.056-0.015,0.117-0.01,0.192,0.032c-0.078,0.035-0.155,0.072-0.234,0.104c-0.07,0.029-0.146,0.042-0.213,0.078
		c-0.169,0.093-0.311,0.203-0.544,0.148C319.266,143.732,319.118,143.914,319.158,144.146"/>
	<path clip-path="url(#SVGID_16_)" fill="#3A4A9F" d="M324.833,142.074c0.055-0.009,0.113-0.01,0.164-0.029
		c0.104-0.039,0.274-0.065,0.298-0.136c0.096-0.296,0.37-0.26,0.573-0.344c0.168-0.069,0.353-0.112,0.533-0.129
		c0.127-0.013,0.261,0.037,0.392,0.059c-0.004,0.032-0.007,0.063-0.01,0.095c-0.053,0.007-0.11,0.03-0.156,0.017
		c-0.338-0.097-0.624-0.028-0.876,0.223c-0.117,0.117-0.252,0.238-0.402,0.291c-0.157,0.054-0.341,0.028-0.513,0.037
		C324.834,142.13,324.833,142.102,324.833,142.074"/>
	<path clip-path="url(#SVGID_16_)" fill="#3A4A9F" d="M325.258,141.648c-0.07,0.013-0.145,0.016-0.21,0.041
		c-0.165,0.063-0.339,0.117-0.488,0.208c-0.186,0.113-0.487,0.106-0.554-0.029c0.322-0.119,0.643-0.246,0.971-0.349
		c0.083-0.026,0.19,0.024,0.287,0.039C325.262,141.588,325.26,141.618,325.258,141.648"/>
	<path clip-path="url(#SVGID_16_)" fill="#3A4A9F" d="M325.265,142.626c0.221-0.109,0.437-0.103,0.642,0.089h-0.646
		C325.262,142.686,325.264,142.657,325.265,142.626"/>
	<path clip-path="url(#SVGID_16_)" fill="#3A4A9F" d="M320.795,142.943c0.124-0.06,0.247-0.121,0.371-0.181
		c0.013,0.028,0.025,0.055,0.04,0.083c-0.126,0.067-0.251,0.134-0.376,0.201C320.818,143.012,320.807,142.977,320.795,142.943"/>
	<polygon clip-path="url(#SVGID_16_)" fill="#3A4A9F" points="390.81,206.471 377.708,206.471 377.708,139.593 381.188,139.593 
		414.263,178.071 414.263,141.059 427.453,141.059 427.453,207.845 423.973,207.845 390.81,170.833 	"/>
	<path clip-path="url(#SVGID_16_)" fill="#3A4A9F" d="M103.627,241.958l0.987-1.195c1.218,1.133,2.477,1.826,4.136,1.826
		c1.764,0,2.94-1.07,2.94-2.479v-0.02c0-1.219-0.588-1.996-3.255-2.941c-3.044-1.133-4.241-2.225-4.241-4.303v-0.043
		c0-2.204,1.848-3.883,4.43-3.883c1.701,0,3.107,0.523,4.409,1.658l-0.945,1.218c-1.091-0.944-2.246-1.429-3.527-1.429
		c-1.68,0-2.771,1.029-2.771,2.29v0.041c0,1.281,0.65,2.018,3.422,3.025c2.981,1.111,4.073,2.309,4.073,4.262v0.041
		c0,2.352-1.931,4.01-4.556,4.01C106.839,244.036,105.16,243.386,103.627,241.958"/>
	<polygon clip-path="url(#SVGID_16_)" fill="#3A4A9F" points="116.101,229.129 125.065,229.129 125.065,230.579 117.676,230.579 
		117.676,235.702 124.31,235.702 124.31,237.13 117.676,237.13 117.676,242.378 125.17,242.378 125.17,243.827 116.101,243.827 	"/>
	<path clip-path="url(#SVGID_16_)" fill="#3A4A9F" d="M127.987,229.129h5.018c1.68,0,3.023,0.504,3.863,1.366
		c0.735,0.734,1.155,1.785,1.155,3.023v0.041c0,2.33-1.449,3.738-3.485,4.242l3.947,6.025h-1.89l-3.695-5.711h-3.338v5.711h-1.575
		V229.129z M132.732,236.688c2.394,0,3.716-1.197,3.716-3.064v-0.043c0-1.931-1.343-3.001-3.548-3.001h-3.338v6.109H132.732z"/>
	<polygon clip-path="url(#SVGID_16_)" fill="#3A4A9F" points="139.621,229.129 141.343,229.129 145.667,241.644 150.014,229.129 
		151.673,229.129 146.382,243.933 144.933,243.933 	"/>
	<rect x="154.278" y="229.13" clip-path="url(#SVGID_16_)" fill="#3A4A9F" width="1.575" height="14.697"/>
	<path clip-path="url(#SVGID_16_)" fill="#3A4A9F" d="M158.94,236.562v-0.125c0-4.451,2.771-7.517,6.446-7.517
		c2.015,0,3.317,0.736,4.472,1.806l-0.966,1.198c-0.924-0.882-2.036-1.534-3.527-1.534c-2.709,0-4.787,2.479-4.787,6.026v0.084
		c0,3.611,2.078,6.068,4.787,6.068c1.512,0,2.582-0.631,3.632-1.639l0.945,1.092c-1.239,1.219-2.646,2.018-4.661,2.018
		C161.648,244.038,158.94,241.034,158.94,236.562"/>
	<polygon clip-path="url(#SVGID_16_)" fill="#3A4A9F" points="172.422,229.129 181.387,229.129 181.387,230.579 173.998,230.579 
		173.998,235.702 180.631,235.702 180.631,237.13 173.998,237.13 173.998,242.378 181.492,242.378 181.492,243.827 172.422,243.827 
			"/>
	<path clip-path="url(#SVGID_16_)" fill="#3A4A9F" d="M183.321,241.958l0.987-1.195c1.218,1.133,2.477,1.826,4.136,1.826
		c1.764,0,2.94-1.07,2.94-2.479v-0.02c0-1.219-0.588-1.996-3.255-2.941c-3.044-1.133-4.241-2.225-4.241-4.303v-0.043
		c0-2.204,1.848-3.883,4.43-3.883c1.701,0,3.107,0.523,4.409,1.658l-0.945,1.218c-1.091-0.944-2.246-1.429-3.527-1.429
		c-1.68,0-2.771,1.029-2.771,2.29v0.041c0,1.281,0.65,2.018,3.422,3.025c2.981,1.111,4.073,2.309,4.073,4.262v0.041
		c0,2.352-1.931,4.01-4.556,4.01C186.533,244.036,184.854,243.386,183.321,241.958"/>
	<path clip-path="url(#SVGID_16_)" fill="#3A4A9F" d="M208.646,241.854c-1.134,1.342-2.478,2.162-4.22,2.162
		c-2.394,0-4.158-1.658-4.158-3.969v-0.063c0-1.869,1.155-3.338,3.192-4.367c-1.008-1.303-1.449-2.227-1.449-3.359v-0.063
		c0-1.786,1.386-3.296,3.506-3.296c1.932,0,3.255,1.448,3.255,3.169v0.063c0,1.785-1.197,2.961-3.108,3.863l2.961,3.57
		c0.546-0.924,0.987-1.975,1.427-3.191l1.281,0.525c-0.525,1.426-1.092,2.686-1.763,3.758l2.204,2.561l-1.197,0.861L208.646,241.854
		z M207.764,240.825l-3.485-4.199c-1.701,0.818-2.415,2.057-2.415,3.275v0.063c0,1.533,1.092,2.709,2.688,2.709
		C205.811,242.673,206.861,241.958,207.764,240.825 M207.323,232.175v-0.021c0-1.114-0.777-1.954-1.848-1.954
		c-1.175,0-1.994,0.883-1.994,1.997v0.041c0,0.84,0.336,1.553,1.364,2.813C206.504,234.315,207.323,233.392,207.323,232.175"/>
	<path clip-path="url(#SVGID_16_)" fill="#3A4A9F" d="M218.937,236.562v-0.125c0-4.451,2.771-7.517,6.446-7.517
		c2.016,0,3.317,0.736,4.473,1.806l-0.967,1.198c-0.924-0.882-2.035-1.534-3.526-1.534c-2.709,0-4.787,2.479-4.787,6.026v0.084
		c0,3.611,2.078,6.068,4.787,6.068c1.512,0,2.582-0.631,3.632-1.639l0.945,1.092c-1.239,1.219-2.646,2.018-4.661,2.018
		C221.645,244.038,218.937,241.034,218.937,236.562"/>
	<path clip-path="url(#SVGID_16_)" fill="#3A4A9F" d="M231.411,236.583v-0.168c0-4.324,2.604-7.515,6.341-7.515
		c3.736,0,6.299,3.169,6.299,7.474v0.168c0,4.324-2.583,7.516-6.32,7.516C233.972,244.058,231.411,240.888,231.411,236.583
		 M242.433,236.562v-0.146c0-3.547-1.995-6.068-4.703-6.068c-2.709,0-4.682,2.5-4.682,6.046v0.148c0,3.547,1.994,6.068,4.703,6.068
		C240.459,242.61,242.433,240.11,242.433,236.562"/>
	<polygon clip-path="url(#SVGID_16_)" fill="#3A4A9F" points="247.013,229.129 248.504,229.129 256.188,240.698 256.188,229.129 
		257.743,229.129 257.743,243.827 256.419,243.827 248.546,231.985 248.546,243.827 247.013,243.827 	"/>
	<path clip-path="url(#SVGID_16_)" fill="#3A4A9F" d="M260.285,241.958l0.987-1.195c1.218,1.133,2.477,1.826,4.136,1.826
		c1.764,0,2.94-1.07,2.94-2.479v-0.02c0-1.219-0.589-1.996-3.256-2.941c-3.044-1.133-4.24-2.225-4.24-4.303v-0.043
		c0-2.204,1.848-3.883,4.43-3.883c1.701,0,3.107,0.523,4.409,1.658l-0.945,1.218c-1.091-0.944-2.246-1.429-3.527-1.429
		c-1.68,0-2.771,1.029-2.771,2.29v0.041c0,1.281,0.65,2.018,3.422,3.025c2.981,1.111,4.073,2.309,4.073,4.262v0.041
		c0,2.352-1.932,4.01-4.557,4.01C263.497,244.036,261.818,243.386,260.285,241.958"/>
	<path clip-path="url(#SVGID_16_)" fill="#3A4A9F" d="M272.591,238.347v-9.217h1.574v9.176c0,2.771,1.406,4.305,3.717,4.305
		c2.247,0,3.674-1.449,3.674-4.242v-9.239h1.575v9.133c0,3.779-2.121,5.795-5.291,5.795
		C274.711,244.058,272.591,242.042,272.591,238.347"/>
	<polygon clip-path="url(#SVGID_16_)" fill="#3A4A9F" points="286.493,229.129 288.068,229.129 288.068,242.378 294.891,242.378 
		294.891,243.827 286.493,243.827 	"/>
	<polygon clip-path="url(#SVGID_16_)" fill="#3A4A9F" points="298.861,230.599 294.746,230.599 294.746,229.129 304.572,229.129 
		304.572,230.599 300.436,230.599 300.436,243.827 298.861,243.827 	"/>
	<rect x="307.282" y="229.13" clip-path="url(#SVGID_16_)" fill="#3A4A9F" width="1.575" height="14.697"/>
	<polygon clip-path="url(#SVGID_16_)" fill="#3A4A9F" points="312.511,229.129 314.002,229.129 321.686,240.698 321.686,229.129 
		323.241,229.129 323.241,243.827 321.917,243.827 314.044,231.985 314.044,243.827 312.511,243.827 	"/>
	<path clip-path="url(#SVGID_16_)" fill="#3A4A9F" d="M326.204,236.562v-0.146c0-4.262,2.688-7.496,6.551-7.496
		c1.91,0,3.19,0.546,4.451,1.576l-0.945,1.259c-0.903-0.798-1.953-1.365-3.548-1.365c-2.793,0-4.871,2.52-4.871,6.026v0.105
		c0,3.695,1.994,6.09,5.018,6.09c1.261,0,2.414-0.463,3.17-1.051v-4.137h-3.674v-1.406h5.187v6.299
		c-1.135,0.924-2.793,1.723-4.745,1.723C328.786,244.038,326.204,240.993,326.204,236.562"/>
	<polygon clip-path="url(#SVGID_16_)" fill="#3A4A9F" points="19.949,341.554 16.399,341.554 16.399,339.369 19.949,339.369 
		19.949,335.781 22.194,335.781 22.194,339.369 25.722,339.369 25.722,341.554 22.194,341.554 22.194,345.144 19.949,345.144 	"/>
	<path clip-path="url(#SVGID_16_)" fill="#3A4A9F" d="M27.509,346.068l1.512-1.723c0.798,0.881,1.763,1.535,3.17,1.535
		c1.365,0,2.415-0.924,2.415-2.334v-0.061c0-1.514-1.302-2.354-3.339-2.354h-0.735l-0.315-1.533l3.569-4.262h-5.563v-2.182h8.608
		v1.91l-3.717,4.264c2.038,0.313,3.906,1.51,3.906,4.072v0.061c0,2.752-1.994,4.621-4.808,4.621
		C30.155,348.083,28.601,347.263,27.509,346.068"/>
	<path clip-path="url(#SVGID_16_)" fill="#3A4A9F" d="M46.534,341.324c-0.735,0.84-1.764,1.363-3.065,1.363
		c-2.541,0-4.494-1.658-4.494-4.641v-0.061c0-2.939,2.058-5.063,4.871-5.063c1.512,0,2.583,0.461,3.464,1.344
		c1.03,1.029,1.702,2.646,1.702,5.668v0.15c0,5.08-2.164,7.998-5.691,7.998c-1.596,0-2.834-0.545-3.989-1.469l1.218-1.934
		c0.881,0.736,1.743,1.178,2.813,1.178C45.462,345.859,46.471,343.697,46.534,341.324 M46.45,337.902v-0.021
		c0-1.66-0.987-2.814-2.583-2.814c-1.554,0-2.498,1.195-2.498,2.814v0.041c0,1.66,1.008,2.709,2.54,2.709
		C45.462,340.63,46.45,339.498,46.45,337.902"/>
	<path clip-path="url(#SVGID_16_)" fill="#3A4A9F" d="M56.069,346.068l1.512-1.723c0.798,0.881,1.763,1.535,3.17,1.535
		c1.365,0,2.415-0.924,2.415-2.334v-0.061c0-1.514-1.302-2.354-3.339-2.354h-0.735l-0.315-1.533l3.569-4.262h-5.563v-2.182h8.608
		v1.91l-3.717,4.264c2.038,0.313,3.906,1.51,3.906,4.072v0.061c0,2.752-1.994,4.621-4.808,4.621
		C58.714,348.083,57.161,347.263,56.069,346.068"/>
	<path clip-path="url(#SVGID_16_)" fill="#3A4A9F" d="M67.303,346.234l1.386-1.805c0.966,0.863,1.931,1.408,3.129,1.408
		c1.574,0,2.624-1.031,2.624-2.625v-0.041c0-1.555-1.155-2.48-2.708-2.48c-0.882,0-1.618,0.254-2.226,0.549l-1.428-0.945
		l0.399-7.139h7.768v2.225h-5.711l-0.23,3.486c0.588-0.191,1.134-0.336,1.952-0.336c2.499,0,4.599,1.428,4.599,4.557v0.041
		c0,3.021-2.079,4.955-5.019,4.955C70.032,348.083,68.5,347.371,67.303,346.234"/>
	<polygon clip-path="url(#SVGID_16_)" fill="#3A4A9F" points="81.037,335.591 78.727,336.283 78.328,334.185 81.729,333.05 
		83.451,333.05 83.451,347.853 81.037,347.853 	"/>
	<path clip-path="url(#SVGID_16_)" fill="#3A4A9F" d="M91.222,346.068l1.512-1.723c0.798,0.881,1.763,1.535,3.171,1.535
		c1.364,0,2.414-0.924,2.414-2.334v-0.061c0-1.514-1.302-2.354-3.338-2.354h-0.736l-0.314-1.533l3.569-4.262h-5.564v-2.182h8.608
		v1.91l-3.716,4.264c2.037,0.313,3.906,1.51,3.906,4.072v0.061c0,2.752-1.995,4.621-4.809,4.621
		C93.868,348.083,92.314,347.263,91.222,346.068"/>
	<path clip-path="url(#SVGID_16_)" fill="#3A4A9F" d="M104.515,346.761c-1.05-1.07-1.701-2.625-1.701-5.691v-0.145
		c0-4.955,2.058-8,5.69-8c1.512,0,2.646,0.48,3.758,1.344l-1.196,1.93c-0.735-0.588-1.554-1.051-2.625-1.051
		c-2.12,0-3.086,2.184-3.15,4.664c0.756-0.82,1.744-1.344,3.087-1.344c2.394,0,4.472,1.553,4.472,4.574v0.045
		c0,2.961-2.142,4.994-4.892,4.994C106.489,348.082,105.355,347.601,104.515,346.761 M110.436,343.212v-0.041
		c0-1.598-1.008-2.648-2.541-2.648c-1.532,0-2.54,1.092-2.54,2.648v0.041c0,1.596,1.008,2.729,2.582,2.729
		C109.491,345.941,110.436,344.787,110.436,343.212"/>
	<path clip-path="url(#SVGID_16_)" fill="#3A4A9F" d="M116.59,346.761c-1.05-1.07-1.701-2.625-1.701-5.691v-0.145
		c0-4.955,2.058-8,5.69-8c1.512,0,2.646,0.48,3.758,1.344l-1.196,1.93c-0.735-0.588-1.554-1.051-2.625-1.051
		c-2.12,0-3.086,2.184-3.15,4.664c0.756-0.82,1.744-1.344,3.087-1.344c2.394,0,4.472,1.553,4.472,4.574v0.045
		c0,2.961-2.142,4.994-4.892,4.994C118.564,348.082,117.43,347.601,116.59,346.761 M122.511,343.212v-0.041
		c0-1.598-1.008-2.648-2.541-2.648c-1.532,0-2.54,1.092-2.54,2.648v0.041c0,1.596,1.008,2.729,2.582,2.729
		C121.566,345.941,122.511,344.787,122.511,343.212"/>
	<path clip-path="url(#SVGID_16_)" fill="#3A4A9F" d="M126.838,345.921l4.493-4.811c1.658-1.719,2.268-2.623,2.268-3.82
		c0-1.32-0.946-2.1-2.142-2.1c-1.155,0-1.973,0.629-2.939,1.889l-1.618-1.488c1.218-1.682,2.646-2.646,4.767-2.646
		c2.562,0,4.409,1.617,4.409,4.135v0.043c0,1.994-0.924,3.193-3.065,5.332l-2.94,3.193h6.068v2.205h-9.301V345.921z"/>
	<polygon clip-path="url(#SVGID_16_)" fill="#3A4A9F" points="144.582,335.38 138.178,335.38 138.178,333.154 147.227,333.154 
		147.227,334.982 141.579,347.853 138.934,347.853 	"/>
	<path clip-path="url(#SVGID_16_)" fill="#3A4A9F" d="M148.468,346.068l1.512-1.723c0.798,0.881,1.763,1.535,3.17,1.535
		c1.365,0,2.415-0.924,2.415-2.334v-0.061c0-1.514-1.302-2.354-3.339-2.354h-0.735l-0.315-1.533l3.569-4.262h-5.563v-2.182h8.608
		v1.91l-3.717,4.264c2.038,0.313,3.906,1.51,3.906,4.072v0.061c0,2.752-1.994,4.621-4.808,4.621
		C151.114,348.083,149.56,347.263,148.468,346.068"/>
	<polygon clip-path="url(#SVGID_16_)" fill="#3A4A9F" points="162.222,335.591 159.912,336.283 159.514,334.185 162.915,333.05 
		164.637,333.05 164.637,347.853 162.222,347.853 	"/>
	<path clip-path="url(#SVGID_16_)" fill="#3A4A9F" d="M-18.775,357.529c-9.278-0.006-17.001-7.531-16.996-17.016
		c0.006-9.516,7.82-17.129,17.263-16.99c9.276,0.139,16.772,7.734,16.753,17.016C-1.774,349.933-9.397,357.529-18.775,357.529
		 M-28.524,350.318c0.133-0.031,0.209-0.045,0.285-0.064c1.478-0.387,2.959-0.764,4.433-1.166c0.298-0.08,0.537-0.059,0.812,0.076
		c1.916,0.945,3.938,1.23,6.03,0.834c5.318-1.008,8.741-5.982,7.806-11.305c-0.921-5.25-6.091-8.816-11.325-7.813
		c-6.533,1.25-9.933,8.398-6.776,14.232c0.06,0.111,0.076,0.275,0.045,0.398c-0.193,0.752-0.406,1.5-0.611,2.25
		C-28.054,348.595-28.281,349.429-28.524,350.318"/>
	<path clip-path="url(#SVGID_16_)" fill="#3A4A9F" d="M-26.17,347.99c0.134-0.494,0.258-0.957,0.384-1.418
		c0.117-0.432,0.226-0.865,0.359-1.291c0.056-0.182,0.023-0.316-0.076-0.473c-0.918-1.434-1.375-3.004-1.273-4.707
		c0.185-3.078,1.646-5.4,4.372-6.816c4.805-2.498,10.563,0.328,11.614,5.639c0.885,4.473-2.267,8.881-6.793,9.504
		c-1.876,0.258-3.629-0.096-5.257-1.055c-0.213-0.125-0.397-0.145-0.628-0.082c-0.827,0.229-1.658,0.439-2.488,0.656
		C-26.013,347.962-26.072,347.97-26.17,347.99 M-16.218,345.433c0.252-0.031,0.454-0.031,0.639-0.086
		c1.202-0.352,1.714-0.869,1.834-1.895c0.024-0.199,0.081-0.424-0.154-0.549c-0.686-0.365-1.373-0.729-2.064-1.084
		c-0.219-0.113-0.404-0.063-0.562,0.143c-0.197,0.252-0.413,0.492-0.628,0.732c-0.322,0.357-0.482,0.387-0.906,0.174
		c-1.307-0.656-2.323-1.615-3.045-2.893c-0.148-0.262-0.131-0.467,0.054-0.682c0.175-0.203,0.358-0.398,0.526-0.607
		c0.15-0.188,0.235-0.389,0.135-0.645c-0.241-0.613-0.453-1.24-0.705-1.85c-0.069-0.168-0.214-0.34-0.369-0.434
		c-0.375-0.227-1.005-0.141-1.335,0.154c-0.826,0.732-1.118,1.658-0.944,2.732c0.133,0.82,0.563,1.512,0.996,2.205
		c1.351,2.162,3.191,3.689,5.661,4.406C-16.788,345.343-16.476,345.382-16.218,345.433"/>
	<path clip-path="url(#SVGID_16_)" fill="#3A4A9F" d="M337.585,332.777h2.52v2.33h-2.52V332.777z M337.669,336.724h2.372v11.127
		h-2.372V336.724z"/>
	<path clip-path="url(#SVGID_16_)" fill="#3A4A9F" d="M342.856,336.726h2.373v1.637c0.63-0.988,1.531-1.85,3.044-1.85
		c2.142,0,3.423,1.514,3.423,3.887v7.453h-2.373v-6.781c0-1.555-0.735-2.414-1.994-2.414c-1.24,0-2.1,0.922-2.1,2.455v6.74h-2.373
		V336.726z"/>
	<path clip-path="url(#SVGID_16_)" fill="#3A4A9F" d="M354.741,338.759h-1.238v-1.973h1.238v-0.861c0-1.133,0.273-1.992,0.818-2.541
		c0.547-0.521,1.324-0.797,2.33-0.797c0.715,0,1.219,0.084,1.682,0.232v1.994c-0.379-0.105-0.734-0.189-1.154-0.189
		c-0.863,0-1.324,0.484-1.324,1.531v0.631h2.457v1.973h-2.436v9.094h-2.373V338.759z"/>
	<path clip-path="url(#SVGID_16_)" fill="#3A4A9F" d="M360.433,342.416v-0.189c0-3.277,2.184-5.711,5.145-5.711
		c2.939,0,5.102,2.393,5.102,5.689v0.188c0,3.277-2.184,5.691-5.145,5.691C362.595,348.083,360.433,345.712,360.433,342.416
		 M368.306,342.373v-0.125c0-2.078-1.154-3.635-2.771-3.635c-1.658,0-2.729,1.533-2.729,3.613v0.125c0,2.08,1.154,3.654,2.771,3.654
		C367.235,346.005,368.306,344.451,368.306,342.373"/>
	<path clip-path="url(#SVGID_16_)" fill="#3A4A9F" d="M372.487,342.476c0-5.123,3.611-9.551,8.523-9.551
		c4.557,0,7.957,3.652,7.957,7.748c0,3.527-1.723,5.752-3.885,5.752c-1.531,0-2.393-0.713-2.75-1.596
		c-0.691,0.859-1.637,1.596-2.939,1.596c-1.783,0-3.191-1.344-3.191-3.57c0-3.088,2.037-5.646,4.283-5.646
		c1.344,0,2.1,0.732,2.541,1.574l0.252-1.281l1.932,0.314l-0.924,5.291c-0.084,0.4-0.125,0.777-0.125,1.07
		c0,0.82,0.482,1.324,1.363,1.324c1.408,0,2.604-1.934,2.604-4.852c0-3.609-2.961-6.947-7.139-6.947
		c-4.494,0-7.684,4.113-7.684,8.773c0,4.559,3.086,7.832,7.453,7.832c1.807,0,3.15-0.42,4.557-1.258l0.398,0.65
		c-1.471,0.883-3.004,1.387-4.977,1.387C376.015,351.087,372.466,347.455,372.487,342.476 M381.474,344.033
		c0.648-0.652,1.111-1.934,1.111-3.047c0-1.236-0.756-1.992-1.764-1.992c-0.566,0-1.092,0.229-1.533,0.672
		c-0.65,0.672-1.07,1.971-1.07,3.043c0,1.324,0.734,1.996,1.764,1.996C380.528,344.705,381.054,344.47,381.474,344.033"/>
	<rect x="391.407" y="332.693" clip-path="url(#SVGID_16_)" fill="#3A4A9F" width="2.371" height="15.158"/>
	<path clip-path="url(#SVGID_16_)" fill="#3A4A9F" d="M396.089,342.414v-0.168c0-3.338,2.018-5.73,4.746-5.73
		c3.023,0,4.619,2.518,4.619,5.855c0,0.15,0,0.486-0.02,0.822h-6.973c0.211,1.867,1.365,2.875,2.814,2.875
		c1.051,0,1.826-0.461,2.561-1.176l1.24,1.471c-1.008,1.07-2.246,1.719-3.906,1.719C398.315,348.082,396.089,345.9,396.089,342.414
		 M403.146,341.554c-0.127-1.766-0.924-3.047-2.311-3.047c-1.301,0-2.225,1.156-2.393,3.047H403.146z"/>
	<polygon clip-path="url(#SVGID_16_)" fill="#3A4A9F" points="411.083,340.462 413.247,336.726 415.745,336.726 412.405,342.162 
		415.892,347.853 413.331,347.853 411.062,343.884 408.772,347.853 406.274,347.853 409.72,342.162 406.401,336.726 
		408.964,336.726 	"/>
	<path clip-path="url(#SVGID_16_)" fill="#3A4A9F" d="M424.166,336.726h2.455l-3.779,11.295c-0.756,2.246-1.658,3.064-3.294,3.064
		c-0.82,0-1.555-0.211-2.248-0.588l0.693-1.828c0.379,0.211,0.84,0.379,1.279,0.379c0.631,0,1.01-0.271,1.345-1.176l-3.968-11.146
		h2.52l2.581,8.082L424.166,336.726z"/>
	<path clip-path="url(#SVGID_16_)" fill="#3A4A9F" d="M427.4,342.437v-0.213c0-3.314,2.164-5.711,5.082-5.711
		c1.596,0,2.645,0.588,3.568,1.514l-1.322,1.74c-0.588-0.605-1.238-1.109-2.246-1.109c-1.555,0-2.688,1.49-2.688,3.59v0.104
		c0,2.162,1.133,3.611,2.75,3.611c0.965,0,1.617-0.482,2.268-1.133l1.279,1.574c-0.881,0.986-1.992,1.678-3.693,1.678
		C429.5,348.082,427.4,345.751,427.4,342.437"/>
	<path clip-path="url(#SVGID_16_)" fill="#3A4A9F" d="M437.229,342.416v-0.189c0-3.277,2.184-5.711,5.145-5.711
		c2.939,0,5.102,2.393,5.102,5.689v0.188c0,3.277-2.184,5.691-5.145,5.691C439.391,348.083,437.229,345.712,437.229,342.416
		 M445.102,342.373v-0.125c0-2.078-1.154-3.635-2.771-3.635c-1.658,0-2.729,1.533-2.729,3.613v0.125c0,2.08,1.154,3.654,2.771,3.654
		C444.031,346.005,445.102,344.451,445.102,342.373"/>
	<path clip-path="url(#SVGID_16_)" fill="#3A4A9F" d="M449.66,336.726h2.373v1.637c0.631-0.988,1.531-1.85,3.045-1.85
		c2.141,0,3.422,1.514,3.422,3.887v7.453h-2.373v-6.781c0-1.555-0.734-2.414-1.994-2.414c-1.24,0-2.1,0.922-2.1,2.455v6.74h-2.373
		V336.726z"/>
	<rect x="461" y="345.058" clip-path="url(#SVGID_16_)" fill="#3A4A9F" width="2.688" height="2.793"/>
	<path clip-path="url(#SVGID_16_)" fill="#3A4A9F" d="M466.334,332.777h2.52v2.33h-2.52V332.777z M466.418,336.724h2.373v11.127
		h-2.373V336.724z"/>
	<path clip-path="url(#SVGID_16_)" fill="#3A4A9F" d="M472.066,345.164v-6.402h-1.217v-2.035h1.217v-3.004h2.373v3.004h2.498v2.035
		h-2.498v5.922c0,0.861,0.439,1.215,1.195,1.215c0.463,0,0.883-0.102,1.283-0.313v1.951c-0.547,0.293-1.176,0.482-1.975,0.482
		C473.305,348.019,472.066,347.326,472.066,345.164"/>
	<path clip-path="url(#SVGID_16_)" fill="#3A4A9F" d="M297.989,323.515h2.392c0.666,0.096,1.338,0.156,1.996,0.291
		c4.146,0.838,7.571,2.893,10.178,6.229c3.06,3.916,4.195,8.379,3.399,13.275c-0.699,4.313-2.819,7.859-6.26,10.551
		c-4.147,3.248-8.861,4.336-14.013,3.291c-4.063-0.826-7.368-2.959-9.925-6.223c-1.814-2.314-2.945-4.936-3.38-7.85
		c-0.065-0.434-0.128-0.867-0.192-1.301v-2.523c0.022-0.096,0.052-0.188,0.065-0.283c0.078-0.559,0.125-1.121,0.233-1.672
		c0.727-3.67,2.469-6.781,5.223-9.313c2.416-2.223,5.247-3.633,8.486-4.207C296.788,323.675,297.39,323.603,297.989,323.515
		 M299.22,332.804c-2.899,0-5.798,0.027-8.697-0.014c-1.186-0.018-2.308,0.846-2.3,2.314c0.018,3.607,0.018,7.213,0,10.82
		c-0.008,1.479,1.122,2.324,2.296,2.318c5.776-0.029,11.552-0.029,17.327,0c1.207,0.006,2.307-0.861,2.3-2.314
		c-0.017-3.607-0.017-7.213,0.001-10.82c0.007-1.467-1.104-2.336-2.297-2.318C304.974,332.832,302.097,332.804,299.22,332.804"/>
	<path clip-path="url(#SVGID_16_)" fill="#3A4A9F" d="M308.399,335.433v0.408c0,3.32,0,6.641,0,9.961
		c0,0.607-0.083,0.691-0.683,0.691c-5.699,0-11.399,0-17.098,0c-0.545,0-0.647-0.098-0.647-0.625
		c-0.001-3.354-0.001-6.707-0.001-10.061v-0.369c0.138,0.096,0.233,0.154,0.321,0.225c2.72,2.158,5.439,4.318,8.158,6.48
		c0.57,0.453,0.897,0.457,1.47,0.002c2.72-2.16,5.439-4.32,8.161-6.48C308.164,335.599,308.252,335.541,308.399,335.433"/>
	<path clip-path="url(#SVGID_16_)" fill="#3A4A9F" d="M291.735,334.56h14.896c-0.103,0.096-0.17,0.17-0.249,0.234
		c-2.322,1.842-4.646,3.682-6.963,5.529c-0.166,0.133-0.27,0.156-0.448,0.014c-2.334-1.863-4.675-3.717-7.014-5.574
		C291.892,334.712,291.834,334.65,291.735,334.56"/>
	<line clip-path="url(#SVGID_16_)" fill="#3A4A9F" x1="-62.88" y1="288.435" x2="504.047" y2="288.435"/>
	
		<line clip-path="url(#SVGID_16_)" fill="none" stroke="#3A4A9F" stroke-width="2.112" stroke-miterlimit="10" x1="-62.88" y1="288.435" x2="504.047" y2="288.435"/>
</g>
</svg>
